%TF.GenerationSoftware,KiCad,Pcbnew,(5.99.0-10363-ga7f956581c)*%
%TF.CreationDate,2021-04-24T20:18:21-04:00*%
%TF.ProjectId,NTP_PPS_Board,4e54505f-5050-4535-9f42-6f6172642e6b,rev?*%
%TF.SameCoordinates,Original*%
%TF.FileFunction,Paste,Top*%
%TF.FilePolarity,Positive*%
%FSLAX46Y46*%
G04 Gerber Fmt 4.6, Leading zero omitted, Abs format (unit mm)*
G04 Created by KiCad (PCBNEW (5.99.0-10363-ga7f956581c)) date 2021-04-24 20:18:21*
%MOMM*%
%LPD*%
G01*
G04 APERTURE LIST*
G04 Aperture macros list*
%AMRoundRect*
0 Rectangle with rounded corners*
0 $1 Rounding radius*
0 $2 $3 $4 $5 $6 $7 $8 $9 X,Y pos of 4 corners*
0 Add a 4 corners polygon primitive as box body*
4,1,4,$2,$3,$4,$5,$6,$7,$8,$9,$2,$3,0*
0 Add four circle primitives for the rounded corners*
1,1,$1+$1,$2,$3*
1,1,$1+$1,$4,$5*
1,1,$1+$1,$6,$7*
1,1,$1+$1,$8,$9*
0 Add four rect primitives between the rounded corners*
20,1,$1+$1,$2,$3,$4,$5,0*
20,1,$1+$1,$4,$5,$6,$7,0*
20,1,$1+$1,$6,$7,$8,$9,0*
20,1,$1+$1,$8,$9,$2,$3,0*%
G04 Aperture macros list end*
%ADD10RoundRect,0.200000X-0.200000X-0.275000X0.200000X-0.275000X0.200000X0.275000X-0.200000X0.275000X0*%
%ADD11RoundRect,0.200000X-0.275000X0.200000X-0.275000X-0.200000X0.275000X-0.200000X0.275000X0.200000X0*%
%ADD12R,1.400000X1.200000*%
%ADD13R,1.400000X1.000000*%
%ADD14R,2.000000X0.900000*%
%ADD15R,0.900000X2.000000*%
%ADD16R,5.000000X5.000000*%
%ADD17RoundRect,0.218750X-0.218750X-0.256250X0.218750X-0.256250X0.218750X0.256250X-0.218750X0.256250X0*%
%ADD18RoundRect,0.150000X0.587500X0.150000X-0.587500X0.150000X-0.587500X-0.150000X0.587500X-0.150000X0*%
%ADD19RoundRect,0.218750X0.218750X0.381250X-0.218750X0.381250X-0.218750X-0.381250X0.218750X-0.381250X0*%
%ADD20R,1.550000X1.300000*%
%ADD21RoundRect,0.200000X0.275000X-0.200000X0.275000X0.200000X-0.275000X0.200000X-0.275000X-0.200000X0*%
%ADD22RoundRect,0.250000X-0.550000X1.500000X-0.550000X-1.500000X0.550000X-1.500000X0.550000X1.500000X0*%
%ADD23R,2.000000X1.500000*%
%ADD24R,2.000000X3.800000*%
%ADD25RoundRect,0.225000X0.225000X0.250000X-0.225000X0.250000X-0.225000X-0.250000X0.225000X-0.250000X0*%
%ADD26RoundRect,0.225000X-0.225000X-0.250000X0.225000X-0.250000X0.225000X0.250000X-0.225000X0.250000X0*%
%ADD27RoundRect,0.225000X0.225000X-0.225000X0.225000X0.225000X-0.225000X0.225000X-0.225000X-0.225000X0*%
%ADD28RoundRect,0.062500X0.062500X-0.337500X0.062500X0.337500X-0.062500X0.337500X-0.062500X-0.337500X0*%
%ADD29RoundRect,0.062500X0.337500X-0.062500X0.337500X0.062500X-0.337500X0.062500X-0.337500X-0.062500X0*%
%ADD30RoundRect,0.150000X-0.587500X-0.150000X0.587500X-0.150000X0.587500X0.150000X-0.587500X0.150000X0*%
%ADD31RoundRect,0.250000X-1.500000X-0.550000X1.500000X-0.550000X1.500000X0.550000X-1.500000X0.550000X0*%
%ADD32RoundRect,0.225000X0.250000X-0.225000X0.250000X0.225000X-0.250000X0.225000X-0.250000X-0.225000X0*%
%ADD33R,2.100000X0.400000*%
%ADD34R,1.900000X1.900000*%
%ADD35R,1.000000X1.200000*%
%ADD36RoundRect,0.200000X0.200000X0.275000X-0.200000X0.275000X-0.200000X-0.275000X0.200000X-0.275000X0*%
%ADD37RoundRect,0.218750X0.218750X0.256250X-0.218750X0.256250X-0.218750X-0.256250X0.218750X-0.256250X0*%
G04 APERTURE END LIST*
D10*
%TO.C,R1*%
X94075000Y-79000000D03*
X95725000Y-79000000D03*
%TD*%
D11*
%TO.C,R9*%
X95504000Y-105473000D03*
X95504000Y-103823000D03*
%TD*%
D12*
%TO.C,D2*%
X132800000Y-113770000D03*
D13*
X132800000Y-112050000D03*
X130600000Y-112050000D03*
X130600000Y-113950000D03*
%TD*%
D14*
%TO.C,U1*%
X98200000Y-71195000D03*
X98200000Y-72465000D03*
X98200000Y-73735000D03*
X98200000Y-75005000D03*
X98200000Y-76275000D03*
X98200000Y-77545000D03*
X98200000Y-78815000D03*
X98200000Y-80085000D03*
X98200000Y-81355000D03*
X98200000Y-82625000D03*
X98200000Y-83895000D03*
X98200000Y-85165000D03*
X98200000Y-86435000D03*
X98200000Y-87705000D03*
D15*
X100985000Y-88705000D03*
X102255000Y-88705000D03*
X103525000Y-88705000D03*
X104795000Y-88705000D03*
X106065000Y-88705000D03*
X107335000Y-88705000D03*
X108605000Y-88705000D03*
X109875000Y-88705000D03*
X111145000Y-88705000D03*
X112415000Y-88705000D03*
D14*
X115200000Y-87705000D03*
X115200000Y-86435000D03*
X115200000Y-85165000D03*
X115200000Y-83895000D03*
X115200000Y-82625000D03*
X115200000Y-81355000D03*
X115200000Y-80085000D03*
X115200000Y-78815000D03*
X115200000Y-77545000D03*
X115200000Y-76275000D03*
X115200000Y-75005000D03*
X115200000Y-73735000D03*
X115200000Y-72465000D03*
X115200000Y-71195000D03*
D16*
X105700000Y-78695000D03*
%TD*%
D17*
%TO.C,D4*%
X110012500Y-104600000D03*
X111587500Y-104600000D03*
%TD*%
D18*
%TO.C,Q3*%
X116475000Y-111250000D03*
X116475000Y-109350000D03*
X114600000Y-110300000D03*
%TD*%
D19*
%TO.C,FB2*%
X90662500Y-88700000D03*
X88537500Y-88700000D03*
%TD*%
D20*
%TO.C,SW1*%
X104875000Y-113450000D03*
X96925000Y-113450000D03*
X104875000Y-117950000D03*
X96925000Y-117950000D03*
%TD*%
%TO.C,SW2*%
X119291000Y-113450000D03*
X111341000Y-113450000D03*
X119291000Y-117950000D03*
X111341000Y-117950000D03*
%TD*%
D21*
%TO.C,R3*%
X124000000Y-111025000D03*
X124000000Y-109375000D03*
%TD*%
D22*
%TO.C,C8*%
X91440000Y-94228000D03*
X91440000Y-99828000D03*
%TD*%
D10*
%TO.C,R5*%
X100150000Y-109400000D03*
X101800000Y-109400000D03*
%TD*%
D23*
%TO.C,U3*%
X97750000Y-101900000D03*
X97750000Y-104200000D03*
D24*
X104050000Y-104200000D03*
D23*
X97750000Y-106500000D03*
%TD*%
D25*
%TO.C,R2*%
X127675000Y-116900000D03*
X126125000Y-116900000D03*
%TD*%
D26*
%TO.C,C3*%
X100225000Y-111100000D03*
X101775000Y-111100000D03*
%TD*%
D27*
%TO.C,U2*%
X92560000Y-104440000D03*
X91440000Y-105560000D03*
X92560000Y-106680000D03*
X90320000Y-106680000D03*
X91440000Y-106680000D03*
X90320000Y-105560000D03*
X92560000Y-105560000D03*
X90320000Y-104440000D03*
X91440000Y-104440000D03*
D28*
X89940000Y-108010000D03*
X90440000Y-108010000D03*
X90940000Y-108010000D03*
X91440000Y-108010000D03*
X91940000Y-108010000D03*
X92440000Y-108010000D03*
X92940000Y-108010000D03*
D29*
X93890000Y-107060000D03*
X93890000Y-106560000D03*
X93890000Y-106060000D03*
X93890000Y-105560000D03*
X93890000Y-105060000D03*
X93890000Y-104560000D03*
X93890000Y-104060000D03*
D28*
X92940000Y-103110000D03*
X92440000Y-103110000D03*
X91940000Y-103110000D03*
X91440000Y-103110000D03*
X90940000Y-103110000D03*
X90440000Y-103110000D03*
X89940000Y-103110000D03*
D29*
X88990000Y-104060000D03*
X88990000Y-104560000D03*
X88990000Y-105060000D03*
X88990000Y-105560000D03*
X88990000Y-106060000D03*
X88990000Y-106560000D03*
X88990000Y-107060000D03*
%TD*%
D18*
%TO.C,Q2*%
X105637500Y-111250000D03*
X105637500Y-109350000D03*
X103762500Y-110300000D03*
%TD*%
D19*
%TO.C,FB1*%
X95262500Y-80700000D03*
X93137500Y-80700000D03*
%TD*%
D26*
%TO.C,R8*%
X92115000Y-109960000D03*
X93665000Y-109960000D03*
%TD*%
D25*
%TO.C,C9*%
X98311000Y-111252000D03*
X96761000Y-111252000D03*
%TD*%
D26*
%TO.C,C11*%
X140925000Y-79600000D03*
X142475000Y-79600000D03*
%TD*%
%TO.C,C1*%
X89575000Y-78900000D03*
X88025000Y-78900000D03*
%TD*%
D30*
%TO.C,Q1*%
X126362500Y-109250000D03*
X126362500Y-111150000D03*
X128237500Y-110200000D03*
%TD*%
D25*
%TO.C,R11*%
X108475000Y-104600000D03*
X106925000Y-104600000D03*
%TD*%
D26*
%TO.C,C10*%
X96725000Y-109400000D03*
X98275000Y-109400000D03*
%TD*%
D31*
%TO.C,C5*%
X97784000Y-95400000D03*
X103384000Y-95400000D03*
%TD*%
D32*
%TO.C,C4*%
X95250000Y-91681000D03*
X95250000Y-93231000D03*
%TD*%
D10*
%TO.C,R4*%
X110750000Y-109200000D03*
X112400000Y-109200000D03*
%TD*%
D26*
%TO.C,C7*%
X107025000Y-100900000D03*
X108575000Y-100900000D03*
%TD*%
D33*
%TO.C,J1*%
X91850000Y-82300000D03*
X91850000Y-82950000D03*
X91850000Y-83600000D03*
X91850000Y-84250000D03*
X91850000Y-84900000D03*
D34*
X88800000Y-84600000D03*
D35*
X91050000Y-80400000D03*
X91050000Y-86800000D03*
D34*
X88800000Y-82600000D03*
%TD*%
D17*
%TO.C,D3*%
X110012500Y-106800000D03*
X111587500Y-106800000D03*
%TD*%
D25*
%TO.C,R7*%
X108475000Y-106800000D03*
X106925000Y-106800000D03*
%TD*%
D36*
%TO.C,R6*%
X132625000Y-109900000D03*
X130975000Y-109900000D03*
%TD*%
D31*
%TO.C,C6*%
X107900000Y-95400000D03*
X113500000Y-95400000D03*
%TD*%
D21*
%TO.C,R10*%
X89408000Y-92519000D03*
X89408000Y-90869000D03*
%TD*%
D37*
%TO.C,D1*%
X127687500Y-115100000D03*
X126112500Y-115100000D03*
%TD*%
D26*
%TO.C,C2*%
X112375000Y-111400000D03*
X110825000Y-111400000D03*
%TD*%
D12*
%TO.C,D5*%
X92950000Y-88330000D03*
D13*
X92950000Y-90050000D03*
X95150000Y-90050000D03*
X95150000Y-88150000D03*
%TD*%
M02*
