%TF.GenerationSoftware,KiCad,Pcbnew,(5.99.0-10363-ga7f956581c)*%
%TF.CreationDate,2021-04-24T20:18:21-04:00*%
%TF.ProjectId,NTP_PPS_Board,4e54505f-5050-4535-9f42-6f6172642e6b,rev?*%
%TF.SameCoordinates,Original*%
%TF.FileFunction,Copper,L2,Bot*%
%TF.FilePolarity,Positive*%
%FSLAX46Y46*%
G04 Gerber Fmt 4.6, Leading zero omitted, Abs format (unit mm)*
G04 Created by KiCad (PCBNEW (5.99.0-10363-ga7f956581c)) date 2021-04-24 20:18:21*
%MOMM*%
%LPD*%
G01*
G04 APERTURE LIST*
G04 Aperture macros list*
%AMRoundRect*
0 Rectangle with rounded corners*
0 $1 Rounding radius*
0 $2 $3 $4 $5 $6 $7 $8 $9 X,Y pos of 4 corners*
0 Add a 4 corners polygon primitive as box body*
4,1,4,$2,$3,$4,$5,$6,$7,$8,$9,$2,$3,0*
0 Add four circle primitives for the rounded corners*
1,1,$1+$1,$2,$3*
1,1,$1+$1,$4,$5*
1,1,$1+$1,$6,$7*
1,1,$1+$1,$8,$9*
0 Add four rect primitives between the rounded corners*
20,1,$1+$1,$2,$3,$4,$5,0*
20,1,$1+$1,$4,$5,$6,$7,0*
20,1,$1+$1,$6,$7,$8,$9,0*
20,1,$1+$1,$8,$9,$2,$3,0*%
G04 Aperture macros list end*
%TA.AperFunction,WasherPad*%
%ADD10C,3.000000*%
%TD*%
%TA.AperFunction,ComponentPad*%
%ADD11C,1.524000*%
%TD*%
%TA.AperFunction,ComponentPad*%
%ADD12RoundRect,0.475000X-0.600000X0.000000X-0.600000X0.000000X0.600000X0.000000X0.600000X0.000000X0*%
%TD*%
%TA.AperFunction,ComponentPad*%
%ADD13C,3.556000*%
%TD*%
%TA.AperFunction,ComponentPad*%
%ADD14C,3.810000*%
%TD*%
%TA.AperFunction,ViaPad*%
%ADD15C,0.800000*%
%TD*%
%TA.AperFunction,ViaPad*%
%ADD16C,1.000000*%
%TD*%
%TA.AperFunction,Conductor*%
%ADD17C,0.400000*%
%TD*%
%TA.AperFunction,Conductor*%
%ADD18C,0.200000*%
%TD*%
%TA.AperFunction,Conductor*%
%ADD19C,1.000000*%
%TD*%
%TA.AperFunction,Conductor*%
%ADD20C,0.800000*%
%TD*%
G04 APERTURE END LIST*
D10*
%TO.P,U4,*%
%TO.N,*%
X119622000Y-77131500D03*
X148578000Y-77131500D03*
X148578000Y-106595500D03*
X119622000Y-106595500D03*
D11*
%TO.P,U4,1,Data*%
%TO.N,/SDA*%
X125210000Y-77131500D03*
%TO.P,U4,2,CLK*%
%TO.N,/SCL*%
X127750000Y-77131500D03*
%TO.P,U4,3,A0/DC*%
%TO.N,unconnected-(U4-Pad3)*%
X130290000Y-77131500D03*
%TO.P,U4,4,RST*%
%TO.N,/OLED_RST*%
X132830000Y-77131500D03*
%TO.P,U4,5,CS*%
%TO.N,unconnected-(U4-Pad5)*%
X135370000Y-77131500D03*
%TO.P,U4,6,3Vo*%
%TO.N,unconnected-(U4-Pad6)*%
X137910000Y-77131500D03*
%TO.P,U4,7,Vin*%
%TO.N,+3V3*%
X140450000Y-77131500D03*
%TO.P,U4,8,GND*%
%TO.N,GND*%
X142990000Y-77131500D03*
%TD*%
D12*
%TO.P,J1,6,Shield*%
%TO.N,Net-(FB2-Pad2)*%
X88800000Y-86425000D03*
X88800000Y-80775000D03*
%TD*%
D13*
%TO.P,Je1,1,In*%
%TO.N,Net-(D2-Pad2)*%
X139900000Y-112900000D03*
D14*
%TO.P,Je1,2,Ext*%
%TO.N,GND*%
X136770000Y-116030000D03*
X143030000Y-116030000D03*
X143030000Y-109770000D03*
X136770000Y-109770000D03*
%TD*%
D15*
%TO.N,GND*%
X96012000Y-91186000D03*
%TO.N,+3V3*%
X113030000Y-106934000D03*
X113030000Y-103378000D03*
%TO.N,VBUS*%
X96266000Y-82042000D03*
X94234000Y-82042000D03*
X93642489Y-91948000D03*
X91948000Y-91440000D03*
X92964000Y-91440000D03*
X95250000Y-82296000D03*
%TO.N,GND*%
X92964000Y-85598000D03*
X92964000Y-87122000D03*
%TO.N,+3V3*%
X99314000Y-103632000D03*
X105410000Y-102362000D03*
X105664000Y-103124000D03*
X99314000Y-104394000D03*
%TO.N,/DTR*%
X109461331Y-109931326D03*
X103378000Y-111252000D03*
X95504000Y-112014000D03*
%TO.N,Net-(U1-Pad34)*%
X88138000Y-108966000D03*
X109220000Y-86360000D03*
%TO.N,Net-(U1-Pad35)*%
X109982000Y-84074000D03*
X93980000Y-101854000D03*
%TO.N,GND*%
X95504000Y-102870000D03*
%TO.N,/RTS*%
X88063982Y-104935664D03*
X98552000Y-107950000D03*
%TO.N,Net-(R8-Pad2)*%
X94796387Y-106650992D03*
X94742000Y-110236000D03*
%TO.N,/USB-*%
X90287232Y-110353232D03*
%TO.N,/USB+*%
X89544768Y-109610768D03*
%TO.N,/USB-*%
X90287232Y-110353232D03*
%TO.N,/USB+*%
X89544768Y-109610768D03*
%TO.N,GND*%
X98298000Y-110490000D03*
%TO.N,/USB-*%
X97399232Y-89544768D03*
%TO.N,/USB+*%
X96656768Y-90287232D03*
%TO.N,GND*%
X89454607Y-77825500D03*
X90424000Y-89916000D03*
X91948000Y-85598000D03*
X101092000Y-87122000D03*
%TO.N,/EN*%
X100330000Y-74422000D03*
X113030000Y-110490000D03*
%TO.N,/IO0*%
X115316000Y-89408000D03*
X108204000Y-109220000D03*
%TO.N,Net-(C6-Pad2)*%
X114300000Y-96774000D03*
X114300000Y-105918000D03*
%TO.N,+3V3*%
X121666000Y-108966000D03*
X124206000Y-107188000D03*
%TO.N,VBUS*%
X121158000Y-102870000D03*
X124968000Y-102870000D03*
%TO.N,GND*%
X108966000Y-99822000D03*
X102362000Y-96774000D03*
X103632000Y-96774000D03*
X103886000Y-93980000D03*
X102108000Y-93980000D03*
X91440000Y-105664000D03*
X92964000Y-100838000D03*
X92964000Y-98806000D03*
X89916000Y-100838000D03*
X89916000Y-98806000D03*
X89916000Y-99822000D03*
X92964000Y-99822000D03*
X96520000Y-100584000D03*
X98552000Y-100584000D03*
X97536000Y-100584000D03*
X106934000Y-105664000D03*
%TO.N,/EN*%
X113284000Y-113284000D03*
X105918000Y-116840000D03*
D16*
%TO.N,GND*%
X105664000Y-82042000D03*
X124968000Y-116840000D03*
X102362000Y-78486000D03*
X103886000Y-75184000D03*
X101092000Y-72644000D03*
X109728000Y-110998000D03*
X108966000Y-78486000D03*
X113030000Y-72136000D03*
X106172000Y-114808000D03*
X98298000Y-113792000D03*
X117348000Y-113792000D03*
X107188000Y-75184000D03*
%TD*%
D17*
%TO.N,+3V3*%
X113030000Y-106934000D02*
X113030000Y-103378000D01*
D18*
%TO.N,Net-(C6-Pad2)*%
X114300000Y-105918000D02*
X114300000Y-96774000D01*
D17*
%TO.N,/IO0*%
X115316000Y-106934000D02*
X115316000Y-89408000D01*
X109077565Y-109131815D02*
X113118185Y-109131815D01*
X108989380Y-109220000D02*
X109077565Y-109131815D01*
X113118185Y-109131815D02*
X115316000Y-106934000D01*
X108204000Y-109220000D02*
X108989380Y-109220000D01*
%TO.N,/EN*%
X100330000Y-78740000D02*
X100330000Y-74422000D01*
X108204000Y-82296000D02*
X107442000Y-83058000D01*
X107442000Y-83058000D02*
X104648000Y-83058000D01*
X112776000Y-82296000D02*
X108204000Y-82296000D01*
X104648000Y-83058000D02*
X100330000Y-78740000D01*
X116332000Y-107188000D02*
X116332000Y-85852000D01*
X116332000Y-85852000D02*
X112776000Y-82296000D01*
X113030000Y-110490000D02*
X116332000Y-107188000D01*
%TO.N,VBUS*%
X95504000Y-82042000D02*
X95250000Y-82296000D01*
X96266000Y-82042000D02*
X95504000Y-82042000D01*
X94234000Y-82042000D02*
X94996000Y-82042000D01*
X94996000Y-82042000D02*
X95250000Y-82296000D01*
D19*
X92964000Y-91440000D02*
X91948000Y-91440000D01*
X95250000Y-89154000D02*
X92964000Y-91440000D01*
X95250000Y-82296000D02*
X95250000Y-89154000D01*
D18*
%TO.N,Net-(U1-Pad35)*%
X101408489Y-94171511D02*
X101408489Y-92647511D01*
X101408489Y-92647511D02*
X109982000Y-84074000D01*
X93980000Y-101600000D02*
X101408489Y-94171511D01*
X93980000Y-101854000D02*
X93980000Y-101600000D01*
D20*
%TO.N,+3V3*%
X104140000Y-103632000D02*
X105410000Y-102362000D01*
X99314000Y-103632000D02*
X104140000Y-103632000D01*
X104394000Y-104394000D02*
X105664000Y-103124000D01*
X99314000Y-104394000D02*
X104394000Y-104394000D01*
D18*
%TO.N,/DTR*%
X108140657Y-111252000D02*
X109461331Y-109931326D01*
X103378000Y-111252000D02*
X108140657Y-111252000D01*
X102616000Y-112014000D02*
X103378000Y-111252000D01*
X95504000Y-112014000D02*
X102616000Y-112014000D01*
%TO.N,Net-(U1-Pad34)*%
X102807511Y-92772489D02*
X109220000Y-86360000D01*
X102807511Y-95293212D02*
X102807511Y-92772489D01*
X99822000Y-98278723D02*
X102807511Y-95293212D01*
X99822000Y-102108000D02*
X99822000Y-98278723D01*
X96012000Y-105918000D02*
X99822000Y-102108000D01*
X94494102Y-105918000D02*
X96012000Y-105918000D01*
X92202000Y-108210102D02*
X94494102Y-105918000D01*
X92202000Y-110490000D02*
X92202000Y-108210102D01*
X91585520Y-111106480D02*
X92202000Y-110490000D01*
X89154000Y-111106480D02*
X91585520Y-111106480D01*
X87884000Y-109220000D02*
X87884000Y-109836480D01*
X88138000Y-108966000D02*
X87884000Y-109220000D01*
X87884000Y-109836480D02*
X89154000Y-111106480D01*
%TO.N,/RTS*%
X87376000Y-105623646D02*
X88063982Y-104935664D01*
X87376000Y-110236000D02*
X87376000Y-105623646D01*
X88646000Y-111506000D02*
X87376000Y-110236000D01*
X94996000Y-111506000D02*
X88646000Y-111506000D01*
X98552000Y-107950000D02*
X94996000Y-111506000D01*
%TO.N,Net-(R8-Pad2)*%
X94742000Y-106705379D02*
X94796387Y-106650992D01*
X94742000Y-110236000D02*
X94742000Y-106705379D01*
%TO.N,/USB-*%
X90287232Y-103324968D02*
X90287232Y-110353232D01*
X91665000Y-101947200D02*
X90287232Y-103324968D01*
X97399232Y-91640968D02*
X91665000Y-97375200D01*
X97399232Y-89544768D02*
X97399232Y-91640968D01*
%TO.N,/USB+*%
X89837231Y-109318305D02*
X89544768Y-109610768D01*
%TO.N,/USB-*%
X91665000Y-97375200D02*
X91665000Y-101947200D01*
%TO.N,/USB+*%
X89837231Y-103138569D02*
X89837231Y-109318305D01*
X91215000Y-101760800D02*
X89837231Y-103138569D01*
X91215000Y-97188800D02*
X91215000Y-101760800D01*
X96949231Y-90579695D02*
X96949231Y-91454569D01*
X96656768Y-90287232D02*
X96949231Y-90579695D01*
X96949231Y-91454569D02*
X91215000Y-97188800D01*
D17*
%TO.N,+3V3*%
X124206000Y-107188000D02*
X122428000Y-108966000D01*
X122428000Y-108966000D02*
X121666000Y-108966000D01*
%TO.N,VBUS*%
X124968000Y-102870000D02*
X121158000Y-102870000D01*
%TO.N,/EN*%
X105918000Y-116840000D02*
X109728000Y-116840000D01*
X109728000Y-116840000D02*
X113284000Y-113284000D01*
%TD*%
%TA.AperFunction,Conductor*%
%TO.N,GND*%
G36*
X154956914Y-71137313D02*
G01*
X154961674Y-71141674D01*
X157458326Y-73638326D01*
X157479718Y-73684202D01*
X157480000Y-73690652D01*
X157480000Y-116809348D01*
X157462687Y-116856914D01*
X157458326Y-116861674D01*
X154961674Y-119358326D01*
X154915798Y-119379718D01*
X154909348Y-119380000D01*
X91470652Y-119380000D01*
X91423086Y-119362687D01*
X91418326Y-119358326D01*
X89855982Y-117795982D01*
X135292005Y-117795982D01*
X135293314Y-117800866D01*
X135361930Y-117861040D01*
X135365783Y-117863997D01*
X135612986Y-118029173D01*
X135617172Y-118031590D01*
X135883831Y-118163092D01*
X135888292Y-118164940D01*
X136169840Y-118260512D01*
X136174500Y-118261761D01*
X136466115Y-118319767D01*
X136470890Y-118320396D01*
X136767589Y-118339842D01*
X136772411Y-118339842D01*
X137069110Y-118320396D01*
X137073885Y-118319767D01*
X137365500Y-118261761D01*
X137370160Y-118260512D01*
X137651708Y-118164940D01*
X137656169Y-118163092D01*
X137922828Y-118031590D01*
X137927014Y-118029173D01*
X138174217Y-117863997D01*
X138178070Y-117861040D01*
X138242916Y-117804172D01*
X138247410Y-117795982D01*
X141552005Y-117795982D01*
X141553314Y-117800866D01*
X141621930Y-117861040D01*
X141625783Y-117863997D01*
X141872986Y-118029173D01*
X141877172Y-118031590D01*
X142143831Y-118163092D01*
X142148292Y-118164940D01*
X142429840Y-118260512D01*
X142434500Y-118261761D01*
X142726115Y-118319767D01*
X142730890Y-118320396D01*
X143027589Y-118339842D01*
X143032411Y-118339842D01*
X143329110Y-118320396D01*
X143333885Y-118319767D01*
X143625500Y-118261761D01*
X143630160Y-118260512D01*
X143911708Y-118164940D01*
X143916169Y-118163092D01*
X144182828Y-118031590D01*
X144187014Y-118029173D01*
X144434217Y-117863997D01*
X144438070Y-117861040D01*
X144502916Y-117804172D01*
X144508033Y-117794846D01*
X144507047Y-117789890D01*
X143039226Y-116322069D01*
X143029587Y-116317574D01*
X143023688Y-116319155D01*
X141556500Y-117786343D01*
X141552005Y-117795982D01*
X138247410Y-117795982D01*
X138248033Y-117794846D01*
X138247047Y-117789890D01*
X136779226Y-116322069D01*
X136769587Y-116317574D01*
X136763688Y-116319155D01*
X135296500Y-117786343D01*
X135292005Y-117795982D01*
X89855982Y-117795982D01*
X88921674Y-116861674D01*
X88900282Y-116815798D01*
X88900000Y-116809348D01*
X88900000Y-114937006D01*
X89995490Y-114937006D01*
X89995593Y-114939625D01*
X90006088Y-115206756D01*
X90006611Y-115220072D01*
X90057506Y-115498748D01*
X90058336Y-115501235D01*
X90058336Y-115501236D01*
X90118555Y-115681732D01*
X90147160Y-115767472D01*
X90273782Y-116020883D01*
X90275266Y-116023030D01*
X90275270Y-116023037D01*
X90297902Y-116055782D01*
X90434847Y-116253924D01*
X90627141Y-116461947D01*
X90846827Y-116640799D01*
X90849068Y-116642148D01*
X90849072Y-116642151D01*
X91009898Y-116738976D01*
X91089522Y-116786914D01*
X91091932Y-116787935D01*
X91091935Y-116787936D01*
X91347975Y-116896354D01*
X91350384Y-116897374D01*
X91352916Y-116898045D01*
X91352918Y-116898046D01*
X91532310Y-116945611D01*
X91624207Y-116969977D01*
X91905528Y-117003274D01*
X92034407Y-117000237D01*
X92186115Y-116996662D01*
X92186119Y-116996662D01*
X92188734Y-116996600D01*
X92191309Y-116996171D01*
X92191313Y-116996171D01*
X92465593Y-116950518D01*
X92465596Y-116950517D01*
X92468175Y-116950088D01*
X92589532Y-116911708D01*
X92735780Y-116865456D01*
X92735783Y-116865455D01*
X92738274Y-116864667D01*
X92740628Y-116863536D01*
X92740632Y-116863535D01*
X92813065Y-116828753D01*
X105112579Y-116828753D01*
X105112983Y-116832870D01*
X105128994Y-116996171D01*
X105130102Y-117007473D01*
X105131406Y-117011394D01*
X105131407Y-117011397D01*
X105185480Y-117173947D01*
X105186785Y-117177869D01*
X105279811Y-117331472D01*
X105282679Y-117334442D01*
X105282683Y-117334447D01*
X105389315Y-117444867D01*
X105404555Y-117460648D01*
X105408014Y-117462912D01*
X105408017Y-117462914D01*
X105441857Y-117485058D01*
X105554818Y-117558978D01*
X105558698Y-117560421D01*
X105719254Y-117620131D01*
X105719256Y-117620131D01*
X105723132Y-117621573D01*
X105769562Y-117627768D01*
X105897028Y-117644776D01*
X105897032Y-117644776D01*
X105901131Y-117645323D01*
X105905252Y-117644948D01*
X105905256Y-117644948D01*
X105981723Y-117637989D01*
X106079968Y-117629048D01*
X106250756Y-117573556D01*
X106279016Y-117556710D01*
X106401449Y-117483725D01*
X106401450Y-117483724D01*
X106405005Y-117481605D01*
X106426736Y-117460911D01*
X106477767Y-117440500D01*
X109685170Y-117440500D01*
X109694829Y-117441133D01*
X109728000Y-117445500D01*
X109732808Y-117444867D01*
X109879910Y-117425501D01*
X109879913Y-117425500D01*
X109884715Y-117424868D01*
X110030750Y-117364378D01*
X110034595Y-117361428D01*
X110034598Y-117361426D01*
X110125762Y-117291473D01*
X110125763Y-117291472D01*
X110152302Y-117271108D01*
X110156153Y-117268153D01*
X110176517Y-117241614D01*
X110182899Y-117234336D01*
X111389646Y-116027589D01*
X134460158Y-116027589D01*
X134460158Y-116032411D01*
X134479604Y-116329110D01*
X134480233Y-116333885D01*
X134538239Y-116625500D01*
X134539488Y-116630160D01*
X134635060Y-116911708D01*
X134636908Y-116916169D01*
X134768410Y-117182828D01*
X134770827Y-117187014D01*
X134936003Y-117434217D01*
X134938960Y-117438070D01*
X134995828Y-117502916D01*
X135005154Y-117508033D01*
X135010110Y-117507047D01*
X136477931Y-116039226D01*
X136482426Y-116029587D01*
X136480845Y-116023688D01*
X135013657Y-114556500D01*
X135004018Y-114552005D01*
X134999134Y-114553314D01*
X134938960Y-114621930D01*
X134936003Y-114625783D01*
X134770827Y-114872986D01*
X134768410Y-114877172D01*
X134636908Y-115143831D01*
X134635060Y-115148292D01*
X134539488Y-115429840D01*
X134538239Y-115434500D01*
X134480233Y-115726115D01*
X134479604Y-115730890D01*
X134460158Y-116027589D01*
X111389646Y-116027589D01*
X113152082Y-114265154D01*
X135291967Y-114265154D01*
X135292953Y-114270110D01*
X138526343Y-117503500D01*
X138535982Y-117507995D01*
X138540866Y-117506686D01*
X138601040Y-117438070D01*
X138603997Y-117434217D01*
X138769173Y-117187014D01*
X138771590Y-117182828D01*
X138903092Y-116916169D01*
X138904940Y-116911708D01*
X139000512Y-116630160D01*
X139001761Y-116625500D01*
X139059767Y-116333885D01*
X139060396Y-116329110D01*
X139079842Y-116032411D01*
X139079842Y-116027589D01*
X139060396Y-115730890D01*
X139059767Y-115726115D01*
X139001761Y-115434500D01*
X139000512Y-115429840D01*
X138904940Y-115148292D01*
X138903092Y-115143831D01*
X138801679Y-114938187D01*
X138796169Y-114887869D01*
X138824291Y-114845781D01*
X138872888Y-114831616D01*
X138898500Y-114838014D01*
X139136607Y-114945523D01*
X139138893Y-114946555D01*
X139141298Y-114947267D01*
X139141297Y-114947267D01*
X139421269Y-115030199D01*
X139421274Y-115030200D01*
X139423684Y-115030914D01*
X139426171Y-115031295D01*
X139426173Y-115031295D01*
X139714798Y-115075461D01*
X139714801Y-115075461D01*
X139717289Y-115075842D01*
X139719805Y-115075882D01*
X139719811Y-115075882D01*
X139875527Y-115078328D01*
X140014276Y-115080508D01*
X140181996Y-115060211D01*
X140306638Y-115045128D01*
X140306643Y-115045127D01*
X140309147Y-115044824D01*
X140472760Y-115001901D01*
X140594010Y-114970092D01*
X140594015Y-114970090D01*
X140596448Y-114969452D01*
X140793408Y-114887869D01*
X140868525Y-114856755D01*
X140868530Y-114856753D01*
X140870861Y-114855787D01*
X140894383Y-114842042D01*
X140944184Y-114832991D01*
X140988154Y-114858070D01*
X141005716Y-114905545D01*
X140998086Y-114938662D01*
X140896908Y-115143831D01*
X140895060Y-115148292D01*
X140799488Y-115429840D01*
X140798239Y-115434500D01*
X140740233Y-115726115D01*
X140739604Y-115730890D01*
X140720158Y-116027589D01*
X140720158Y-116032411D01*
X140739604Y-116329110D01*
X140740233Y-116333885D01*
X140798239Y-116625500D01*
X140799488Y-116630160D01*
X140895060Y-116911708D01*
X140896908Y-116916169D01*
X141028410Y-117182828D01*
X141030827Y-117187014D01*
X141196003Y-117434217D01*
X141198960Y-117438070D01*
X141255828Y-117502916D01*
X141265154Y-117508033D01*
X141270110Y-117507047D01*
X142746744Y-116030413D01*
X143317574Y-116030413D01*
X143319155Y-116036312D01*
X144786343Y-117503500D01*
X144795982Y-117507995D01*
X144800866Y-117506686D01*
X144861040Y-117438070D01*
X144863997Y-117434217D01*
X145029173Y-117187014D01*
X145031590Y-117182828D01*
X145163092Y-116916169D01*
X145164940Y-116911708D01*
X145260512Y-116630160D01*
X145261761Y-116625500D01*
X145319767Y-116333885D01*
X145320396Y-116329110D01*
X145339842Y-116032411D01*
X145339842Y-116027589D01*
X145320396Y-115730890D01*
X145319767Y-115726115D01*
X145261761Y-115434500D01*
X145260512Y-115429840D01*
X145164940Y-115148292D01*
X145163092Y-115143831D01*
X145061097Y-114937006D01*
X151995490Y-114937006D01*
X151995593Y-114939625D01*
X152006088Y-115206756D01*
X152006611Y-115220072D01*
X152057506Y-115498748D01*
X152058336Y-115501235D01*
X152058336Y-115501236D01*
X152118555Y-115681732D01*
X152147160Y-115767472D01*
X152273782Y-116020883D01*
X152275266Y-116023030D01*
X152275270Y-116023037D01*
X152297902Y-116055782D01*
X152434847Y-116253924D01*
X152627141Y-116461947D01*
X152846827Y-116640799D01*
X152849068Y-116642148D01*
X152849072Y-116642151D01*
X153009898Y-116738976D01*
X153089522Y-116786914D01*
X153091932Y-116787935D01*
X153091935Y-116787936D01*
X153347975Y-116896354D01*
X153350384Y-116897374D01*
X153352916Y-116898045D01*
X153352918Y-116898046D01*
X153532310Y-116945611D01*
X153624207Y-116969977D01*
X153905528Y-117003274D01*
X154034407Y-117000237D01*
X154186115Y-116996662D01*
X154186119Y-116996662D01*
X154188734Y-116996600D01*
X154191309Y-116996171D01*
X154191313Y-116996171D01*
X154465593Y-116950518D01*
X154465596Y-116950517D01*
X154468175Y-116950088D01*
X154589532Y-116911708D01*
X154735780Y-116865456D01*
X154735783Y-116865455D01*
X154738274Y-116864667D01*
X154740628Y-116863536D01*
X154740632Y-116863535D01*
X154991295Y-116743168D01*
X154993642Y-116742041D01*
X155012555Y-116729403D01*
X155227007Y-116586112D01*
X155227014Y-116586107D01*
X155229185Y-116584656D01*
X155440202Y-116395653D01*
X155622484Y-116178803D01*
X155721040Y-116020774D01*
X155771012Y-115940646D01*
X155771013Y-115940644D01*
X155772392Y-115938433D01*
X155886936Y-115679339D01*
X155963831Y-115406690D01*
X155988631Y-115222056D01*
X156001290Y-115127813D01*
X156001291Y-115127804D01*
X156001543Y-115125926D01*
X156005500Y-115000000D01*
X155995451Y-114858070D01*
X155985677Y-114720030D01*
X155985676Y-114720024D01*
X155985492Y-114717423D01*
X155975459Y-114670818D01*
X155950972Y-114557084D01*
X155925869Y-114440483D01*
X155827819Y-114174708D01*
X155750186Y-114030827D01*
X155694542Y-113927700D01*
X155694539Y-113927695D01*
X155693300Y-113925399D01*
X155691347Y-113922754D01*
X155562558Y-113748389D01*
X155524994Y-113697532D01*
X155523167Y-113695676D01*
X155523161Y-113695669D01*
X155328097Y-113497517D01*
X155328096Y-113497517D01*
X155326261Y-113495652D01*
X155238694Y-113428823D01*
X155103144Y-113325374D01*
X155103138Y-113325370D01*
X155101065Y-113323788D01*
X154853900Y-113185369D01*
X154589698Y-113083157D01*
X154587155Y-113082568D01*
X154587150Y-113082566D01*
X154316275Y-113019781D01*
X154316273Y-113019781D01*
X154313729Y-113019191D01*
X154311129Y-113018966D01*
X154311124Y-113018965D01*
X154034110Y-112994973D01*
X154031501Y-112994747D01*
X153748644Y-113010314D01*
X153470803Y-113065580D01*
X153305044Y-113123790D01*
X153205991Y-113158575D01*
X153205988Y-113158576D01*
X153203520Y-113159443D01*
X153201200Y-113160648D01*
X153201198Y-113160649D01*
X152954444Y-113288827D01*
X152954439Y-113288830D01*
X152952129Y-113290030D01*
X152950007Y-113291546D01*
X152950006Y-113291547D01*
X152723768Y-113453219D01*
X152723763Y-113453223D01*
X152721646Y-113454736D01*
X152719758Y-113456537D01*
X152680419Y-113494065D01*
X152516670Y-113650273D01*
X152341290Y-113872742D01*
X152339979Y-113874999D01*
X152220435Y-114080810D01*
X152199006Y-114117702D01*
X152198023Y-114120129D01*
X152198022Y-114120131D01*
X152093638Y-114377840D01*
X152093635Y-114377848D01*
X152092656Y-114380266D01*
X152024363Y-114655196D01*
X151995490Y-114937006D01*
X145061097Y-114937006D01*
X145031590Y-114877172D01*
X145029173Y-114872986D01*
X144863997Y-114625783D01*
X144861040Y-114621930D01*
X144804172Y-114557084D01*
X144794846Y-114551967D01*
X144789890Y-114552953D01*
X143322069Y-116020774D01*
X143317574Y-116030413D01*
X142746744Y-116030413D01*
X144503500Y-114273657D01*
X144507995Y-114264018D01*
X144506686Y-114259134D01*
X144438070Y-114198960D01*
X144434217Y-114196003D01*
X144187014Y-114030827D01*
X144182828Y-114028410D01*
X143916169Y-113896908D01*
X143911708Y-113895060D01*
X143630160Y-113799488D01*
X143625500Y-113798239D01*
X143333885Y-113740233D01*
X143329110Y-113739604D01*
X143032411Y-113720158D01*
X143027589Y-113720158D01*
X142730890Y-113739604D01*
X142726115Y-113740233D01*
X142434500Y-113798239D01*
X142429840Y-113799488D01*
X142148292Y-113895060D01*
X142143831Y-113896908D01*
X141934469Y-114000154D01*
X141884151Y-114005664D01*
X141842063Y-113977542D01*
X141827898Y-113928945D01*
X141836708Y-113898475D01*
X141838563Y-113895060D01*
X141885317Y-113808949D01*
X141990307Y-113531101D01*
X141998790Y-113494065D01*
X142056052Y-113244043D01*
X142056053Y-113244040D01*
X142056617Y-113241575D01*
X142056842Y-113239056D01*
X142082893Y-112947166D01*
X142082893Y-112947157D01*
X142083021Y-112945728D01*
X142083500Y-112900000D01*
X142066983Y-112657723D01*
X142063469Y-112606169D01*
X142063468Y-112606165D01*
X142063298Y-112603665D01*
X142053254Y-112555162D01*
X142041269Y-112497290D01*
X142003065Y-112312814D01*
X141922539Y-112085415D01*
X141904761Y-112035211D01*
X141904760Y-112035209D01*
X141903917Y-112032828D01*
X141835254Y-111899795D01*
X141828822Y-111849587D01*
X141856169Y-111806991D01*
X141904498Y-111791938D01*
X141933741Y-111799487D01*
X142143831Y-111903092D01*
X142148292Y-111904940D01*
X142429840Y-112000512D01*
X142434500Y-112001761D01*
X142726115Y-112059767D01*
X142730890Y-112060396D01*
X143027589Y-112079842D01*
X143032411Y-112079842D01*
X143329110Y-112060396D01*
X143333885Y-112059767D01*
X143625500Y-112001761D01*
X143630160Y-112000512D01*
X143911708Y-111904940D01*
X143916169Y-111903092D01*
X144182828Y-111771590D01*
X144187014Y-111769173D01*
X144434217Y-111603997D01*
X144438070Y-111601040D01*
X144502916Y-111544172D01*
X144508033Y-111534846D01*
X144507047Y-111529890D01*
X142747570Y-109770413D01*
X143317574Y-109770413D01*
X143319155Y-109776312D01*
X144786343Y-111243500D01*
X144795982Y-111247995D01*
X144800866Y-111246686D01*
X144861040Y-111178070D01*
X144863997Y-111174217D01*
X145029173Y-110927014D01*
X145031590Y-110922828D01*
X145163092Y-110656169D01*
X145164940Y-110651708D01*
X145260512Y-110370160D01*
X145261761Y-110365500D01*
X145319767Y-110073885D01*
X145320396Y-110069110D01*
X145339842Y-109772411D01*
X145339842Y-109767589D01*
X145320396Y-109470890D01*
X145319767Y-109466115D01*
X145261761Y-109174500D01*
X145260512Y-109169840D01*
X145164940Y-108888292D01*
X145163092Y-108883831D01*
X145031590Y-108617172D01*
X145029173Y-108612986D01*
X144863997Y-108365783D01*
X144861040Y-108361930D01*
X144804172Y-108297084D01*
X144794846Y-108291967D01*
X144789890Y-108292953D01*
X143322069Y-109760774D01*
X143317574Y-109770413D01*
X142747570Y-109770413D01*
X141273657Y-108296500D01*
X141264018Y-108292005D01*
X141259134Y-108293314D01*
X141198960Y-108361930D01*
X141196003Y-108365783D01*
X141030827Y-108612986D01*
X141028410Y-108617172D01*
X140896908Y-108883831D01*
X140895060Y-108888292D01*
X140799488Y-109169840D01*
X140798239Y-109174500D01*
X140740233Y-109466115D01*
X140739604Y-109470890D01*
X140720158Y-109767589D01*
X140720158Y-109772411D01*
X140739604Y-110069110D01*
X140740233Y-110073885D01*
X140798239Y-110365500D01*
X140799488Y-110370160D01*
X140895060Y-110651708D01*
X140896908Y-110656169D01*
X140997406Y-110859959D01*
X141002916Y-110910277D01*
X140974794Y-110952365D01*
X140926197Y-110966530D01*
X140901296Y-110960448D01*
X140639634Y-110845587D01*
X140353975Y-110764215D01*
X140059916Y-110722364D01*
X139927189Y-110721669D01*
X139765416Y-110720822D01*
X139765413Y-110720822D01*
X139762897Y-110720809D01*
X139468415Y-110759578D01*
X139465982Y-110760244D01*
X139465980Y-110760244D01*
X139424912Y-110771479D01*
X139181920Y-110837954D01*
X139179599Y-110838944D01*
X138911025Y-110953500D01*
X138911020Y-110953503D01*
X138908712Y-110954487D01*
X138906555Y-110955778D01*
X138904306Y-110956924D01*
X138903810Y-110955951D01*
X138857730Y-110964834D01*
X138813496Y-110940225D01*
X138795428Y-110892940D01*
X138803050Y-110859034D01*
X138903092Y-110656169D01*
X138904940Y-110651708D01*
X139000512Y-110370160D01*
X139001761Y-110365500D01*
X139059767Y-110073885D01*
X139060396Y-110069110D01*
X139079842Y-109772411D01*
X139079842Y-109767589D01*
X139060396Y-109470890D01*
X139059767Y-109466115D01*
X139001761Y-109174500D01*
X139000512Y-109169840D01*
X138904940Y-108888292D01*
X138903092Y-108883831D01*
X138771590Y-108617172D01*
X138769173Y-108612986D01*
X138603997Y-108365783D01*
X138601040Y-108361930D01*
X138544172Y-108297084D01*
X138534846Y-108291967D01*
X138529890Y-108292953D01*
X135296500Y-111526343D01*
X135292005Y-111535982D01*
X135293314Y-111540866D01*
X135361930Y-111601040D01*
X135365783Y-111603997D01*
X135612986Y-111769173D01*
X135617172Y-111771590D01*
X135883831Y-111903092D01*
X135888292Y-111904940D01*
X136169840Y-112000512D01*
X136174500Y-112001761D01*
X136466115Y-112059767D01*
X136470890Y-112060396D01*
X136767589Y-112079842D01*
X136772411Y-112079842D01*
X137069110Y-112060396D01*
X137073885Y-112059767D01*
X137365500Y-112001761D01*
X137370160Y-112000512D01*
X137651708Y-111904940D01*
X137656169Y-111903092D01*
X137866088Y-111799571D01*
X137916406Y-111794061D01*
X137958494Y-111822183D01*
X137972659Y-111870780D01*
X137964216Y-111900567D01*
X137905273Y-112011891D01*
X137904410Y-112014251D01*
X137904408Y-112014254D01*
X137880166Y-112080500D01*
X137803199Y-112290823D01*
X137802662Y-112293287D01*
X137802660Y-112293293D01*
X137753694Y-112517872D01*
X137739924Y-112581028D01*
X137716620Y-112877135D01*
X137716765Y-112879650D01*
X137716765Y-112879654D01*
X137724291Y-113010170D01*
X137733718Y-113173665D01*
X137734202Y-113176130D01*
X137734202Y-113176133D01*
X137759777Y-113306491D01*
X137790901Y-113465131D01*
X137791716Y-113467512D01*
X137791717Y-113467515D01*
X137885090Y-113740233D01*
X137887112Y-113746140D01*
X137964896Y-113900796D01*
X137970801Y-113951069D01*
X137943010Y-113993376D01*
X137894526Y-114007922D01*
X137866056Y-114000414D01*
X137656163Y-113896906D01*
X137651708Y-113895060D01*
X137370160Y-113799488D01*
X137365500Y-113798239D01*
X137073885Y-113740233D01*
X137069110Y-113739604D01*
X136772411Y-113720158D01*
X136767589Y-113720158D01*
X136470890Y-113739604D01*
X136466115Y-113740233D01*
X136174500Y-113798239D01*
X136169840Y-113799488D01*
X135888292Y-113895060D01*
X135883831Y-113896908D01*
X135617172Y-114028410D01*
X135612986Y-114030827D01*
X135365783Y-114196003D01*
X135361930Y-114198960D01*
X135297084Y-114255828D01*
X135291967Y-114265154D01*
X113152082Y-114265154D01*
X113315057Y-114102179D01*
X113360676Y-114080810D01*
X113445968Y-114073048D01*
X113616756Y-114017556D01*
X113620311Y-114015437D01*
X113767453Y-113927723D01*
X113767457Y-113927720D01*
X113771005Y-113925605D01*
X113901049Y-113801765D01*
X114000425Y-113652192D01*
X114045528Y-113533459D01*
X114062725Y-113488188D01*
X114062726Y-113488185D01*
X114064194Y-113484320D01*
X114068565Y-113453219D01*
X114088863Y-113308792D01*
X114088863Y-113308786D01*
X114089186Y-113306491D01*
X114089433Y-113288827D01*
X114089468Y-113286328D01*
X114089468Y-113286320D01*
X114089500Y-113284000D01*
X114069483Y-113105543D01*
X114064315Y-113090701D01*
X114036499Y-113010826D01*
X114010426Y-112935955D01*
X114004109Y-112925846D01*
X113917458Y-112787174D01*
X113917456Y-112787172D01*
X113915265Y-112783665D01*
X113788729Y-112656243D01*
X113758272Y-112636914D01*
X113709825Y-112606169D01*
X113637108Y-112560021D01*
X113518740Y-112517872D01*
X113471839Y-112501171D01*
X113471835Y-112501170D01*
X113467937Y-112499782D01*
X113289623Y-112478520D01*
X113285513Y-112478952D01*
X113285511Y-112478952D01*
X113115140Y-112496858D01*
X113115139Y-112496858D01*
X113111031Y-112497290D01*
X113026033Y-112526226D01*
X112944947Y-112553830D01*
X112944945Y-112553831D01*
X112941035Y-112555162D01*
X112788085Y-112649257D01*
X112785129Y-112652152D01*
X112702592Y-112732978D01*
X112659782Y-112774900D01*
X112562504Y-112925846D01*
X112555268Y-112945728D01*
X112502501Y-113090701D01*
X112502500Y-113090706D01*
X112501085Y-113094593D01*
X112500567Y-113098696D01*
X112500566Y-113098699D01*
X112486463Y-113210341D01*
X112465372Y-113253392D01*
X109500939Y-116217826D01*
X109455063Y-116239218D01*
X109448613Y-116239500D01*
X106480600Y-116239500D01*
X106433034Y-116222187D01*
X106428090Y-116217641D01*
X106425645Y-116215179D01*
X106425643Y-116215177D01*
X106422729Y-116212243D01*
X106408307Y-116203090D01*
X106308598Y-116139813D01*
X106271108Y-116116021D01*
X106241830Y-116105596D01*
X106105839Y-116057171D01*
X106105835Y-116057170D01*
X106101937Y-116055782D01*
X105923623Y-116034520D01*
X105919513Y-116034952D01*
X105919511Y-116034952D01*
X105749140Y-116052858D01*
X105749139Y-116052858D01*
X105745031Y-116053290D01*
X105733631Y-116057171D01*
X105578947Y-116109830D01*
X105578945Y-116109831D01*
X105575035Y-116111162D01*
X105422085Y-116205257D01*
X105419129Y-116208152D01*
X105305776Y-116319155D01*
X105293782Y-116330900D01*
X105196504Y-116481846D01*
X105195091Y-116485729D01*
X105136501Y-116646701D01*
X105136500Y-116646706D01*
X105135085Y-116650593D01*
X105134566Y-116654698D01*
X105134566Y-116654700D01*
X105114216Y-116815798D01*
X105112579Y-116828753D01*
X92813065Y-116828753D01*
X92991295Y-116743168D01*
X92993642Y-116742041D01*
X93012555Y-116729403D01*
X93227007Y-116586112D01*
X93227014Y-116586107D01*
X93229185Y-116584656D01*
X93440202Y-116395653D01*
X93622484Y-116178803D01*
X93721040Y-116020774D01*
X93771012Y-115940646D01*
X93771013Y-115940644D01*
X93772392Y-115938433D01*
X93886936Y-115679339D01*
X93963831Y-115406690D01*
X93988631Y-115222056D01*
X94001290Y-115127813D01*
X94001291Y-115127804D01*
X94001543Y-115125926D01*
X94005500Y-115000000D01*
X93995451Y-114858070D01*
X93985677Y-114720030D01*
X93985676Y-114720024D01*
X93985492Y-114717423D01*
X93975459Y-114670818D01*
X93950972Y-114557084D01*
X93925869Y-114440483D01*
X93827819Y-114174708D01*
X93750186Y-114030827D01*
X93694542Y-113927700D01*
X93694539Y-113927695D01*
X93693300Y-113925399D01*
X93691347Y-113922754D01*
X93562558Y-113748389D01*
X93524994Y-113697532D01*
X93523167Y-113695676D01*
X93523161Y-113695669D01*
X93328097Y-113497517D01*
X93328096Y-113497517D01*
X93326261Y-113495652D01*
X93238694Y-113428823D01*
X93103144Y-113325374D01*
X93103138Y-113325370D01*
X93101065Y-113323788D01*
X92853900Y-113185369D01*
X92589698Y-113083157D01*
X92587155Y-113082568D01*
X92587150Y-113082566D01*
X92316275Y-113019781D01*
X92316273Y-113019781D01*
X92313729Y-113019191D01*
X92311129Y-113018966D01*
X92311124Y-113018965D01*
X92034110Y-112994973D01*
X92031501Y-112994747D01*
X91748644Y-113010314D01*
X91470803Y-113065580D01*
X91305044Y-113123790D01*
X91205991Y-113158575D01*
X91205988Y-113158576D01*
X91203520Y-113159443D01*
X91201200Y-113160648D01*
X91201198Y-113160649D01*
X90954444Y-113288827D01*
X90954439Y-113288830D01*
X90952129Y-113290030D01*
X90950007Y-113291546D01*
X90950006Y-113291547D01*
X90723768Y-113453219D01*
X90723763Y-113453223D01*
X90721646Y-113454736D01*
X90719758Y-113456537D01*
X90680419Y-113494065D01*
X90516670Y-113650273D01*
X90341290Y-113872742D01*
X90339979Y-113874999D01*
X90220435Y-114080810D01*
X90199006Y-114117702D01*
X90198023Y-114120129D01*
X90198022Y-114120131D01*
X90093638Y-114377840D01*
X90093635Y-114377848D01*
X90092656Y-114380266D01*
X90024363Y-114655196D01*
X89995490Y-114937006D01*
X88900000Y-114937006D01*
X88900000Y-112080500D01*
X88917313Y-112032934D01*
X88961150Y-112007624D01*
X88974000Y-112006500D01*
X94631847Y-112006500D01*
X94679413Y-112023813D01*
X94704723Y-112067650D01*
X94705493Y-112073270D01*
X94716102Y-112181473D01*
X94717406Y-112185394D01*
X94717407Y-112185397D01*
X94767993Y-112337465D01*
X94772785Y-112351869D01*
X94865811Y-112505472D01*
X94868679Y-112508442D01*
X94868683Y-112508447D01*
X94960635Y-112603665D01*
X94990555Y-112634648D01*
X94994014Y-112636912D01*
X94994017Y-112636914D01*
X95063214Y-112682195D01*
X95140818Y-112732978D01*
X95144698Y-112734421D01*
X95305254Y-112794131D01*
X95305256Y-112794131D01*
X95309132Y-112795573D01*
X95355562Y-112801768D01*
X95483028Y-112818776D01*
X95483032Y-112818776D01*
X95487131Y-112819323D01*
X95491252Y-112818948D01*
X95491256Y-112818948D01*
X95567723Y-112811989D01*
X95665968Y-112803048D01*
X95836756Y-112747556D01*
X95840311Y-112745437D01*
X95987453Y-112657723D01*
X95987457Y-112657720D01*
X95991005Y-112655605D01*
X95993999Y-112652754D01*
X95994004Y-112652750D01*
X96117745Y-112534912D01*
X96168777Y-112514500D01*
X102552290Y-112514500D01*
X102568621Y-112516325D01*
X102570310Y-112516707D01*
X102575459Y-112517872D01*
X102627521Y-112514642D01*
X102632103Y-112514500D01*
X102650914Y-112514500D01*
X102653517Y-112514127D01*
X102653520Y-112514127D01*
X102664109Y-112512611D01*
X102670014Y-112512006D01*
X102686124Y-112511006D01*
X102718509Y-112508997D01*
X102730556Y-112504648D01*
X102745195Y-112500998D01*
X102752657Y-112499930D01*
X102752660Y-112499929D01*
X102757877Y-112499182D01*
X102762674Y-112497001D01*
X102762677Y-112497000D01*
X102802124Y-112479064D01*
X102807626Y-112476825D01*
X102848357Y-112462121D01*
X102853318Y-112460330D01*
X102863662Y-112452773D01*
X102876682Y-112445165D01*
X102888349Y-112439860D01*
X102925163Y-112408139D01*
X102929813Y-112404447D01*
X102940698Y-112396495D01*
X102940703Y-112396491D01*
X102943005Y-112394809D01*
X102955836Y-112381978D01*
X102959858Y-112378244D01*
X102992933Y-112349745D01*
X102992938Y-112349739D01*
X102996926Y-112346303D01*
X103002655Y-112337465D01*
X103012425Y-112325389D01*
X103264123Y-112073691D01*
X103309999Y-112052299D01*
X103326236Y-112052667D01*
X103357028Y-112056776D01*
X103357032Y-112056776D01*
X103361131Y-112057323D01*
X103365252Y-112056948D01*
X103365256Y-112056948D01*
X103441723Y-112049989D01*
X103539968Y-112041048D01*
X103710756Y-111985556D01*
X103714311Y-111983437D01*
X103861453Y-111895723D01*
X103861457Y-111895720D01*
X103865005Y-111893605D01*
X103867999Y-111890754D01*
X103868004Y-111890750D01*
X103991745Y-111772912D01*
X104042777Y-111752500D01*
X108076947Y-111752500D01*
X108093278Y-111754325D01*
X108094967Y-111754707D01*
X108100116Y-111755872D01*
X108152178Y-111752642D01*
X108156760Y-111752500D01*
X108175571Y-111752500D01*
X108178174Y-111752127D01*
X108178177Y-111752127D01*
X108188766Y-111750611D01*
X108194671Y-111750006D01*
X108210781Y-111749006D01*
X108243166Y-111746997D01*
X108255213Y-111742648D01*
X108269852Y-111738998D01*
X108277314Y-111737930D01*
X108277317Y-111737929D01*
X108282534Y-111737182D01*
X108287331Y-111735001D01*
X108287334Y-111735000D01*
X108326781Y-111717064D01*
X108332283Y-111714825D01*
X108373014Y-111700121D01*
X108377975Y-111698330D01*
X108388319Y-111690773D01*
X108401339Y-111683165D01*
X108413006Y-111677860D01*
X108449820Y-111646139D01*
X108454470Y-111642447D01*
X108465355Y-111634495D01*
X108465360Y-111634491D01*
X108467662Y-111632809D01*
X108480493Y-111619978D01*
X108484515Y-111616244D01*
X108517590Y-111587745D01*
X108517595Y-111587739D01*
X108521583Y-111584303D01*
X108527312Y-111575465D01*
X108537082Y-111563389D01*
X109347454Y-110753017D01*
X109393330Y-110731625D01*
X109409567Y-110731993D01*
X109440359Y-110736102D01*
X109440363Y-110736102D01*
X109444462Y-110736649D01*
X109448583Y-110736274D01*
X109448587Y-110736274D01*
X109525054Y-110729315D01*
X109623299Y-110720374D01*
X109794087Y-110664882D01*
X109806516Y-110657473D01*
X109944784Y-110575049D01*
X109944788Y-110575046D01*
X109948336Y-110572931D01*
X110078380Y-110449091D01*
X110177756Y-110299518D01*
X110217285Y-110195459D01*
X110240056Y-110135514D01*
X110240057Y-110135511D01*
X110241525Y-110131646D01*
X110246984Y-110092805D01*
X110266194Y-109956118D01*
X110266194Y-109956112D01*
X110266517Y-109953817D01*
X110266756Y-109936710D01*
X110266799Y-109933654D01*
X110266799Y-109933646D01*
X110266831Y-109931326D01*
X110265570Y-109920079D01*
X110253734Y-109814564D01*
X110265637Y-109765364D01*
X110306380Y-109735326D01*
X110327273Y-109732315D01*
X112478298Y-109732315D01*
X112525864Y-109749628D01*
X112551174Y-109793465D01*
X112542384Y-109843315D01*
X112530074Y-109859185D01*
X112507053Y-109881729D01*
X112431089Y-109956118D01*
X112405782Y-109980900D01*
X112308504Y-110131846D01*
X112307091Y-110135729D01*
X112248501Y-110296701D01*
X112248500Y-110296706D01*
X112247085Y-110300593D01*
X112246566Y-110304698D01*
X112246566Y-110304700D01*
X112225266Y-110473318D01*
X112224579Y-110478753D01*
X112230346Y-110537574D01*
X112241537Y-110651708D01*
X112242102Y-110657473D01*
X112243406Y-110661394D01*
X112243407Y-110661397D01*
X112296526Y-110821078D01*
X112298785Y-110827869D01*
X112391811Y-110981472D01*
X112394679Y-110984442D01*
X112394683Y-110984447D01*
X112513052Y-111107021D01*
X112516555Y-111110648D01*
X112520014Y-111112912D01*
X112520017Y-111112914D01*
X112548580Y-111131605D01*
X112666818Y-111208978D01*
X112670698Y-111210421D01*
X112831254Y-111270131D01*
X112831256Y-111270131D01*
X112835132Y-111271573D01*
X112881562Y-111277768D01*
X113009028Y-111294776D01*
X113009032Y-111294776D01*
X113013131Y-111295323D01*
X113017252Y-111294948D01*
X113017256Y-111294948D01*
X113093723Y-111287989D01*
X113191968Y-111279048D01*
X113362756Y-111223556D01*
X113366311Y-111221437D01*
X113513453Y-111133723D01*
X113513457Y-111133720D01*
X113517005Y-111131605D01*
X113647049Y-111007765D01*
X113746425Y-110858192D01*
X113785269Y-110755935D01*
X113808725Y-110694188D01*
X113808726Y-110694185D01*
X113810194Y-110690320D01*
X113819068Y-110627182D01*
X113823092Y-110598549D01*
X113828215Y-110562093D01*
X113849169Y-110520066D01*
X115414483Y-108954753D01*
X120860579Y-108954753D01*
X120878102Y-109133473D01*
X120879406Y-109137394D01*
X120879407Y-109137397D01*
X120933480Y-109299947D01*
X120934785Y-109303869D01*
X121027811Y-109457472D01*
X121030679Y-109460442D01*
X121030683Y-109460447D01*
X121137315Y-109570867D01*
X121152555Y-109586648D01*
X121156014Y-109588912D01*
X121156017Y-109588914D01*
X121181741Y-109605747D01*
X121302818Y-109684978D01*
X121306698Y-109686421D01*
X121467254Y-109746131D01*
X121467256Y-109746131D01*
X121471132Y-109747573D01*
X121510824Y-109752869D01*
X121645028Y-109770776D01*
X121645032Y-109770776D01*
X121649131Y-109771323D01*
X121653252Y-109770948D01*
X121653256Y-109770948D01*
X121690164Y-109767589D01*
X134460158Y-109767589D01*
X134460158Y-109772411D01*
X134479604Y-110069110D01*
X134480233Y-110073885D01*
X134538239Y-110365500D01*
X134539488Y-110370160D01*
X134635060Y-110651708D01*
X134636908Y-110656169D01*
X134768410Y-110922828D01*
X134770827Y-110927014D01*
X134936003Y-111174217D01*
X134938960Y-111178070D01*
X134995828Y-111242916D01*
X135005154Y-111248033D01*
X135010110Y-111247047D01*
X136477931Y-109779226D01*
X136482426Y-109769587D01*
X136480845Y-109763688D01*
X135013657Y-108296500D01*
X135004018Y-108292005D01*
X134999134Y-108293314D01*
X134938960Y-108361930D01*
X134936003Y-108365783D01*
X134770827Y-108612986D01*
X134768410Y-108617172D01*
X134636908Y-108883831D01*
X134635060Y-108888292D01*
X134539488Y-109169840D01*
X134538239Y-109174500D01*
X134480233Y-109466115D01*
X134479604Y-109470890D01*
X134460158Y-109767589D01*
X121690164Y-109767589D01*
X121733028Y-109763688D01*
X121827968Y-109755048D01*
X121998756Y-109699556D01*
X122013586Y-109690716D01*
X122149449Y-109609725D01*
X122149450Y-109609724D01*
X122153005Y-109607605D01*
X122174736Y-109586911D01*
X122225767Y-109566500D01*
X122385170Y-109566500D01*
X122394829Y-109567133D01*
X122428000Y-109571500D01*
X122432808Y-109570867D01*
X122579910Y-109551501D01*
X122579913Y-109551500D01*
X122584715Y-109550868D01*
X122730750Y-109490378D01*
X122734595Y-109487428D01*
X122734598Y-109487426D01*
X122825762Y-109417473D01*
X122825763Y-109417472D01*
X122852302Y-109397108D01*
X122856153Y-109394153D01*
X122876517Y-109367614D01*
X122882899Y-109360336D01*
X124237056Y-108006179D01*
X124239244Y-108005154D01*
X135291967Y-108005154D01*
X135292953Y-108010110D01*
X136760774Y-109477931D01*
X136770413Y-109482426D01*
X136776312Y-109480845D01*
X138243500Y-108013657D01*
X138247465Y-108005154D01*
X141551967Y-108005154D01*
X141552953Y-108010110D01*
X143020774Y-109477931D01*
X143030413Y-109482426D01*
X143036312Y-109480845D01*
X144503500Y-108013657D01*
X144507995Y-108004018D01*
X144506686Y-107999134D01*
X144438070Y-107938960D01*
X144434217Y-107936003D01*
X144187014Y-107770827D01*
X144182828Y-107768410D01*
X143916169Y-107636908D01*
X143911708Y-107635060D01*
X143630160Y-107539488D01*
X143625500Y-107538239D01*
X143333885Y-107480233D01*
X143329110Y-107479604D01*
X143032411Y-107460158D01*
X143027589Y-107460158D01*
X142730890Y-107479604D01*
X142726115Y-107480233D01*
X142434500Y-107538239D01*
X142429840Y-107539488D01*
X142148292Y-107635060D01*
X142143831Y-107636908D01*
X141877172Y-107768410D01*
X141872986Y-107770827D01*
X141625783Y-107936003D01*
X141621930Y-107938960D01*
X141557084Y-107995828D01*
X141551967Y-108005154D01*
X138247465Y-108005154D01*
X138247995Y-108004018D01*
X138246686Y-107999134D01*
X138178070Y-107938960D01*
X138174217Y-107936003D01*
X137927014Y-107770827D01*
X137922828Y-107768410D01*
X137656169Y-107636908D01*
X137651708Y-107635060D01*
X137370160Y-107539488D01*
X137365500Y-107538239D01*
X137073885Y-107480233D01*
X137069110Y-107479604D01*
X136772411Y-107460158D01*
X136767589Y-107460158D01*
X136470890Y-107479604D01*
X136466115Y-107480233D01*
X136174500Y-107538239D01*
X136169840Y-107539488D01*
X135888292Y-107635060D01*
X135883831Y-107636908D01*
X135617172Y-107768410D01*
X135612986Y-107770827D01*
X135365783Y-107936003D01*
X135361930Y-107938960D01*
X135297084Y-107995828D01*
X135291967Y-108005154D01*
X124239244Y-108005154D01*
X124282675Y-107984810D01*
X124367968Y-107977048D01*
X124538756Y-107921556D01*
X124542311Y-107919437D01*
X124689453Y-107831723D01*
X124689457Y-107831720D01*
X124693005Y-107829605D01*
X124823049Y-107705765D01*
X124922425Y-107556192D01*
X124986194Y-107388320D01*
X124992999Y-107339903D01*
X125010863Y-107212792D01*
X125010863Y-107212786D01*
X125011186Y-107210491D01*
X125011433Y-107192808D01*
X125011468Y-107190328D01*
X125011468Y-107190320D01*
X125011500Y-107188000D01*
X124991483Y-107009543D01*
X124986315Y-106994701D01*
X124961259Y-106922753D01*
X124932426Y-106839955D01*
X124926109Y-106829846D01*
X124839458Y-106691174D01*
X124839456Y-106691172D01*
X124837265Y-106687665D01*
X124831579Y-106681939D01*
X146674462Y-106681939D01*
X146681417Y-106740701D01*
X146706563Y-106953164D01*
X146706564Y-106953171D01*
X146706878Y-106955821D01*
X146707571Y-106958400D01*
X146707572Y-106958403D01*
X146777793Y-107219561D01*
X146777795Y-107219567D01*
X146778491Y-107222155D01*
X146779556Y-107224621D01*
X146779557Y-107224625D01*
X146819933Y-107318152D01*
X146887801Y-107475362D01*
X146947834Y-107572754D01*
X147004965Y-107665437D01*
X147032518Y-107710137D01*
X147209610Y-107921562D01*
X147211611Y-107923348D01*
X147211612Y-107923349D01*
X147260910Y-107967349D01*
X147415368Y-108105208D01*
X147492127Y-108155917D01*
X147641786Y-108254786D01*
X147645482Y-108257228D01*
X147895130Y-108374438D01*
X148159083Y-108454381D01*
X148281182Y-108472738D01*
X148429168Y-108494987D01*
X148429175Y-108494988D01*
X148431812Y-108495384D01*
X148434486Y-108495396D01*
X148434490Y-108495396D01*
X148577538Y-108496020D01*
X148707603Y-108496587D01*
X148935745Y-108464321D01*
X148978021Y-108458342D01*
X148978022Y-108458342D01*
X148980679Y-108457966D01*
X148983258Y-108457210D01*
X148983260Y-108457209D01*
X149242750Y-108381083D01*
X149242751Y-108381083D01*
X149245320Y-108380329D01*
X149375976Y-108320372D01*
X149493551Y-108266418D01*
X149493556Y-108266415D01*
X149495982Y-108265302D01*
X149500425Y-108262422D01*
X149725158Y-108116758D01*
X149725162Y-108116755D01*
X149727413Y-108115296D01*
X149934766Y-107933453D01*
X149936500Y-107931419D01*
X149936505Y-107931414D01*
X150072805Y-107771543D01*
X150113696Y-107723581D01*
X150260457Y-107490078D01*
X150264810Y-107480233D01*
X150370888Y-107240287D01*
X150371972Y-107237835D01*
X150445907Y-106972136D01*
X150463169Y-106836450D01*
X150479583Y-106707423D01*
X150480712Y-106698547D01*
X150483500Y-106595500D01*
X150482808Y-106585955D01*
X150463735Y-106323103D01*
X150463541Y-106320429D01*
X150404084Y-106051121D01*
X150306372Y-105793216D01*
X150202722Y-105606611D01*
X150173755Y-105554460D01*
X150173754Y-105554459D01*
X150172454Y-105552118D01*
X150152370Y-105525801D01*
X150006766Y-105335014D01*
X150006765Y-105335013D01*
X150005135Y-105332877D01*
X149807920Y-105140087D01*
X149801458Y-105135383D01*
X149641637Y-105019053D01*
X149584939Y-104977784D01*
X149340865Y-104849371D01*
X149080810Y-104757536D01*
X149078180Y-104757018D01*
X149078174Y-104757016D01*
X148812860Y-104704723D01*
X148812861Y-104704723D01*
X148810222Y-104704203D01*
X148807536Y-104704069D01*
X148807534Y-104704069D01*
X148711767Y-104699302D01*
X148534769Y-104690490D01*
X148532097Y-104690745D01*
X148532093Y-104690745D01*
X148397496Y-104703587D01*
X148260222Y-104716685D01*
X148168983Y-104739011D01*
X147994942Y-104781598D01*
X147994938Y-104781599D01*
X147992332Y-104782237D01*
X147989840Y-104783246D01*
X147989841Y-104783246D01*
X147739199Y-104884766D01*
X147739196Y-104884767D01*
X147736711Y-104885774D01*
X147734401Y-104887126D01*
X147734398Y-104887128D01*
X147711267Y-104900672D01*
X147498713Y-105025128D01*
X147283325Y-105197378D01*
X147281493Y-105199339D01*
X147281492Y-105199340D01*
X147097945Y-105395826D01*
X147095058Y-105398916D01*
X146937856Y-105625522D01*
X146815013Y-105872446D01*
X146729101Y-106134518D01*
X146728643Y-106137153D01*
X146728643Y-106137155D01*
X146689200Y-106364330D01*
X146681922Y-106406246D01*
X146681850Y-106408921D01*
X146681849Y-106408927D01*
X146680128Y-106472535D01*
X146674462Y-106681939D01*
X124831579Y-106681939D01*
X124710729Y-106560243D01*
X124559108Y-106464021D01*
X124524083Y-106451549D01*
X124393839Y-106405171D01*
X124393835Y-106405170D01*
X124389937Y-106403782D01*
X124211623Y-106382520D01*
X124207513Y-106382952D01*
X124207511Y-106382952D01*
X124037140Y-106400858D01*
X124037139Y-106400858D01*
X124033031Y-106401290D01*
X123948033Y-106430226D01*
X123866947Y-106457830D01*
X123866945Y-106457831D01*
X123863035Y-106459162D01*
X123710085Y-106553257D01*
X123687018Y-106575846D01*
X123587314Y-106673483D01*
X123581782Y-106678900D01*
X123484504Y-106829846D01*
X123480825Y-106839955D01*
X123424501Y-106994701D01*
X123424500Y-106994706D01*
X123423085Y-106998593D01*
X123422566Y-107002698D01*
X123422566Y-107002700D01*
X123408463Y-107114341D01*
X123387372Y-107157393D01*
X122234547Y-108310218D01*
X122188671Y-108331610D01*
X122142570Y-108320372D01*
X122043070Y-108257228D01*
X122019108Y-108242021D01*
X121989830Y-108231596D01*
X121853839Y-108183171D01*
X121853835Y-108183170D01*
X121849937Y-108181782D01*
X121671623Y-108160520D01*
X121667513Y-108160952D01*
X121667511Y-108160952D01*
X121497140Y-108178858D01*
X121497139Y-108178858D01*
X121493031Y-108179290D01*
X121481631Y-108183171D01*
X121326947Y-108235830D01*
X121326945Y-108235831D01*
X121323035Y-108237162D01*
X121170085Y-108331257D01*
X121167129Y-108334152D01*
X121061929Y-108437171D01*
X121041782Y-108456900D01*
X120944504Y-108607846D01*
X120923040Y-108666819D01*
X120884501Y-108772701D01*
X120884500Y-108772706D01*
X120883085Y-108776593D01*
X120882566Y-108780698D01*
X120882566Y-108780700D01*
X120868975Y-108888292D01*
X120860579Y-108954753D01*
X115414483Y-108954753D01*
X116726340Y-107642896D01*
X116733618Y-107636514D01*
X116756302Y-107619108D01*
X116760153Y-107616153D01*
X116783469Y-107585767D01*
X116783473Y-107585763D01*
X116819939Y-107538239D01*
X116853426Y-107494598D01*
X116853428Y-107494595D01*
X116856378Y-107490750D01*
X116916868Y-107344715D01*
X116922466Y-107302192D01*
X116932500Y-107225979D01*
X116937500Y-107188000D01*
X116933133Y-107154829D01*
X116932500Y-107145170D01*
X116932500Y-106681939D01*
X117718462Y-106681939D01*
X117725417Y-106740701D01*
X117750563Y-106953164D01*
X117750564Y-106953171D01*
X117750878Y-106955821D01*
X117751571Y-106958400D01*
X117751572Y-106958403D01*
X117821793Y-107219561D01*
X117821795Y-107219567D01*
X117822491Y-107222155D01*
X117823556Y-107224621D01*
X117823557Y-107224625D01*
X117863933Y-107318152D01*
X117931801Y-107475362D01*
X117991834Y-107572754D01*
X118048965Y-107665437D01*
X118076518Y-107710137D01*
X118253610Y-107921562D01*
X118255611Y-107923348D01*
X118255612Y-107923349D01*
X118304910Y-107967349D01*
X118459368Y-108105208D01*
X118536127Y-108155917D01*
X118685786Y-108254786D01*
X118689482Y-108257228D01*
X118939130Y-108374438D01*
X119203083Y-108454381D01*
X119325182Y-108472738D01*
X119473168Y-108494987D01*
X119473175Y-108494988D01*
X119475812Y-108495384D01*
X119478486Y-108495396D01*
X119478490Y-108495396D01*
X119621538Y-108496020D01*
X119751603Y-108496587D01*
X119979745Y-108464321D01*
X120022021Y-108458342D01*
X120022022Y-108458342D01*
X120024679Y-108457966D01*
X120027258Y-108457210D01*
X120027260Y-108457209D01*
X120286750Y-108381083D01*
X120286751Y-108381083D01*
X120289320Y-108380329D01*
X120419976Y-108320372D01*
X120537551Y-108266418D01*
X120537556Y-108266415D01*
X120539982Y-108265302D01*
X120544425Y-108262422D01*
X120769158Y-108116758D01*
X120769162Y-108116755D01*
X120771413Y-108115296D01*
X120978766Y-107933453D01*
X120980500Y-107931419D01*
X120980505Y-107931414D01*
X121116805Y-107771543D01*
X121157696Y-107723581D01*
X121304457Y-107490078D01*
X121308810Y-107480233D01*
X121414888Y-107240287D01*
X121415972Y-107237835D01*
X121489907Y-106972136D01*
X121507169Y-106836450D01*
X121523583Y-106707423D01*
X121524712Y-106698547D01*
X121527500Y-106595500D01*
X121526808Y-106585955D01*
X121507735Y-106323103D01*
X121507541Y-106320429D01*
X121448084Y-106051121D01*
X121350372Y-105793216D01*
X121246722Y-105606611D01*
X121217755Y-105554460D01*
X121217754Y-105554459D01*
X121216454Y-105552118D01*
X121196370Y-105525801D01*
X121050766Y-105335014D01*
X121050765Y-105335013D01*
X121049135Y-105332877D01*
X120851920Y-105140087D01*
X120845458Y-105135383D01*
X120685637Y-105019053D01*
X120628939Y-104977784D01*
X120384865Y-104849371D01*
X120124810Y-104757536D01*
X120122180Y-104757018D01*
X120122174Y-104757016D01*
X119856860Y-104704723D01*
X119856861Y-104704723D01*
X119854222Y-104704203D01*
X119851536Y-104704069D01*
X119851534Y-104704069D01*
X119755767Y-104699302D01*
X119578769Y-104690490D01*
X119576097Y-104690745D01*
X119576093Y-104690745D01*
X119441496Y-104703587D01*
X119304222Y-104716685D01*
X119212983Y-104739011D01*
X119038942Y-104781598D01*
X119038938Y-104781599D01*
X119036332Y-104782237D01*
X119033840Y-104783246D01*
X119033841Y-104783246D01*
X118783199Y-104884766D01*
X118783196Y-104884767D01*
X118780711Y-104885774D01*
X118778401Y-104887126D01*
X118778398Y-104887128D01*
X118755267Y-104900672D01*
X118542713Y-105025128D01*
X118327325Y-105197378D01*
X118325493Y-105199339D01*
X118325492Y-105199340D01*
X118141945Y-105395826D01*
X118139058Y-105398916D01*
X117981856Y-105625522D01*
X117859013Y-105872446D01*
X117773101Y-106134518D01*
X117772643Y-106137153D01*
X117772643Y-106137155D01*
X117733200Y-106364330D01*
X117725922Y-106406246D01*
X117725850Y-106408921D01*
X117725849Y-106408927D01*
X117724128Y-106472535D01*
X117718462Y-106681939D01*
X116932500Y-106681939D01*
X116932500Y-102858753D01*
X120352579Y-102858753D01*
X120357966Y-102913694D01*
X120369661Y-103032972D01*
X120370102Y-103037473D01*
X120371406Y-103041394D01*
X120371407Y-103041397D01*
X120421739Y-103192700D01*
X120426785Y-103207869D01*
X120519811Y-103361472D01*
X120522679Y-103364442D01*
X120522683Y-103364447D01*
X120596540Y-103440927D01*
X120644555Y-103490648D01*
X120648014Y-103492912D01*
X120648017Y-103492914D01*
X120708178Y-103532282D01*
X120794818Y-103588978D01*
X120798698Y-103590421D01*
X120959254Y-103650131D01*
X120959256Y-103650131D01*
X120963132Y-103651573D01*
X121009562Y-103657768D01*
X121137028Y-103674776D01*
X121137032Y-103674776D01*
X121141131Y-103675323D01*
X121145252Y-103674948D01*
X121145256Y-103674948D01*
X121221723Y-103667989D01*
X121319968Y-103659048D01*
X121490756Y-103603556D01*
X121519016Y-103586710D01*
X121641449Y-103513725D01*
X121641452Y-103513723D01*
X121645005Y-103511605D01*
X121666736Y-103490911D01*
X121717767Y-103470500D01*
X124404282Y-103470500D01*
X124451450Y-103487481D01*
X124451682Y-103487673D01*
X124454555Y-103490648D01*
X124458014Y-103492912D01*
X124458017Y-103492914D01*
X124518178Y-103532282D01*
X124604818Y-103588978D01*
X124608698Y-103590421D01*
X124769254Y-103650131D01*
X124769256Y-103650131D01*
X124773132Y-103651573D01*
X124819562Y-103657768D01*
X124947028Y-103674776D01*
X124947032Y-103674776D01*
X124951131Y-103675323D01*
X124955252Y-103674948D01*
X124955256Y-103674948D01*
X125031723Y-103667989D01*
X125129968Y-103659048D01*
X125300756Y-103603556D01*
X125317513Y-103593567D01*
X125451453Y-103513723D01*
X125451457Y-103513720D01*
X125455005Y-103511605D01*
X125585049Y-103387765D01*
X125684425Y-103238192D01*
X125737792Y-103097704D01*
X125746725Y-103074188D01*
X125746726Y-103074185D01*
X125748194Y-103070320D01*
X125752295Y-103041141D01*
X125772863Y-102894792D01*
X125772863Y-102894786D01*
X125773186Y-102892491D01*
X125773334Y-102881915D01*
X125773468Y-102872328D01*
X125773468Y-102872320D01*
X125773500Y-102870000D01*
X125753483Y-102691543D01*
X125748315Y-102676701D01*
X125729845Y-102623665D01*
X125694426Y-102521955D01*
X125686390Y-102509095D01*
X125601458Y-102373174D01*
X125601456Y-102373172D01*
X125599265Y-102369665D01*
X125472729Y-102242243D01*
X125321108Y-102146021D01*
X125254826Y-102122419D01*
X125155839Y-102087171D01*
X125155835Y-102087170D01*
X125151937Y-102085782D01*
X124973623Y-102064520D01*
X124969513Y-102064952D01*
X124969511Y-102064952D01*
X124799140Y-102082858D01*
X124799139Y-102082858D01*
X124795031Y-102083290D01*
X124710033Y-102112226D01*
X124628947Y-102139830D01*
X124628945Y-102139831D01*
X124625035Y-102141162D01*
X124472085Y-102235257D01*
X124469129Y-102238152D01*
X124458692Y-102248372D01*
X124412594Y-102269282D01*
X124406918Y-102269500D01*
X121720600Y-102269500D01*
X121673034Y-102252187D01*
X121668090Y-102247641D01*
X121665645Y-102245179D01*
X121665643Y-102245177D01*
X121662729Y-102242243D01*
X121648307Y-102233090D01*
X121586975Y-102194168D01*
X121511108Y-102146021D01*
X121444826Y-102122419D01*
X121345839Y-102087171D01*
X121345835Y-102087170D01*
X121341937Y-102085782D01*
X121163623Y-102064520D01*
X121159513Y-102064952D01*
X121159511Y-102064952D01*
X120989140Y-102082858D01*
X120989139Y-102082858D01*
X120985031Y-102083290D01*
X120900033Y-102112226D01*
X120818947Y-102139830D01*
X120818945Y-102139831D01*
X120815035Y-102141162D01*
X120662085Y-102235257D01*
X120620052Y-102276419D01*
X120539840Y-102354968D01*
X120533782Y-102360900D01*
X120436504Y-102511846D01*
X120432825Y-102521955D01*
X120376501Y-102676701D01*
X120376500Y-102676706D01*
X120375085Y-102680593D01*
X120374566Y-102684698D01*
X120374566Y-102684700D01*
X120354845Y-102840818D01*
X120352579Y-102858753D01*
X116932500Y-102858753D01*
X116932500Y-85894823D01*
X116933133Y-85885165D01*
X116936866Y-85856808D01*
X116937499Y-85852000D01*
X116932500Y-85814027D01*
X116932500Y-85814021D01*
X116925533Y-85761102D01*
X116917501Y-85700090D01*
X116917500Y-85700087D01*
X116916868Y-85695285D01*
X116856378Y-85549250D01*
X116853428Y-85545405D01*
X116853426Y-85545402D01*
X116783473Y-85454237D01*
X116783466Y-85454229D01*
X116763108Y-85427698D01*
X116760153Y-85423847D01*
X116733618Y-85403486D01*
X116726340Y-85397104D01*
X113230899Y-81901664D01*
X113224517Y-81894386D01*
X113207108Y-81871698D01*
X113207107Y-81871697D01*
X113204153Y-81867847D01*
X113110084Y-81795665D01*
X113098453Y-81786740D01*
X113082598Y-81774574D01*
X113082595Y-81774572D01*
X113078750Y-81771622D01*
X112932715Y-81711132D01*
X112927913Y-81710500D01*
X112927910Y-81710499D01*
X112780808Y-81691133D01*
X112776000Y-81690500D01*
X112771192Y-81691133D01*
X112742829Y-81694867D01*
X112733170Y-81695500D01*
X108246830Y-81695500D01*
X108237171Y-81694867D01*
X108208808Y-81691133D01*
X108204000Y-81690500D01*
X108166022Y-81695500D01*
X108166019Y-81695500D01*
X108052090Y-81710499D01*
X108052087Y-81710500D01*
X108047285Y-81711132D01*
X108042806Y-81712987D01*
X108042807Y-81712987D01*
X108004513Y-81728849D01*
X107905730Y-81769765D01*
X107905728Y-81769766D01*
X107901250Y-81771621D01*
X107806238Y-81844527D01*
X107775847Y-81867847D01*
X107772893Y-81871697D01*
X107755483Y-81894386D01*
X107749101Y-81901664D01*
X107214939Y-82435826D01*
X107169063Y-82457218D01*
X107162613Y-82457500D01*
X104927388Y-82457500D01*
X104879822Y-82440187D01*
X104875062Y-82435826D01*
X100952174Y-78512939D01*
X100930782Y-78467063D01*
X100930500Y-78460613D01*
X100930500Y-77217939D01*
X117718462Y-77217939D01*
X117729439Y-77310682D01*
X117750563Y-77489164D01*
X117750564Y-77489171D01*
X117750878Y-77491821D01*
X117751571Y-77494400D01*
X117751572Y-77494403D01*
X117821793Y-77755561D01*
X117821795Y-77755567D01*
X117822491Y-77758155D01*
X117823556Y-77760621D01*
X117823557Y-77760625D01*
X117839496Y-77797546D01*
X117931801Y-78011362D01*
X117983557Y-78095326D01*
X118074049Y-78242131D01*
X118076518Y-78246137D01*
X118253610Y-78457562D01*
X118459368Y-78641208D01*
X118689482Y-78793228D01*
X118939130Y-78910438D01*
X119203083Y-78990381D01*
X119325182Y-79008738D01*
X119473168Y-79030987D01*
X119473175Y-79030988D01*
X119475812Y-79031384D01*
X119478486Y-79031396D01*
X119478490Y-79031396D01*
X119621538Y-79032020D01*
X119751603Y-79032587D01*
X119973493Y-79001205D01*
X120022021Y-78994342D01*
X120022022Y-78994342D01*
X120024679Y-78993966D01*
X120027258Y-78993210D01*
X120027260Y-78993209D01*
X120286750Y-78917083D01*
X120286751Y-78917083D01*
X120289320Y-78916329D01*
X120385719Y-78872092D01*
X120537551Y-78802418D01*
X120537556Y-78802415D01*
X120539982Y-78801302D01*
X120542230Y-78799845D01*
X120769158Y-78652758D01*
X120769162Y-78652755D01*
X120771413Y-78651296D01*
X120978766Y-78469453D01*
X120980500Y-78467419D01*
X120980505Y-78467414D01*
X121058845Y-78375526D01*
X121157696Y-78259581D01*
X121304457Y-78026078D01*
X121415972Y-77773835D01*
X121489907Y-77508136D01*
X121502741Y-77407257D01*
X121524478Y-77236386D01*
X121524712Y-77234547D01*
X121527500Y-77131500D01*
X121527344Y-77129343D01*
X121525283Y-77100938D01*
X124042900Y-77100938D01*
X124056874Y-77314137D01*
X124057708Y-77317420D01*
X124105467Y-77505472D01*
X124109466Y-77521220D01*
X124110886Y-77524300D01*
X124197384Y-77711928D01*
X124198915Y-77715250D01*
X124200873Y-77718020D01*
X124320267Y-77886960D01*
X124320271Y-77886964D01*
X124322226Y-77889731D01*
X124324651Y-77892093D01*
X124324655Y-77892098D01*
X124388644Y-77954433D01*
X124475268Y-78038818D01*
X124478086Y-78040701D01*
X124478091Y-78040705D01*
X124559220Y-78094913D01*
X124652917Y-78157519D01*
X124656031Y-78158857D01*
X124656033Y-78158858D01*
X124845005Y-78240046D01*
X124849223Y-78241858D01*
X124998457Y-78275627D01*
X125054296Y-78288262D01*
X125054297Y-78288262D01*
X125057611Y-78289012D01*
X125158853Y-78292990D01*
X125267707Y-78297267D01*
X125267711Y-78297267D01*
X125271102Y-78297400D01*
X125413960Y-78276687D01*
X125479189Y-78267229D01*
X125479190Y-78267229D01*
X125482547Y-78266742D01*
X125684865Y-78198064D01*
X125687817Y-78196411D01*
X125687821Y-78196409D01*
X125868317Y-78095326D01*
X125868319Y-78095325D01*
X125871279Y-78093667D01*
X125882571Y-78084276D01*
X126032933Y-77959221D01*
X126035547Y-77957047D01*
X126172167Y-77792779D01*
X126190174Y-77760625D01*
X126274909Y-77609321D01*
X126274911Y-77609317D01*
X126276564Y-77606365D01*
X126345242Y-77404047D01*
X126345746Y-77400569D01*
X126375587Y-77194764D01*
X126375588Y-77194756D01*
X126375900Y-77192602D01*
X126377500Y-77131500D01*
X126374692Y-77100938D01*
X126582900Y-77100938D01*
X126596874Y-77314137D01*
X126597708Y-77317420D01*
X126645467Y-77505472D01*
X126649466Y-77521220D01*
X126650886Y-77524300D01*
X126737384Y-77711928D01*
X126738915Y-77715250D01*
X126740873Y-77718020D01*
X126860267Y-77886960D01*
X126860271Y-77886964D01*
X126862226Y-77889731D01*
X126864651Y-77892093D01*
X126864655Y-77892098D01*
X126928644Y-77954433D01*
X127015268Y-78038818D01*
X127018086Y-78040701D01*
X127018091Y-78040705D01*
X127099220Y-78094913D01*
X127192917Y-78157519D01*
X127196031Y-78158857D01*
X127196033Y-78158858D01*
X127385005Y-78240046D01*
X127389223Y-78241858D01*
X127538457Y-78275627D01*
X127594296Y-78288262D01*
X127594297Y-78288262D01*
X127597611Y-78289012D01*
X127698853Y-78292990D01*
X127807707Y-78297267D01*
X127807711Y-78297267D01*
X127811102Y-78297400D01*
X127953960Y-78276687D01*
X128019189Y-78267229D01*
X128019190Y-78267229D01*
X128022547Y-78266742D01*
X128224865Y-78198064D01*
X128227817Y-78196411D01*
X128227821Y-78196409D01*
X128408317Y-78095326D01*
X128408319Y-78095325D01*
X128411279Y-78093667D01*
X128422571Y-78084276D01*
X128572933Y-77959221D01*
X128575547Y-77957047D01*
X128712167Y-77792779D01*
X128730174Y-77760625D01*
X128814909Y-77609321D01*
X128814911Y-77609317D01*
X128816564Y-77606365D01*
X128885242Y-77404047D01*
X128885746Y-77400569D01*
X128915587Y-77194764D01*
X128915588Y-77194756D01*
X128915900Y-77192602D01*
X128917500Y-77131500D01*
X128914692Y-77100938D01*
X129122900Y-77100938D01*
X129136874Y-77314137D01*
X129137708Y-77317420D01*
X129185467Y-77505472D01*
X129189466Y-77521220D01*
X129190886Y-77524300D01*
X129277384Y-77711928D01*
X129278915Y-77715250D01*
X129280873Y-77718020D01*
X129400267Y-77886960D01*
X129400271Y-77886964D01*
X129402226Y-77889731D01*
X129404651Y-77892093D01*
X129404655Y-77892098D01*
X129468644Y-77954433D01*
X129555268Y-78038818D01*
X129558086Y-78040701D01*
X129558091Y-78040705D01*
X129639220Y-78094913D01*
X129732917Y-78157519D01*
X129736031Y-78158857D01*
X129736033Y-78158858D01*
X129925005Y-78240046D01*
X129929223Y-78241858D01*
X130078457Y-78275627D01*
X130134296Y-78288262D01*
X130134297Y-78288262D01*
X130137611Y-78289012D01*
X130238853Y-78292990D01*
X130347707Y-78297267D01*
X130347711Y-78297267D01*
X130351102Y-78297400D01*
X130493960Y-78276687D01*
X130559189Y-78267229D01*
X130559190Y-78267229D01*
X130562547Y-78266742D01*
X130764865Y-78198064D01*
X130767817Y-78196411D01*
X130767821Y-78196409D01*
X130948317Y-78095326D01*
X130948319Y-78095325D01*
X130951279Y-78093667D01*
X130962571Y-78084276D01*
X131112933Y-77959221D01*
X131115547Y-77957047D01*
X131252167Y-77792779D01*
X131270174Y-77760625D01*
X131354909Y-77609321D01*
X131354911Y-77609317D01*
X131356564Y-77606365D01*
X131425242Y-77404047D01*
X131425746Y-77400569D01*
X131455587Y-77194764D01*
X131455588Y-77194756D01*
X131455900Y-77192602D01*
X131457500Y-77131500D01*
X131454692Y-77100938D01*
X131662900Y-77100938D01*
X131676874Y-77314137D01*
X131677708Y-77317420D01*
X131725467Y-77505472D01*
X131729466Y-77521220D01*
X131730886Y-77524300D01*
X131817384Y-77711928D01*
X131818915Y-77715250D01*
X131820873Y-77718020D01*
X131940267Y-77886960D01*
X131940271Y-77886964D01*
X131942226Y-77889731D01*
X131944651Y-77892093D01*
X131944655Y-77892098D01*
X132008644Y-77954433D01*
X132095268Y-78038818D01*
X132098086Y-78040701D01*
X132098091Y-78040705D01*
X132179220Y-78094913D01*
X132272917Y-78157519D01*
X132276031Y-78158857D01*
X132276033Y-78158858D01*
X132465005Y-78240046D01*
X132469223Y-78241858D01*
X132618457Y-78275627D01*
X132674296Y-78288262D01*
X132674297Y-78288262D01*
X132677611Y-78289012D01*
X132778853Y-78292990D01*
X132887707Y-78297267D01*
X132887711Y-78297267D01*
X132891102Y-78297400D01*
X133033960Y-78276687D01*
X133099189Y-78267229D01*
X133099190Y-78267229D01*
X133102547Y-78266742D01*
X133304865Y-78198064D01*
X133307817Y-78196411D01*
X133307821Y-78196409D01*
X133488317Y-78095326D01*
X133488319Y-78095325D01*
X133491279Y-78093667D01*
X133502571Y-78084276D01*
X133652933Y-77959221D01*
X133655547Y-77957047D01*
X133792167Y-77792779D01*
X133810174Y-77760625D01*
X133894909Y-77609321D01*
X133894911Y-77609317D01*
X133896564Y-77606365D01*
X133965242Y-77404047D01*
X133965746Y-77400569D01*
X133995587Y-77194764D01*
X133995588Y-77194756D01*
X133995900Y-77192602D01*
X133997500Y-77131500D01*
X133994692Y-77100938D01*
X134202900Y-77100938D01*
X134216874Y-77314137D01*
X134217708Y-77317420D01*
X134265467Y-77505472D01*
X134269466Y-77521220D01*
X134270886Y-77524300D01*
X134357384Y-77711928D01*
X134358915Y-77715250D01*
X134360873Y-77718020D01*
X134480267Y-77886960D01*
X134480271Y-77886964D01*
X134482226Y-77889731D01*
X134484651Y-77892093D01*
X134484655Y-77892098D01*
X134548644Y-77954433D01*
X134635268Y-78038818D01*
X134638086Y-78040701D01*
X134638091Y-78040705D01*
X134719220Y-78094913D01*
X134812917Y-78157519D01*
X134816031Y-78158857D01*
X134816033Y-78158858D01*
X135005005Y-78240046D01*
X135009223Y-78241858D01*
X135158457Y-78275627D01*
X135214296Y-78288262D01*
X135214297Y-78288262D01*
X135217611Y-78289012D01*
X135318853Y-78292990D01*
X135427707Y-78297267D01*
X135427711Y-78297267D01*
X135431102Y-78297400D01*
X135573960Y-78276687D01*
X135639189Y-78267229D01*
X135639190Y-78267229D01*
X135642547Y-78266742D01*
X135844865Y-78198064D01*
X135847817Y-78196411D01*
X135847821Y-78196409D01*
X136028317Y-78095326D01*
X136028319Y-78095325D01*
X136031279Y-78093667D01*
X136042571Y-78084276D01*
X136192933Y-77959221D01*
X136195547Y-77957047D01*
X136332167Y-77792779D01*
X136350174Y-77760625D01*
X136434909Y-77609321D01*
X136434911Y-77609317D01*
X136436564Y-77606365D01*
X136505242Y-77404047D01*
X136505746Y-77400569D01*
X136535587Y-77194764D01*
X136535588Y-77194756D01*
X136535900Y-77192602D01*
X136537500Y-77131500D01*
X136534692Y-77100938D01*
X136742900Y-77100938D01*
X136756874Y-77314137D01*
X136757708Y-77317420D01*
X136805467Y-77505472D01*
X136809466Y-77521220D01*
X136810886Y-77524300D01*
X136897384Y-77711928D01*
X136898915Y-77715250D01*
X136900873Y-77718020D01*
X137020267Y-77886960D01*
X137020271Y-77886964D01*
X137022226Y-77889731D01*
X137024651Y-77892093D01*
X137024655Y-77892098D01*
X137088644Y-77954433D01*
X137175268Y-78038818D01*
X137178086Y-78040701D01*
X137178091Y-78040705D01*
X137259220Y-78094913D01*
X137352917Y-78157519D01*
X137356031Y-78158857D01*
X137356033Y-78158858D01*
X137545005Y-78240046D01*
X137549223Y-78241858D01*
X137698457Y-78275627D01*
X137754296Y-78288262D01*
X137754297Y-78288262D01*
X137757611Y-78289012D01*
X137858853Y-78292990D01*
X137967707Y-78297267D01*
X137967711Y-78297267D01*
X137971102Y-78297400D01*
X138113960Y-78276687D01*
X138179189Y-78267229D01*
X138179190Y-78267229D01*
X138182547Y-78266742D01*
X138384865Y-78198064D01*
X138387817Y-78196411D01*
X138387821Y-78196409D01*
X138568317Y-78095326D01*
X138568319Y-78095325D01*
X138571279Y-78093667D01*
X138582571Y-78084276D01*
X138732933Y-77959221D01*
X138735547Y-77957047D01*
X138872167Y-77792779D01*
X138890174Y-77760625D01*
X138974909Y-77609321D01*
X138974911Y-77609317D01*
X138976564Y-77606365D01*
X139045242Y-77404047D01*
X139045746Y-77400569D01*
X139075587Y-77194764D01*
X139075588Y-77194756D01*
X139075900Y-77192602D01*
X139077500Y-77131500D01*
X139074692Y-77100938D01*
X139282900Y-77100938D01*
X139296874Y-77314137D01*
X139297708Y-77317420D01*
X139345467Y-77505472D01*
X139349466Y-77521220D01*
X139350886Y-77524300D01*
X139437384Y-77711928D01*
X139438915Y-77715250D01*
X139440873Y-77718020D01*
X139560267Y-77886960D01*
X139560271Y-77886964D01*
X139562226Y-77889731D01*
X139564651Y-77892093D01*
X139564655Y-77892098D01*
X139628644Y-77954433D01*
X139715268Y-78038818D01*
X139718086Y-78040701D01*
X139718091Y-78040705D01*
X139799220Y-78094913D01*
X139892917Y-78157519D01*
X139896031Y-78158857D01*
X139896033Y-78158858D01*
X140085005Y-78240046D01*
X140089223Y-78241858D01*
X140238457Y-78275627D01*
X140294296Y-78288262D01*
X140294297Y-78288262D01*
X140297611Y-78289012D01*
X140398853Y-78292990D01*
X140507707Y-78297267D01*
X140507711Y-78297267D01*
X140511102Y-78297400D01*
X140653960Y-78276687D01*
X140719189Y-78267229D01*
X140719190Y-78267229D01*
X140722547Y-78266742D01*
X140924865Y-78198064D01*
X140927817Y-78196411D01*
X140927821Y-78196409D01*
X141108317Y-78095326D01*
X141108319Y-78095325D01*
X141111279Y-78093667D01*
X141122571Y-78084276D01*
X141124063Y-78083035D01*
X142326452Y-78083035D01*
X142327339Y-78086343D01*
X142327443Y-78086446D01*
X142430335Y-78155195D01*
X142436272Y-78158419D01*
X142626265Y-78240046D01*
X142632684Y-78242131D01*
X142834361Y-78287766D01*
X142841071Y-78288649D01*
X143047681Y-78296768D01*
X143054440Y-78296413D01*
X143259069Y-78266743D01*
X143265646Y-78265165D01*
X143461450Y-78198698D01*
X143467620Y-78195952D01*
X143648035Y-78094913D01*
X143651148Y-78092774D01*
X143656104Y-78084276D01*
X143655309Y-78079652D01*
X142999226Y-77423569D01*
X142989587Y-77419074D01*
X142983688Y-77420655D01*
X142330947Y-78073396D01*
X142326452Y-78083035D01*
X141124063Y-78083035D01*
X141272933Y-77959221D01*
X141275547Y-77957047D01*
X141412167Y-77792779D01*
X141430174Y-77760625D01*
X141514909Y-77609321D01*
X141514911Y-77609317D01*
X141516564Y-77606365D01*
X141585242Y-77404047D01*
X141585746Y-77400569D01*
X141615587Y-77194764D01*
X141615588Y-77194756D01*
X141615900Y-77192602D01*
X141617500Y-77131500D01*
X141615004Y-77104339D01*
X141823622Y-77104339D01*
X141837147Y-77310682D01*
X141838202Y-77317342D01*
X141889101Y-77517762D01*
X141891357Y-77524133D01*
X141977932Y-77711928D01*
X141981300Y-77717762D01*
X142031574Y-77788899D01*
X142040312Y-77794960D01*
X142044039Y-77794618D01*
X142697931Y-77140726D01*
X142702041Y-77131913D01*
X143277574Y-77131913D01*
X143279155Y-77137812D01*
X143934394Y-77793051D01*
X143944033Y-77797546D01*
X143948565Y-77796331D01*
X143949585Y-77795105D01*
X143953413Y-77789535D01*
X144054452Y-77609120D01*
X144057198Y-77602950D01*
X144123665Y-77407146D01*
X144125243Y-77400569D01*
X144151724Y-77217939D01*
X146674462Y-77217939D01*
X146685439Y-77310682D01*
X146706563Y-77489164D01*
X146706564Y-77489171D01*
X146706878Y-77491821D01*
X146707571Y-77494400D01*
X146707572Y-77494403D01*
X146777793Y-77755561D01*
X146777795Y-77755567D01*
X146778491Y-77758155D01*
X146779556Y-77760621D01*
X146779557Y-77760625D01*
X146795496Y-77797546D01*
X146887801Y-78011362D01*
X146939557Y-78095326D01*
X147030049Y-78242131D01*
X147032518Y-78246137D01*
X147209610Y-78457562D01*
X147415368Y-78641208D01*
X147645482Y-78793228D01*
X147895130Y-78910438D01*
X148159083Y-78990381D01*
X148281182Y-79008738D01*
X148429168Y-79030987D01*
X148429175Y-79030988D01*
X148431812Y-79031384D01*
X148434486Y-79031396D01*
X148434490Y-79031396D01*
X148577538Y-79032020D01*
X148707603Y-79032587D01*
X148929493Y-79001205D01*
X148978021Y-78994342D01*
X148978022Y-78994342D01*
X148980679Y-78993966D01*
X148983258Y-78993210D01*
X148983260Y-78993209D01*
X149242750Y-78917083D01*
X149242751Y-78917083D01*
X149245320Y-78916329D01*
X149341719Y-78872092D01*
X149493551Y-78802418D01*
X149493556Y-78802415D01*
X149495982Y-78801302D01*
X149498230Y-78799845D01*
X149725158Y-78652758D01*
X149725162Y-78652755D01*
X149727413Y-78651296D01*
X149934766Y-78469453D01*
X149936500Y-78467419D01*
X149936505Y-78467414D01*
X150014845Y-78375526D01*
X150113696Y-78259581D01*
X150260457Y-78026078D01*
X150371972Y-77773835D01*
X150445907Y-77508136D01*
X150458741Y-77407257D01*
X150480478Y-77236386D01*
X150480712Y-77234547D01*
X150483500Y-77131500D01*
X150483344Y-77129343D01*
X150463735Y-76859103D01*
X150463541Y-76856429D01*
X150404084Y-76587121D01*
X150306372Y-76329216D01*
X150212004Y-76159321D01*
X150173755Y-76090460D01*
X150173754Y-76090459D01*
X150172454Y-76088118D01*
X150170827Y-76085986D01*
X150006766Y-75871014D01*
X150006765Y-75871013D01*
X150005135Y-75868877D01*
X149807920Y-75676087D01*
X149584939Y-75513784D01*
X149340865Y-75385371D01*
X149080810Y-75293536D01*
X149078180Y-75293018D01*
X149078174Y-75293016D01*
X148812860Y-75240723D01*
X148812861Y-75240723D01*
X148810222Y-75240203D01*
X148807536Y-75240069D01*
X148807534Y-75240069D01*
X148689097Y-75234173D01*
X148534769Y-75226490D01*
X148532097Y-75226745D01*
X148532093Y-75226745D01*
X148397496Y-75239587D01*
X148260222Y-75252685D01*
X148126277Y-75285461D01*
X147994942Y-75317598D01*
X147994938Y-75317599D01*
X147992332Y-75318237D01*
X147989840Y-75319246D01*
X147989841Y-75319246D01*
X147739199Y-75420766D01*
X147739196Y-75420767D01*
X147736711Y-75421774D01*
X147734401Y-75423126D01*
X147734398Y-75423128D01*
X147649756Y-75472688D01*
X147498713Y-75561128D01*
X147283325Y-75733378D01*
X147281493Y-75735339D01*
X147281492Y-75735340D01*
X147158504Y-75866998D01*
X147095058Y-75934916D01*
X146937856Y-76161522D01*
X146815013Y-76408446D01*
X146814180Y-76410987D01*
X146776876Y-76524783D01*
X146729101Y-76670518D01*
X146728643Y-76673153D01*
X146728643Y-76673155D01*
X146691753Y-76885627D01*
X146681922Y-76942246D01*
X146681850Y-76944921D01*
X146681849Y-76944927D01*
X146677961Y-77088646D01*
X146674462Y-77217939D01*
X144151724Y-77217939D01*
X144155088Y-77194738D01*
X144155458Y-77190398D01*
X144156943Y-77133667D01*
X144156802Y-77129343D01*
X144137768Y-76922208D01*
X144136538Y-76915567D01*
X144080409Y-76716550D01*
X144077987Y-76710242D01*
X143986529Y-76524783D01*
X143983004Y-76519029D01*
X143949048Y-76473557D01*
X143940153Y-76467725D01*
X143936143Y-76468200D01*
X143282069Y-77122274D01*
X143277574Y-77131913D01*
X142702041Y-77131913D01*
X142702426Y-77131087D01*
X142700845Y-77125188D01*
X142047075Y-76471418D01*
X142037436Y-76466923D01*
X142033231Y-76468050D01*
X142013375Y-76493237D01*
X142009689Y-76498913D01*
X141913417Y-76681896D01*
X141910824Y-76688159D01*
X141849508Y-76885627D01*
X141848104Y-76892234D01*
X141823799Y-77097579D01*
X141823622Y-77104339D01*
X141615004Y-77104339D01*
X141597950Y-76918740D01*
X141597031Y-76915482D01*
X141597030Y-76915476D01*
X141540876Y-76716370D01*
X141540875Y-76716368D01*
X141539955Y-76713105D01*
X141476611Y-76584656D01*
X141446956Y-76524522D01*
X141446954Y-76524519D01*
X141445457Y-76521483D01*
X141428604Y-76498913D01*
X141319654Y-76353011D01*
X141319653Y-76353010D01*
X141317622Y-76350290D01*
X141315131Y-76347987D01*
X141315128Y-76347984D01*
X141163225Y-76207567D01*
X141163223Y-76207566D01*
X141160729Y-76205260D01*
X141126611Y-76183733D01*
X141120286Y-76179742D01*
X142324004Y-76179742D01*
X142324035Y-76182122D01*
X142325076Y-76183733D01*
X142980774Y-76839431D01*
X142990413Y-76843926D01*
X142996312Y-76842345D01*
X143649858Y-76188799D01*
X143654353Y-76179160D01*
X143653601Y-76176355D01*
X143652852Y-76175641D01*
X143522668Y-76093500D01*
X143516662Y-76090440D01*
X143324600Y-76013815D01*
X143318115Y-76011895D01*
X143115309Y-75971554D01*
X143108599Y-75970849D01*
X142901831Y-75968141D01*
X142895091Y-75968672D01*
X142691306Y-76003690D01*
X142684771Y-76005441D01*
X142490775Y-76077010D01*
X142484681Y-76079916D01*
X142330733Y-76171506D01*
X142324004Y-76179742D01*
X141120286Y-76179742D01*
X140982903Y-76093060D01*
X140982901Y-76093059D01*
X140980034Y-76091250D01*
X140976886Y-76089994D01*
X140976884Y-76089993D01*
X140784742Y-76013336D01*
X140784739Y-76013335D01*
X140781588Y-76012078D01*
X140623928Y-75980718D01*
X140575361Y-75971057D01*
X140575359Y-75971057D01*
X140572037Y-75970396D01*
X140477821Y-75969163D01*
X140361792Y-75967643D01*
X140361787Y-75967643D01*
X140358399Y-75967599D01*
X140355053Y-75968174D01*
X140355052Y-75968174D01*
X140294241Y-75978624D01*
X140147829Y-76003782D01*
X139947378Y-76077732D01*
X139763761Y-76186973D01*
X139603125Y-76327846D01*
X139470852Y-76495634D01*
X139455516Y-76524783D01*
X139372955Y-76681705D01*
X139372952Y-76681711D01*
X139371371Y-76684717D01*
X139308013Y-76888763D01*
X139282900Y-77100938D01*
X139074692Y-77100938D01*
X139057950Y-76918740D01*
X139057031Y-76915482D01*
X139057030Y-76915476D01*
X139000876Y-76716370D01*
X139000875Y-76716368D01*
X138999955Y-76713105D01*
X138936611Y-76584656D01*
X138906956Y-76524522D01*
X138906954Y-76524519D01*
X138905457Y-76521483D01*
X138888604Y-76498913D01*
X138779654Y-76353011D01*
X138779653Y-76353010D01*
X138777622Y-76350290D01*
X138775131Y-76347987D01*
X138775128Y-76347984D01*
X138623225Y-76207567D01*
X138623223Y-76207566D01*
X138620729Y-76205260D01*
X138586611Y-76183733D01*
X138442903Y-76093060D01*
X138442901Y-76093059D01*
X138440034Y-76091250D01*
X138436886Y-76089994D01*
X138436884Y-76089993D01*
X138244742Y-76013336D01*
X138244739Y-76013335D01*
X138241588Y-76012078D01*
X138083928Y-75980718D01*
X138035361Y-75971057D01*
X138035359Y-75971057D01*
X138032037Y-75970396D01*
X137937821Y-75969163D01*
X137821792Y-75967643D01*
X137821787Y-75967643D01*
X137818399Y-75967599D01*
X137815053Y-75968174D01*
X137815052Y-75968174D01*
X137754241Y-75978624D01*
X137607829Y-76003782D01*
X137407378Y-76077732D01*
X137223761Y-76186973D01*
X137063125Y-76327846D01*
X136930852Y-76495634D01*
X136915516Y-76524783D01*
X136832955Y-76681705D01*
X136832952Y-76681711D01*
X136831371Y-76684717D01*
X136768013Y-76888763D01*
X136742900Y-77100938D01*
X136534692Y-77100938D01*
X136517950Y-76918740D01*
X136517031Y-76915482D01*
X136517030Y-76915476D01*
X136460876Y-76716370D01*
X136460875Y-76716368D01*
X136459955Y-76713105D01*
X136396611Y-76584656D01*
X136366956Y-76524522D01*
X136366954Y-76524519D01*
X136365457Y-76521483D01*
X136348604Y-76498913D01*
X136239654Y-76353011D01*
X136239653Y-76353010D01*
X136237622Y-76350290D01*
X136235131Y-76347987D01*
X136235128Y-76347984D01*
X136083225Y-76207567D01*
X136083223Y-76207566D01*
X136080729Y-76205260D01*
X136046611Y-76183733D01*
X135902903Y-76093060D01*
X135902901Y-76093059D01*
X135900034Y-76091250D01*
X135896886Y-76089994D01*
X135896884Y-76089993D01*
X135704742Y-76013336D01*
X135704739Y-76013335D01*
X135701588Y-76012078D01*
X135543928Y-75980718D01*
X135495361Y-75971057D01*
X135495359Y-75971057D01*
X135492037Y-75970396D01*
X135397821Y-75969163D01*
X135281792Y-75967643D01*
X135281787Y-75967643D01*
X135278399Y-75967599D01*
X135275053Y-75968174D01*
X135275052Y-75968174D01*
X135214241Y-75978624D01*
X135067829Y-76003782D01*
X134867378Y-76077732D01*
X134683761Y-76186973D01*
X134523125Y-76327846D01*
X134390852Y-76495634D01*
X134375516Y-76524783D01*
X134292955Y-76681705D01*
X134292952Y-76681711D01*
X134291371Y-76684717D01*
X134228013Y-76888763D01*
X134202900Y-77100938D01*
X133994692Y-77100938D01*
X133977950Y-76918740D01*
X133977031Y-76915482D01*
X133977030Y-76915476D01*
X133920876Y-76716370D01*
X133920875Y-76716368D01*
X133919955Y-76713105D01*
X133856611Y-76584656D01*
X133826956Y-76524522D01*
X133826954Y-76524519D01*
X133825457Y-76521483D01*
X133808604Y-76498913D01*
X133699654Y-76353011D01*
X133699653Y-76353010D01*
X133697622Y-76350290D01*
X133695131Y-76347987D01*
X133695128Y-76347984D01*
X133543225Y-76207567D01*
X133543223Y-76207566D01*
X133540729Y-76205260D01*
X133506611Y-76183733D01*
X133362903Y-76093060D01*
X133362901Y-76093059D01*
X133360034Y-76091250D01*
X133356886Y-76089994D01*
X133356884Y-76089993D01*
X133164742Y-76013336D01*
X133164739Y-76013335D01*
X133161588Y-76012078D01*
X133003928Y-75980718D01*
X132955361Y-75971057D01*
X132955359Y-75971057D01*
X132952037Y-75970396D01*
X132857821Y-75969163D01*
X132741792Y-75967643D01*
X132741787Y-75967643D01*
X132738399Y-75967599D01*
X132735053Y-75968174D01*
X132735052Y-75968174D01*
X132674241Y-75978624D01*
X132527829Y-76003782D01*
X132327378Y-76077732D01*
X132143761Y-76186973D01*
X131983125Y-76327846D01*
X131850852Y-76495634D01*
X131835516Y-76524783D01*
X131752955Y-76681705D01*
X131752952Y-76681711D01*
X131751371Y-76684717D01*
X131688013Y-76888763D01*
X131662900Y-77100938D01*
X131454692Y-77100938D01*
X131437950Y-76918740D01*
X131437031Y-76915482D01*
X131437030Y-76915476D01*
X131380876Y-76716370D01*
X131380875Y-76716368D01*
X131379955Y-76713105D01*
X131316611Y-76584656D01*
X131286956Y-76524522D01*
X131286954Y-76524519D01*
X131285457Y-76521483D01*
X131268604Y-76498913D01*
X131159654Y-76353011D01*
X131159653Y-76353010D01*
X131157622Y-76350290D01*
X131155131Y-76347987D01*
X131155128Y-76347984D01*
X131003225Y-76207567D01*
X131003223Y-76207566D01*
X131000729Y-76205260D01*
X130966611Y-76183733D01*
X130822903Y-76093060D01*
X130822901Y-76093059D01*
X130820034Y-76091250D01*
X130816886Y-76089994D01*
X130816884Y-76089993D01*
X130624742Y-76013336D01*
X130624739Y-76013335D01*
X130621588Y-76012078D01*
X130463928Y-75980718D01*
X130415361Y-75971057D01*
X130415359Y-75971057D01*
X130412037Y-75970396D01*
X130317821Y-75969163D01*
X130201792Y-75967643D01*
X130201787Y-75967643D01*
X130198399Y-75967599D01*
X130195053Y-75968174D01*
X130195052Y-75968174D01*
X130134241Y-75978624D01*
X129987829Y-76003782D01*
X129787378Y-76077732D01*
X129603761Y-76186973D01*
X129443125Y-76327846D01*
X129310852Y-76495634D01*
X129295516Y-76524783D01*
X129212955Y-76681705D01*
X129212952Y-76681711D01*
X129211371Y-76684717D01*
X129148013Y-76888763D01*
X129122900Y-77100938D01*
X128914692Y-77100938D01*
X128897950Y-76918740D01*
X128897031Y-76915482D01*
X128897030Y-76915476D01*
X128840876Y-76716370D01*
X128840875Y-76716368D01*
X128839955Y-76713105D01*
X128776611Y-76584656D01*
X128746956Y-76524522D01*
X128746954Y-76524519D01*
X128745457Y-76521483D01*
X128728604Y-76498913D01*
X128619654Y-76353011D01*
X128619653Y-76353010D01*
X128617622Y-76350290D01*
X128615131Y-76347987D01*
X128615128Y-76347984D01*
X128463225Y-76207567D01*
X128463223Y-76207566D01*
X128460729Y-76205260D01*
X128426611Y-76183733D01*
X128282903Y-76093060D01*
X128282901Y-76093059D01*
X128280034Y-76091250D01*
X128276886Y-76089994D01*
X128276884Y-76089993D01*
X128084742Y-76013336D01*
X128084739Y-76013335D01*
X128081588Y-76012078D01*
X127923928Y-75980718D01*
X127875361Y-75971057D01*
X127875359Y-75971057D01*
X127872037Y-75970396D01*
X127777821Y-75969163D01*
X127661792Y-75967643D01*
X127661787Y-75967643D01*
X127658399Y-75967599D01*
X127655053Y-75968174D01*
X127655052Y-75968174D01*
X127594241Y-75978624D01*
X127447829Y-76003782D01*
X127247378Y-76077732D01*
X127063761Y-76186973D01*
X126903125Y-76327846D01*
X126770852Y-76495634D01*
X126755516Y-76524783D01*
X126672955Y-76681705D01*
X126672952Y-76681711D01*
X126671371Y-76684717D01*
X126608013Y-76888763D01*
X126582900Y-77100938D01*
X126374692Y-77100938D01*
X126357950Y-76918740D01*
X126357031Y-76915482D01*
X126357030Y-76915476D01*
X126300876Y-76716370D01*
X126300875Y-76716368D01*
X126299955Y-76713105D01*
X126236611Y-76584656D01*
X126206956Y-76524522D01*
X126206954Y-76524519D01*
X126205457Y-76521483D01*
X126188604Y-76498913D01*
X126079654Y-76353011D01*
X126079653Y-76353010D01*
X126077622Y-76350290D01*
X126075131Y-76347987D01*
X126075128Y-76347984D01*
X125923225Y-76207567D01*
X125923223Y-76207566D01*
X125920729Y-76205260D01*
X125886611Y-76183733D01*
X125742903Y-76093060D01*
X125742901Y-76093059D01*
X125740034Y-76091250D01*
X125736886Y-76089994D01*
X125736884Y-76089993D01*
X125544742Y-76013336D01*
X125544739Y-76013335D01*
X125541588Y-76012078D01*
X125383928Y-75980718D01*
X125335361Y-75971057D01*
X125335359Y-75971057D01*
X125332037Y-75970396D01*
X125237821Y-75969163D01*
X125121792Y-75967643D01*
X125121787Y-75967643D01*
X125118399Y-75967599D01*
X125115053Y-75968174D01*
X125115052Y-75968174D01*
X125054241Y-75978624D01*
X124907829Y-76003782D01*
X124707378Y-76077732D01*
X124523761Y-76186973D01*
X124363125Y-76327846D01*
X124230852Y-76495634D01*
X124215516Y-76524783D01*
X124132955Y-76681705D01*
X124132952Y-76681711D01*
X124131371Y-76684717D01*
X124068013Y-76888763D01*
X124042900Y-77100938D01*
X121525283Y-77100938D01*
X121507735Y-76859103D01*
X121507541Y-76856429D01*
X121448084Y-76587121D01*
X121350372Y-76329216D01*
X121256004Y-76159321D01*
X121217755Y-76090460D01*
X121217754Y-76090459D01*
X121216454Y-76088118D01*
X121214827Y-76085986D01*
X121050766Y-75871014D01*
X121050765Y-75871013D01*
X121049135Y-75868877D01*
X120851920Y-75676087D01*
X120628939Y-75513784D01*
X120384865Y-75385371D01*
X120124810Y-75293536D01*
X120122180Y-75293018D01*
X120122174Y-75293016D01*
X119856860Y-75240723D01*
X119856861Y-75240723D01*
X119854222Y-75240203D01*
X119851536Y-75240069D01*
X119851534Y-75240069D01*
X119733097Y-75234173D01*
X119578769Y-75226490D01*
X119576097Y-75226745D01*
X119576093Y-75226745D01*
X119441496Y-75239587D01*
X119304222Y-75252685D01*
X119170277Y-75285461D01*
X119038942Y-75317598D01*
X119038938Y-75317599D01*
X119036332Y-75318237D01*
X119033840Y-75319246D01*
X119033841Y-75319246D01*
X118783199Y-75420766D01*
X118783196Y-75420767D01*
X118780711Y-75421774D01*
X118778401Y-75423126D01*
X118778398Y-75423128D01*
X118693756Y-75472688D01*
X118542713Y-75561128D01*
X118327325Y-75733378D01*
X118325493Y-75735339D01*
X118325492Y-75735340D01*
X118202504Y-75866998D01*
X118139058Y-75934916D01*
X117981856Y-76161522D01*
X117859013Y-76408446D01*
X117858180Y-76410987D01*
X117820876Y-76524783D01*
X117773101Y-76670518D01*
X117772643Y-76673153D01*
X117772643Y-76673155D01*
X117735753Y-76885627D01*
X117725922Y-76942246D01*
X117725850Y-76944921D01*
X117725849Y-76944927D01*
X117721961Y-77088646D01*
X117718462Y-77217939D01*
X100930500Y-77217939D01*
X100930500Y-74985703D01*
X100947188Y-74939857D01*
X100947049Y-74939765D01*
X100947430Y-74939191D01*
X100948882Y-74937006D01*
X151995490Y-74937006D01*
X151995602Y-74939857D01*
X152003639Y-75144413D01*
X152006611Y-75220072D01*
X152057506Y-75498748D01*
X152058336Y-75501235D01*
X152058336Y-75501236D01*
X152118555Y-75681732D01*
X152147160Y-75767472D01*
X152273782Y-76020883D01*
X152275266Y-76023030D01*
X152275270Y-76023037D01*
X152369463Y-76159321D01*
X152434847Y-76253924D01*
X152627141Y-76461947D01*
X152846827Y-76640799D01*
X152849068Y-76642148D01*
X152849072Y-76642151D01*
X152919774Y-76684717D01*
X153089522Y-76786914D01*
X153091932Y-76787935D01*
X153091935Y-76787936D01*
X153322397Y-76885523D01*
X153350384Y-76897374D01*
X153352916Y-76898045D01*
X153352918Y-76898046D01*
X153509644Y-76939601D01*
X153624207Y-76969977D01*
X153905528Y-77003274D01*
X154034407Y-77000237D01*
X154186115Y-76996662D01*
X154186119Y-76996662D01*
X154188734Y-76996600D01*
X154191309Y-76996171D01*
X154191313Y-76996171D01*
X154465593Y-76950518D01*
X154465596Y-76950517D01*
X154468175Y-76950088D01*
X154577330Y-76915567D01*
X154735780Y-76865456D01*
X154735783Y-76865455D01*
X154738274Y-76864667D01*
X154740628Y-76863536D01*
X154740632Y-76863535D01*
X154991295Y-76743168D01*
X154993642Y-76742041D01*
X155074568Y-76687968D01*
X155227007Y-76586112D01*
X155227014Y-76586107D01*
X155229185Y-76584656D01*
X155440202Y-76395653D01*
X155622484Y-76178803D01*
X155720972Y-76020883D01*
X155771012Y-75940646D01*
X155771013Y-75940644D01*
X155772392Y-75938433D01*
X155886936Y-75679339D01*
X155963831Y-75406690D01*
X155988552Y-75222643D01*
X156001290Y-75127813D01*
X156001291Y-75127804D01*
X156001543Y-75125926D01*
X156005500Y-75000000D01*
X156001225Y-74939625D01*
X155985677Y-74720030D01*
X155985676Y-74720024D01*
X155985492Y-74717423D01*
X155983422Y-74707805D01*
X155926419Y-74443039D01*
X155925869Y-74440483D01*
X155827819Y-74174708D01*
X155795839Y-74115439D01*
X155694542Y-73927700D01*
X155694539Y-73927695D01*
X155693300Y-73925399D01*
X155524994Y-73697532D01*
X155523167Y-73695676D01*
X155523161Y-73695669D01*
X155328097Y-73497517D01*
X155328096Y-73497517D01*
X155326261Y-73495652D01*
X155238694Y-73428823D01*
X155103144Y-73325374D01*
X155103138Y-73325370D01*
X155101065Y-73323788D01*
X154853900Y-73185369D01*
X154589698Y-73083157D01*
X154587155Y-73082568D01*
X154587150Y-73082566D01*
X154316275Y-73019781D01*
X154316273Y-73019781D01*
X154313729Y-73019191D01*
X154311129Y-73018966D01*
X154311124Y-73018965D01*
X154034110Y-72994973D01*
X154031501Y-72994747D01*
X153748644Y-73010314D01*
X153470803Y-73065580D01*
X153305044Y-73123790D01*
X153205991Y-73158575D01*
X153205988Y-73158576D01*
X153203520Y-73159443D01*
X153201200Y-73160648D01*
X153201198Y-73160649D01*
X152954444Y-73288827D01*
X152954439Y-73288830D01*
X152952129Y-73290030D01*
X152950007Y-73291546D01*
X152950006Y-73291547D01*
X152723768Y-73453219D01*
X152723763Y-73453223D01*
X152721646Y-73454736D01*
X152719758Y-73456537D01*
X152530278Y-73637292D01*
X152516670Y-73650273D01*
X152341290Y-73872742D01*
X152339979Y-73874999D01*
X152222149Y-74077859D01*
X152199006Y-74117702D01*
X152198023Y-74120129D01*
X152198022Y-74120131D01*
X152093638Y-74377840D01*
X152093635Y-74377848D01*
X152092656Y-74380266D01*
X152024363Y-74655196D01*
X151995490Y-74937006D01*
X100948882Y-74937006D01*
X101046425Y-74790192D01*
X101077721Y-74707805D01*
X101108725Y-74626188D01*
X101108726Y-74626185D01*
X101110194Y-74622320D01*
X101114259Y-74593397D01*
X101134863Y-74446792D01*
X101134863Y-74446786D01*
X101135186Y-74444491D01*
X101135334Y-74433915D01*
X101135468Y-74424328D01*
X101135468Y-74424320D01*
X101135500Y-74422000D01*
X101115483Y-74243543D01*
X101110315Y-74228701D01*
X101093457Y-74180294D01*
X101056426Y-74073955D01*
X101050109Y-74063846D01*
X100963458Y-73925174D01*
X100963456Y-73925172D01*
X100961265Y-73921665D01*
X100834729Y-73794243D01*
X100683108Y-73698021D01*
X100644300Y-73684202D01*
X100517839Y-73639171D01*
X100517835Y-73639170D01*
X100513937Y-73637782D01*
X100335623Y-73616520D01*
X100331513Y-73616952D01*
X100331511Y-73616952D01*
X100161140Y-73634858D01*
X100161139Y-73634858D01*
X100157031Y-73635290D01*
X100106989Y-73652326D01*
X99990947Y-73691830D01*
X99990945Y-73691831D01*
X99987035Y-73693162D01*
X99834085Y-73787257D01*
X99831129Y-73790152D01*
X99748883Y-73870693D01*
X99705782Y-73912900D01*
X99608504Y-74063846D01*
X99604825Y-74073955D01*
X99548501Y-74228701D01*
X99548500Y-74228706D01*
X99547085Y-74232593D01*
X99546566Y-74236698D01*
X99546566Y-74236700D01*
X99528737Y-74377840D01*
X99524579Y-74410753D01*
X99542102Y-74589473D01*
X99543406Y-74593394D01*
X99543407Y-74593397D01*
X99583815Y-74714867D01*
X99598785Y-74759869D01*
X99691811Y-74913472D01*
X99694683Y-74916446D01*
X99708731Y-74930993D01*
X99729320Y-74977236D01*
X99729500Y-74982398D01*
X99729500Y-78697170D01*
X99728867Y-78706829D01*
X99724500Y-78740000D01*
X99725133Y-78744808D01*
X99729500Y-78777979D01*
X99732571Y-78801302D01*
X99745132Y-78896715D01*
X99805622Y-79042750D01*
X99808572Y-79046594D01*
X99808574Y-79046598D01*
X99898892Y-79164302D01*
X99901847Y-79168153D01*
X99905698Y-79171108D01*
X99928386Y-79188517D01*
X99935664Y-79194899D01*
X104193104Y-83452340D01*
X104199486Y-83459618D01*
X104219847Y-83486153D01*
X104223698Y-83489108D01*
X104250229Y-83509466D01*
X104250245Y-83509480D01*
X104341402Y-83579426D01*
X104341405Y-83579428D01*
X104345250Y-83582378D01*
X104491285Y-83642868D01*
X104496087Y-83643500D01*
X104496090Y-83643501D01*
X104643192Y-83662867D01*
X104648000Y-83663500D01*
X104652808Y-83662867D01*
X104681171Y-83659133D01*
X104690830Y-83658500D01*
X107399170Y-83658500D01*
X107408829Y-83659133D01*
X107442000Y-83663500D01*
X107446808Y-83662867D01*
X107593910Y-83643501D01*
X107593913Y-83643500D01*
X107598715Y-83642868D01*
X107744750Y-83582378D01*
X107748595Y-83579428D01*
X107748598Y-83579426D01*
X107839762Y-83509473D01*
X107839763Y-83509472D01*
X107866302Y-83489108D01*
X107870153Y-83486153D01*
X107890517Y-83459614D01*
X107896899Y-83452336D01*
X108431061Y-82918174D01*
X108476937Y-82896782D01*
X108483387Y-82896500D01*
X112496613Y-82896500D01*
X112544179Y-82913813D01*
X112548939Y-82918174D01*
X115709826Y-86079062D01*
X115731218Y-86124938D01*
X115731500Y-86131388D01*
X115731500Y-88601337D01*
X115714187Y-88648903D01*
X115670350Y-88674213D01*
X115632679Y-88671049D01*
X115499937Y-88623782D01*
X115321623Y-88602520D01*
X115317513Y-88602952D01*
X115317511Y-88602952D01*
X115147140Y-88620858D01*
X115147139Y-88620858D01*
X115143031Y-88621290D01*
X115131631Y-88625171D01*
X114976947Y-88677830D01*
X114976945Y-88677831D01*
X114973035Y-88679162D01*
X114820085Y-88773257D01*
X114691782Y-88898900D01*
X114594504Y-89049846D01*
X114575236Y-89102785D01*
X114534501Y-89214701D01*
X114534500Y-89214706D01*
X114533085Y-89218593D01*
X114532566Y-89222698D01*
X114532566Y-89222700D01*
X114514425Y-89366311D01*
X114510579Y-89396753D01*
X114518227Y-89474753D01*
X114527297Y-89567259D01*
X114528102Y-89575473D01*
X114529406Y-89579394D01*
X114529407Y-89579397D01*
X114583162Y-89740991D01*
X114584785Y-89745869D01*
X114677811Y-89899472D01*
X114680683Y-89902446D01*
X114694731Y-89916993D01*
X114715320Y-89963236D01*
X114715500Y-89968398D01*
X114715500Y-95967337D01*
X114698187Y-96014903D01*
X114654350Y-96040213D01*
X114616679Y-96037049D01*
X114483937Y-95989782D01*
X114305623Y-95968520D01*
X114301513Y-95968952D01*
X114301511Y-95968952D01*
X114131140Y-95986858D01*
X114131139Y-95986858D01*
X114127031Y-95987290D01*
X114115631Y-95991171D01*
X113960947Y-96043830D01*
X113960945Y-96043831D01*
X113957035Y-96045162D01*
X113804085Y-96139257D01*
X113675782Y-96264900D01*
X113578504Y-96415846D01*
X113577091Y-96419729D01*
X113518501Y-96580701D01*
X113518500Y-96580706D01*
X113517085Y-96584593D01*
X113494579Y-96762753D01*
X113494983Y-96766870D01*
X113509141Y-96911269D01*
X113512102Y-96941473D01*
X113513406Y-96945394D01*
X113513407Y-96945397D01*
X113551914Y-97061154D01*
X113568785Y-97111869D01*
X113661811Y-97265472D01*
X113664679Y-97268442D01*
X113664683Y-97268447D01*
X113778731Y-97386546D01*
X113799320Y-97432789D01*
X113799500Y-97437951D01*
X113799500Y-102840818D01*
X113782187Y-102888384D01*
X113738350Y-102913694D01*
X113688500Y-102904904D01*
X113666720Y-102883870D01*
X113666029Y-102884418D01*
X113663458Y-102881175D01*
X113661265Y-102877665D01*
X113534729Y-102750243D01*
X113383108Y-102654021D01*
X113331300Y-102635573D01*
X113217839Y-102595171D01*
X113217835Y-102595170D01*
X113213937Y-102593782D01*
X113035623Y-102572520D01*
X113031513Y-102572952D01*
X113031511Y-102572952D01*
X112861140Y-102590858D01*
X112861139Y-102590858D01*
X112857031Y-102591290D01*
X112772033Y-102620226D01*
X112690947Y-102647830D01*
X112690945Y-102647831D01*
X112687035Y-102649162D01*
X112534085Y-102743257D01*
X112504278Y-102772446D01*
X112411940Y-102862870D01*
X112405782Y-102868900D01*
X112308504Y-103019846D01*
X112300753Y-103041141D01*
X112248501Y-103184701D01*
X112248500Y-103184706D01*
X112247085Y-103188593D01*
X112246566Y-103192698D01*
X112246566Y-103192700D01*
X112241309Y-103234319D01*
X112224579Y-103366753D01*
X112226616Y-103387530D01*
X112240809Y-103532282D01*
X112242102Y-103545473D01*
X112243406Y-103549394D01*
X112243407Y-103549397D01*
X112297480Y-103711947D01*
X112298785Y-103715869D01*
X112391811Y-103869472D01*
X112394683Y-103872446D01*
X112408731Y-103886993D01*
X112429320Y-103933236D01*
X112429500Y-103938398D01*
X112429500Y-106370567D01*
X112412187Y-106418133D01*
X112409747Y-106420768D01*
X112408738Y-106422006D01*
X112405782Y-106424900D01*
X112308504Y-106575846D01*
X112307091Y-106579729D01*
X112248501Y-106740701D01*
X112248500Y-106740706D01*
X112247085Y-106744593D01*
X112246566Y-106748698D01*
X112246566Y-106748700D01*
X112233604Y-106851312D01*
X112224579Y-106922753D01*
X112228113Y-106958792D01*
X112241627Y-107096627D01*
X112242102Y-107101473D01*
X112243406Y-107105394D01*
X112243407Y-107105397D01*
X112284433Y-107228726D01*
X112298785Y-107271869D01*
X112391811Y-107425472D01*
X112394679Y-107428442D01*
X112394683Y-107428447D01*
X112458565Y-107494598D01*
X112516555Y-107554648D01*
X112520014Y-107556912D01*
X112520017Y-107556914D01*
X112568090Y-107588372D01*
X112666818Y-107652978D01*
X112670698Y-107654421D01*
X112831254Y-107714131D01*
X112831256Y-107714131D01*
X112835132Y-107715573D01*
X112878144Y-107721312D01*
X113009028Y-107738776D01*
X113009032Y-107738776D01*
X113013131Y-107739323D01*
X113017252Y-107738948D01*
X113017256Y-107738948D01*
X113093723Y-107731989D01*
X113191968Y-107723048D01*
X113362756Y-107667556D01*
X113366311Y-107665437D01*
X113513453Y-107577723D01*
X113513457Y-107577720D01*
X113517005Y-107575605D01*
X113647049Y-107451765D01*
X113746425Y-107302192D01*
X113787976Y-107192808D01*
X113808725Y-107138188D01*
X113808726Y-107138185D01*
X113810194Y-107134320D01*
X113814259Y-107105397D01*
X113834863Y-106958792D01*
X113834863Y-106958786D01*
X113835186Y-106956491D01*
X113835334Y-106945915D01*
X113835468Y-106936328D01*
X113835468Y-106936320D01*
X113835500Y-106934000D01*
X113815483Y-106755543D01*
X113810315Y-106740701D01*
X113797685Y-106704434D01*
X113798392Y-106653820D01*
X113831467Y-106615502D01*
X113881435Y-106607409D01*
X113908089Y-106618178D01*
X113933353Y-106634711D01*
X113933356Y-106634713D01*
X113936818Y-106636978D01*
X113940698Y-106638421D01*
X114101254Y-106698131D01*
X114101256Y-106698131D01*
X114105132Y-106699573D01*
X114141564Y-106704434D01*
X114279028Y-106722776D01*
X114279032Y-106722776D01*
X114283131Y-106723323D01*
X114287252Y-106722948D01*
X114287256Y-106722948D01*
X114363723Y-106715989D01*
X114461968Y-106707048D01*
X114512113Y-106690755D01*
X114562701Y-106692521D01*
X114600318Y-106726392D01*
X114607363Y-106776519D01*
X114587306Y-106813459D01*
X112891124Y-108509641D01*
X112845248Y-108531033D01*
X112838798Y-108531315D01*
X109120388Y-108531315D01*
X109110730Y-108530682D01*
X109082373Y-108526949D01*
X109077565Y-108526316D01*
X109072757Y-108526949D01*
X109039599Y-108531314D01*
X109039587Y-108531315D01*
X109039584Y-108531315D01*
X109039575Y-108531316D01*
X108925655Y-108546314D01*
X108925652Y-108546315D01*
X108920850Y-108546947D01*
X108916371Y-108548802D01*
X108916372Y-108548802D01*
X108783699Y-108603757D01*
X108733128Y-108605965D01*
X108710146Y-108593670D01*
X108708729Y-108592243D01*
X108557108Y-108496021D01*
X108477756Y-108467765D01*
X108391839Y-108437171D01*
X108391835Y-108437170D01*
X108387937Y-108435782D01*
X108209623Y-108414520D01*
X108205513Y-108414952D01*
X108205511Y-108414952D01*
X108035140Y-108432858D01*
X108035139Y-108432858D01*
X108031031Y-108433290D01*
X107946033Y-108462226D01*
X107864947Y-108489830D01*
X107864945Y-108489831D01*
X107861035Y-108491162D01*
X107708085Y-108585257D01*
X107579782Y-108710900D01*
X107482504Y-108861846D01*
X107461291Y-108920129D01*
X107422501Y-109026701D01*
X107422500Y-109026706D01*
X107421085Y-109030593D01*
X107420566Y-109034698D01*
X107420566Y-109034700D01*
X107403495Y-109169840D01*
X107398579Y-109208753D01*
X107398983Y-109212870D01*
X107408252Y-109307405D01*
X107416102Y-109387473D01*
X107417406Y-109391394D01*
X107417407Y-109391397D01*
X107471480Y-109553947D01*
X107472785Y-109557869D01*
X107565811Y-109711472D01*
X107568679Y-109714442D01*
X107568683Y-109714447D01*
X107665366Y-109814564D01*
X107690555Y-109840648D01*
X107694014Y-109842912D01*
X107694017Y-109842914D01*
X107742090Y-109874372D01*
X107840818Y-109938978D01*
X107844698Y-109940421D01*
X108005254Y-110000131D01*
X108005256Y-110000131D01*
X108009132Y-110001573D01*
X108055562Y-110007768D01*
X108183028Y-110024776D01*
X108183032Y-110024776D01*
X108187131Y-110025323D01*
X108191252Y-110024948D01*
X108191256Y-110024948D01*
X108267723Y-110017989D01*
X108365968Y-110009048D01*
X108531770Y-109955176D01*
X108582358Y-109956942D01*
X108619975Y-109990813D01*
X108627020Y-110040940D01*
X108606963Y-110077880D01*
X107955017Y-110729826D01*
X107909141Y-110751218D01*
X107902691Y-110751500D01*
X104039904Y-110751500D01*
X103992338Y-110734187D01*
X103987396Y-110729643D01*
X103976920Y-110719094D01*
X103882729Y-110624243D01*
X103731108Y-110528021D01*
X103687781Y-110512593D01*
X103565839Y-110469171D01*
X103565835Y-110469170D01*
X103561937Y-110467782D01*
X103383623Y-110446520D01*
X103379513Y-110446952D01*
X103379511Y-110446952D01*
X103209140Y-110464858D01*
X103209139Y-110464858D01*
X103205031Y-110465290D01*
X103153391Y-110482870D01*
X103038947Y-110521830D01*
X103038945Y-110521831D01*
X103035035Y-110523162D01*
X102882085Y-110617257D01*
X102879129Y-110620152D01*
X102759838Y-110736970D01*
X102753782Y-110742900D01*
X102656504Y-110893846D01*
X102644432Y-110927014D01*
X102596501Y-111058701D01*
X102596500Y-111058706D01*
X102595085Y-111062593D01*
X102594566Y-111066698D01*
X102594566Y-111066700D01*
X102576411Y-111210421D01*
X102572579Y-111240753D01*
X102577676Y-111292732D01*
X102578886Y-111305074D01*
X102566298Y-111354102D01*
X102557565Y-111364621D01*
X102430360Y-111491826D01*
X102384484Y-111513218D01*
X102378034Y-111513500D01*
X96165904Y-111513500D01*
X96118338Y-111496187D01*
X96113396Y-111491643D01*
X96008729Y-111386243D01*
X95973444Y-111363850D01*
X95942559Y-111323747D01*
X95944678Y-111273173D01*
X95960769Y-111249045D01*
X98438123Y-108771691D01*
X98483999Y-108750299D01*
X98500236Y-108750667D01*
X98531028Y-108754776D01*
X98531032Y-108754776D01*
X98535131Y-108755323D01*
X98539252Y-108754948D01*
X98539256Y-108754948D01*
X98615723Y-108747989D01*
X98713968Y-108739048D01*
X98884756Y-108683556D01*
X98888311Y-108681437D01*
X99035453Y-108593723D01*
X99035457Y-108593720D01*
X99039005Y-108591605D01*
X99169049Y-108467765D01*
X99268425Y-108318192D01*
X99315998Y-108192956D01*
X99330725Y-108154188D01*
X99330726Y-108154185D01*
X99332194Y-108150320D01*
X99338534Y-108105208D01*
X99356863Y-107974792D01*
X99356863Y-107974786D01*
X99357186Y-107972491D01*
X99357401Y-107957098D01*
X99357468Y-107952328D01*
X99357468Y-107952320D01*
X99357500Y-107950000D01*
X99337483Y-107771543D01*
X99332315Y-107756701D01*
X99300533Y-107665437D01*
X99278426Y-107601955D01*
X99272109Y-107591846D01*
X99185458Y-107453174D01*
X99185456Y-107453172D01*
X99183265Y-107449665D01*
X99056729Y-107322243D01*
X99048427Y-107316974D01*
X99013355Y-107294717D01*
X98905108Y-107226021D01*
X98852306Y-107207219D01*
X98739839Y-107167171D01*
X98739835Y-107167170D01*
X98735937Y-107165782D01*
X98557623Y-107144520D01*
X98553513Y-107144952D01*
X98553511Y-107144952D01*
X98383140Y-107162858D01*
X98383139Y-107162858D01*
X98379031Y-107163290D01*
X98320570Y-107183192D01*
X98212947Y-107219830D01*
X98212945Y-107219831D01*
X98209035Y-107221162D01*
X98056085Y-107315257D01*
X98011404Y-107359012D01*
X97940499Y-107428447D01*
X97927782Y-107440900D01*
X97830504Y-107591846D01*
X97814775Y-107635060D01*
X97770501Y-107756701D01*
X97770500Y-107756706D01*
X97769085Y-107760593D01*
X97768566Y-107764698D01*
X97768566Y-107764700D01*
X97747249Y-107933453D01*
X97746579Y-107938753D01*
X97752500Y-107999134D01*
X97752886Y-108003074D01*
X97740298Y-108052102D01*
X97731565Y-108062621D01*
X95657303Y-110136883D01*
X95611427Y-110158275D01*
X95562532Y-110145174D01*
X95533498Y-110103710D01*
X95531438Y-110092805D01*
X95527944Y-110061654D01*
X95527483Y-110057543D01*
X95522315Y-110042701D01*
X95504245Y-109990813D01*
X95468426Y-109887955D01*
X95462109Y-109877846D01*
X95375458Y-109739174D01*
X95375456Y-109739172D01*
X95373265Y-109735665D01*
X95263992Y-109625627D01*
X95242760Y-109579676D01*
X95242500Y-109573484D01*
X95242500Y-107359012D01*
X95259813Y-107311446D01*
X95278607Y-107295450D01*
X95279837Y-107294717D01*
X95279842Y-107294713D01*
X95283392Y-107292597D01*
X95413436Y-107168757D01*
X95512812Y-107019184D01*
X95576581Y-106851312D01*
X95577157Y-106847215D01*
X95601250Y-106675784D01*
X95601250Y-106675778D01*
X95601573Y-106673483D01*
X95601848Y-106653820D01*
X95601855Y-106653320D01*
X95601855Y-106653312D01*
X95601887Y-106650992D01*
X95591249Y-106556152D01*
X95585035Y-106500748D01*
X95596938Y-106451549D01*
X95637681Y-106421511D01*
X95658574Y-106418500D01*
X95948290Y-106418500D01*
X95964621Y-106420325D01*
X95966310Y-106420707D01*
X95971459Y-106421872D01*
X96023521Y-106418642D01*
X96028103Y-106418500D01*
X96046914Y-106418500D01*
X96049517Y-106418127D01*
X96049520Y-106418127D01*
X96060109Y-106416611D01*
X96066014Y-106416006D01*
X96082124Y-106415006D01*
X96114509Y-106412997D01*
X96126556Y-106408648D01*
X96141195Y-106404998D01*
X96148657Y-106403930D01*
X96148660Y-106403929D01*
X96153877Y-106403182D01*
X96158674Y-106401001D01*
X96158677Y-106401000D01*
X96198124Y-106383064D01*
X96203626Y-106380825D01*
X96244357Y-106366121D01*
X96249318Y-106364330D01*
X96259662Y-106356773D01*
X96272682Y-106349165D01*
X96284349Y-106343860D01*
X96321163Y-106312139D01*
X96325813Y-106308447D01*
X96336698Y-106300495D01*
X96336703Y-106300491D01*
X96339005Y-106298809D01*
X96351836Y-106285978D01*
X96355858Y-106282244D01*
X96388933Y-106253745D01*
X96388938Y-106253739D01*
X96392926Y-106250303D01*
X96398655Y-106241465D01*
X96408425Y-106229389D01*
X98392404Y-104245410D01*
X98438280Y-104224018D01*
X98487175Y-104237119D01*
X98516209Y-104278583D01*
X98518147Y-104307010D01*
X98508579Y-104382753D01*
X98508855Y-104385568D01*
X98508520Y-104388377D01*
X98517617Y-104474928D01*
X98526102Y-104561473D01*
X98526994Y-104564155D01*
X98527290Y-104566969D01*
X98528626Y-104570892D01*
X98528626Y-104570894D01*
X98555229Y-104649041D01*
X98555394Y-104649530D01*
X98581478Y-104727941D01*
X98582785Y-104731869D01*
X98584252Y-104734290D01*
X98585162Y-104736965D01*
X98587330Y-104740490D01*
X98587331Y-104740491D01*
X98630611Y-104810841D01*
X98630874Y-104811272D01*
X98675811Y-104885472D01*
X98677775Y-104887505D01*
X98679257Y-104889915D01*
X98689791Y-104900672D01*
X98739976Y-104951920D01*
X98740336Y-104952290D01*
X98782100Y-104995537D01*
X98800555Y-105014648D01*
X98802919Y-105016195D01*
X98804900Y-105018218D01*
X98808375Y-105020457D01*
X98808378Y-105020460D01*
X98877842Y-105065227D01*
X98878274Y-105065508D01*
X98947359Y-105110716D01*
X98947369Y-105110721D01*
X98950818Y-105112978D01*
X98953468Y-105113964D01*
X98955846Y-105115496D01*
X99037299Y-105145142D01*
X99037773Y-105145316D01*
X99119132Y-105175573D01*
X99121933Y-105175947D01*
X99124593Y-105176915D01*
X99210791Y-105187804D01*
X99211169Y-105187853D01*
X99238907Y-105191554D01*
X99293028Y-105198776D01*
X99293032Y-105198776D01*
X99297131Y-105199323D01*
X99301252Y-105198948D01*
X99301256Y-105198948D01*
X99346777Y-105194805D01*
X99353484Y-105194500D01*
X104391286Y-105194500D01*
X104392061Y-105194504D01*
X104471268Y-105195334D01*
X104471271Y-105195334D01*
X104475401Y-105195377D01*
X104479437Y-105194504D01*
X104479441Y-105194504D01*
X104510460Y-105187797D01*
X104519870Y-105185762D01*
X104527253Y-105184554D01*
X104572457Y-105179483D01*
X104576361Y-105178123D01*
X104576363Y-105178123D01*
X104606736Y-105167546D01*
X104615434Y-105165101D01*
X104637371Y-105160358D01*
X104650922Y-105157428D01*
X104654669Y-105155681D01*
X104654674Y-105155679D01*
X104692154Y-105138201D01*
X104699091Y-105135384D01*
X104711062Y-105131216D01*
X104738138Y-105121787D01*
X104738141Y-105121785D01*
X104742045Y-105120426D01*
X104772829Y-105101190D01*
X104780768Y-105096879D01*
X104813674Y-105081535D01*
X104849614Y-105053657D01*
X104855751Y-105049376D01*
X104890824Y-105027460D01*
X104890830Y-105027455D01*
X104894335Y-105025265D01*
X104922341Y-104997453D01*
X104923655Y-104996224D01*
X104924541Y-104995537D01*
X104963080Y-104956998D01*
X105021757Y-104898729D01*
X105022273Y-104897916D01*
X105023244Y-104896834D01*
X106223055Y-103697023D01*
X106224349Y-103695760D01*
X106270175Y-103652120D01*
X106281049Y-103641765D01*
X106309611Y-103598776D01*
X106313409Y-103593567D01*
X106315921Y-103590421D01*
X106345608Y-103553232D01*
X106358740Y-103526067D01*
X106363724Y-103517329D01*
X106365027Y-103515368D01*
X106380425Y-103492192D01*
X106398750Y-103443952D01*
X106401303Y-103438023D01*
X106421965Y-103395281D01*
X106423766Y-103391556D01*
X106430557Y-103362142D01*
X106433475Y-103352537D01*
X106444194Y-103324320D01*
X106451378Y-103273202D01*
X106452551Y-103266873D01*
X106464162Y-103216582D01*
X106464267Y-103186402D01*
X106464986Y-103176374D01*
X106469186Y-103146491D01*
X106469500Y-103124000D01*
X106465112Y-103084877D01*
X106464651Y-103076371D01*
X106464774Y-103041141D01*
X106464774Y-103041137D01*
X106464788Y-103037006D01*
X106455532Y-102995596D01*
X106454213Y-102987712D01*
X106449483Y-102945543D01*
X106436537Y-102908365D01*
X106434203Y-102900174D01*
X106430559Y-102883870D01*
X106425615Y-102861755D01*
X106407416Y-102823428D01*
X106404379Y-102816023D01*
X106397424Y-102796051D01*
X106390426Y-102775955D01*
X106388236Y-102772450D01*
X106388234Y-102772446D01*
X106369566Y-102742570D01*
X106365475Y-102735099D01*
X106358543Y-102720500D01*
X106348589Y-102699537D01*
X106345533Y-102695653D01*
X106322353Y-102666196D01*
X106317751Y-102659648D01*
X106297462Y-102627180D01*
X106297459Y-102627177D01*
X106295265Y-102623665D01*
X106267519Y-102595725D01*
X106261874Y-102589344D01*
X106237536Y-102558416D01*
X106234323Y-102555814D01*
X106234318Y-102555809D01*
X106230212Y-102552484D01*
X106204141Y-102509095D01*
X106204679Y-102478332D01*
X106210162Y-102454582D01*
X106210267Y-102424402D01*
X106210986Y-102414374D01*
X106215186Y-102384491D01*
X106215500Y-102362000D01*
X106211112Y-102322877D01*
X106210651Y-102314371D01*
X106210774Y-102279141D01*
X106210774Y-102279137D01*
X106210788Y-102275006D01*
X106201532Y-102233596D01*
X106200213Y-102225712D01*
X106195483Y-102183543D01*
X106182537Y-102146365D01*
X106180203Y-102138174D01*
X106172517Y-102103790D01*
X106171615Y-102099755D01*
X106153416Y-102061428D01*
X106150379Y-102054023D01*
X106137785Y-102017859D01*
X106136426Y-102013955D01*
X106134236Y-102010450D01*
X106134234Y-102010446D01*
X106115566Y-101980570D01*
X106111475Y-101973099D01*
X106094589Y-101937537D01*
X106079271Y-101918071D01*
X106068353Y-101904196D01*
X106063751Y-101897648D01*
X106043462Y-101865180D01*
X106043459Y-101865177D01*
X106041265Y-101861665D01*
X106013519Y-101833725D01*
X106007874Y-101827344D01*
X105986095Y-101799668D01*
X105983536Y-101796416D01*
X105980323Y-101793814D01*
X105980318Y-101793809D01*
X105950565Y-101769715D01*
X105944627Y-101764350D01*
X105917648Y-101737182D01*
X105917646Y-101737180D01*
X105914729Y-101734243D01*
X105881492Y-101713150D01*
X105874575Y-101708179D01*
X105847201Y-101686012D01*
X105847193Y-101686007D01*
X105843980Y-101683405D01*
X105805919Y-101664677D01*
X105798940Y-101660761D01*
X105763108Y-101638021D01*
X105726003Y-101624809D01*
X105718171Y-101621500D01*
X105682853Y-101604121D01*
X105655897Y-101597699D01*
X105641585Y-101594289D01*
X105633922Y-101592020D01*
X105593937Y-101577782D01*
X105589835Y-101577293D01*
X105589831Y-101577292D01*
X105568861Y-101574792D01*
X105554838Y-101573120D01*
X105546462Y-101571628D01*
X105508166Y-101562504D01*
X105465730Y-101562060D01*
X105457747Y-101561543D01*
X105415623Y-101556520D01*
X105411512Y-101556952D01*
X105411510Y-101556952D01*
X105376475Y-101560634D01*
X105367967Y-101561035D01*
X105332733Y-101560666D01*
X105332730Y-101560666D01*
X105328599Y-101560623D01*
X105324564Y-101561495D01*
X105324558Y-101561496D01*
X105287125Y-101569590D01*
X105279222Y-101570856D01*
X105237031Y-101575290D01*
X105233113Y-101576624D01*
X105233108Y-101576625D01*
X105199766Y-101587976D01*
X105191560Y-101590252D01*
X105153078Y-101598572D01*
X105149336Y-101600317D01*
X105149330Y-101600319D01*
X105114617Y-101616506D01*
X105107192Y-101619491D01*
X105070947Y-101631830D01*
X105070945Y-101631831D01*
X105067035Y-101633162D01*
X105063515Y-101635327D01*
X105063516Y-101635327D01*
X105033510Y-101653787D01*
X105026008Y-101657826D01*
X104990326Y-101674465D01*
X104978801Y-101683405D01*
X104956799Y-101700471D01*
X104950220Y-101705027D01*
X104914085Y-101727257D01*
X104911133Y-101730148D01*
X104911129Y-101730151D01*
X104906951Y-101734243D01*
X104885953Y-101754806D01*
X104882958Y-101757403D01*
X104883042Y-101757499D01*
X104881295Y-101759039D01*
X104879459Y-101760463D01*
X104845854Y-101794068D01*
X104845303Y-101794613D01*
X104791940Y-101846870D01*
X104785782Y-101852900D01*
X104784172Y-101855397D01*
X104780875Y-101859047D01*
X103830096Y-102809826D01*
X103784220Y-102831218D01*
X103777770Y-102831500D01*
X99984966Y-102831500D01*
X99937400Y-102814187D01*
X99912090Y-102770350D01*
X99920880Y-102720500D01*
X99932640Y-102705174D01*
X100130857Y-102506957D01*
X100143695Y-102496700D01*
X100145166Y-102495772D01*
X100145169Y-102495770D01*
X100149625Y-102492958D01*
X100184156Y-102453859D01*
X100187296Y-102450518D01*
X100200595Y-102437219D01*
X100208596Y-102426543D01*
X100212325Y-102421964D01*
X100244501Y-102385531D01*
X100246741Y-102380759D01*
X100246744Y-102380755D01*
X100249944Y-102373938D01*
X100257710Y-102361010D01*
X100265398Y-102350753D01*
X100282457Y-102305249D01*
X100284763Y-102299778D01*
X100301861Y-102263357D01*
X100305412Y-102255794D01*
X100307065Y-102245182D01*
X100307383Y-102243137D01*
X100311211Y-102228547D01*
X100313859Y-102221483D01*
X100315709Y-102216548D01*
X100319310Y-102168080D01*
X100319988Y-102162177D01*
X100322061Y-102148863D01*
X100322500Y-102146045D01*
X100322500Y-102127902D01*
X100322703Y-102122419D01*
X100324387Y-102099755D01*
X100326329Y-102073618D01*
X100324130Y-102063316D01*
X100322500Y-102047868D01*
X100322500Y-98516689D01*
X100339813Y-98469123D01*
X100344174Y-98464363D01*
X103116368Y-95692169D01*
X103129206Y-95681912D01*
X103130677Y-95680984D01*
X103130680Y-95680982D01*
X103135136Y-95678170D01*
X103169667Y-95639071D01*
X103172807Y-95635730D01*
X103186106Y-95622431D01*
X103194107Y-95611755D01*
X103197836Y-95607176D01*
X103230012Y-95570743D01*
X103232252Y-95565971D01*
X103232255Y-95565967D01*
X103235455Y-95559150D01*
X103243221Y-95546222D01*
X103250909Y-95535965D01*
X103267967Y-95490463D01*
X103270273Y-95484990D01*
X103288683Y-95445778D01*
X103288684Y-95445776D01*
X103290923Y-95441006D01*
X103292893Y-95428350D01*
X103296720Y-95413762D01*
X103301219Y-95401761D01*
X103304820Y-95353298D01*
X103305498Y-95347397D01*
X103307572Y-95334077D01*
X103307572Y-95334076D01*
X103308011Y-95331257D01*
X103308011Y-95313110D01*
X103308214Y-95307626D01*
X103311450Y-95264083D01*
X103311450Y-95264081D01*
X103311840Y-95258830D01*
X103309640Y-95248526D01*
X103308011Y-95233084D01*
X103308011Y-93010455D01*
X103325324Y-92962889D01*
X103329685Y-92958129D01*
X109106123Y-87181691D01*
X109151999Y-87160299D01*
X109168236Y-87160667D01*
X109199028Y-87164776D01*
X109199032Y-87164776D01*
X109203131Y-87165323D01*
X109207252Y-87164948D01*
X109207256Y-87164948D01*
X109283723Y-87157989D01*
X109381968Y-87149048D01*
X109552756Y-87093556D01*
X109556311Y-87091437D01*
X109703453Y-87003723D01*
X109703457Y-87003720D01*
X109707005Y-87001605D01*
X109837049Y-86877765D01*
X109936425Y-86728192D01*
X110000194Y-86560320D01*
X110000770Y-86556223D01*
X110024863Y-86384792D01*
X110024863Y-86384786D01*
X110025186Y-86382491D01*
X110025334Y-86371915D01*
X110025468Y-86362328D01*
X110025468Y-86362320D01*
X110025500Y-86360000D01*
X110005483Y-86181543D01*
X110002185Y-86172071D01*
X109963501Y-86060988D01*
X109946426Y-86011955D01*
X109944236Y-86008450D01*
X109853458Y-85863174D01*
X109853456Y-85863172D01*
X109851265Y-85859665D01*
X109724729Y-85732243D01*
X109573108Y-85636021D01*
X109513442Y-85614775D01*
X109407839Y-85577171D01*
X109407835Y-85577170D01*
X109403937Y-85575782D01*
X109377026Y-85572573D01*
X109362359Y-85570824D01*
X109317177Y-85548001D01*
X109297236Y-85501476D01*
X109311867Y-85453017D01*
X109318795Y-85445019D01*
X109868123Y-84895691D01*
X109913999Y-84874299D01*
X109930236Y-84874667D01*
X109961028Y-84878776D01*
X109961032Y-84878776D01*
X109965131Y-84879323D01*
X109969252Y-84878948D01*
X109969256Y-84878948D01*
X110045723Y-84871989D01*
X110143968Y-84863048D01*
X110314756Y-84807556D01*
X110318311Y-84805437D01*
X110465453Y-84717723D01*
X110465457Y-84717720D01*
X110469005Y-84715605D01*
X110599049Y-84591765D01*
X110698425Y-84442192D01*
X110762194Y-84274320D01*
X110775998Y-84176102D01*
X110786863Y-84098792D01*
X110786863Y-84098786D01*
X110787186Y-84096491D01*
X110787334Y-84085915D01*
X110787468Y-84076328D01*
X110787468Y-84076320D01*
X110787500Y-84074000D01*
X110767483Y-83895543D01*
X110762315Y-83880701D01*
X110749517Y-83843952D01*
X110708426Y-83725955D01*
X110702109Y-83715846D01*
X110615458Y-83577174D01*
X110615456Y-83577172D01*
X110613265Y-83573665D01*
X110486729Y-83446243D01*
X110335108Y-83350021D01*
X110305830Y-83339596D01*
X110169839Y-83291171D01*
X110169835Y-83291170D01*
X110165937Y-83289782D01*
X109987623Y-83268520D01*
X109983513Y-83268952D01*
X109983511Y-83268952D01*
X109813140Y-83286858D01*
X109813139Y-83286858D01*
X109809031Y-83287290D01*
X109797631Y-83291171D01*
X109642947Y-83343830D01*
X109642945Y-83343831D01*
X109639035Y-83345162D01*
X109486085Y-83439257D01*
X109465297Y-83459614D01*
X109414387Y-83509469D01*
X109357782Y-83564900D01*
X109260504Y-83715846D01*
X109256825Y-83725955D01*
X109200501Y-83880701D01*
X109200500Y-83880706D01*
X109199085Y-83884593D01*
X109198566Y-83888698D01*
X109198566Y-83888700D01*
X109197183Y-83899653D01*
X109176579Y-84062753D01*
X109179660Y-84094168D01*
X109182886Y-84127074D01*
X109170298Y-84176102D01*
X109161565Y-84186621D01*
X101099632Y-92248554D01*
X101086794Y-92258811D01*
X101085323Y-92259739D01*
X101085320Y-92259741D01*
X101080864Y-92262553D01*
X101076747Y-92267215D01*
X101046333Y-92301652D01*
X101043193Y-92304993D01*
X101029894Y-92318292D01*
X101021893Y-92328968D01*
X101018164Y-92333547D01*
X100985988Y-92369980D01*
X100983748Y-92374752D01*
X100983745Y-92374756D01*
X100980545Y-92381573D01*
X100972779Y-92394501D01*
X100965091Y-92404758D01*
X100963241Y-92409694D01*
X100963240Y-92409695D01*
X100948033Y-92450260D01*
X100945727Y-92455733D01*
X100925077Y-92499717D01*
X100924266Y-92504927D01*
X100923107Y-92512371D01*
X100919280Y-92526961D01*
X100914781Y-92538962D01*
X100914390Y-92544218D01*
X100914390Y-92544220D01*
X100911180Y-92587425D01*
X100910502Y-92593326D01*
X100908428Y-92606646D01*
X100907989Y-92609466D01*
X100907989Y-92627613D01*
X100907786Y-92633097D01*
X100904160Y-92681893D01*
X100905260Y-92687045D01*
X100905260Y-92687048D01*
X100906359Y-92692195D01*
X100907989Y-92707643D01*
X100907989Y-93933545D01*
X100890676Y-93981111D01*
X100886315Y-93985871D01*
X93815970Y-101056216D01*
X93787493Y-101073941D01*
X93706473Y-101101523D01*
X93640947Y-101123830D01*
X93640945Y-101123831D01*
X93637035Y-101125162D01*
X93484085Y-101219257D01*
X93355782Y-101344900D01*
X93258504Y-101495846D01*
X93257091Y-101499729D01*
X93198501Y-101660701D01*
X93198500Y-101660706D01*
X93197085Y-101664593D01*
X93196566Y-101668698D01*
X93196566Y-101668700D01*
X93176102Y-101830700D01*
X93174579Y-101842753D01*
X93180439Y-101902520D01*
X93191365Y-102013955D01*
X93192102Y-102021473D01*
X93193406Y-102025394D01*
X93193407Y-102025397D01*
X93247480Y-102187947D01*
X93248785Y-102191869D01*
X93341811Y-102345472D01*
X93344679Y-102348442D01*
X93344683Y-102348447D01*
X93428383Y-102435120D01*
X93466555Y-102474648D01*
X93470014Y-102476912D01*
X93470017Y-102476914D01*
X93501817Y-102497723D01*
X93616818Y-102572978D01*
X93620698Y-102574421D01*
X93781254Y-102634131D01*
X93781256Y-102634131D01*
X93785132Y-102635573D01*
X93831562Y-102641768D01*
X93959028Y-102658776D01*
X93959032Y-102658776D01*
X93963131Y-102659323D01*
X93967252Y-102658948D01*
X93967256Y-102658948D01*
X94043723Y-102651989D01*
X94141968Y-102643048D01*
X94312756Y-102587556D01*
X94316311Y-102585437D01*
X94463453Y-102497723D01*
X94463457Y-102497720D01*
X94467005Y-102495605D01*
X94597049Y-102371765D01*
X94696425Y-102222192D01*
X94726383Y-102143327D01*
X94758725Y-102058188D01*
X94758726Y-102058185D01*
X94760194Y-102054320D01*
X94764259Y-102025397D01*
X94784863Y-101878792D01*
X94784863Y-101878786D01*
X94785186Y-101876491D01*
X94785467Y-101856388D01*
X94785468Y-101856328D01*
X94785468Y-101856320D01*
X94785500Y-101854000D01*
X94765483Y-101675543D01*
X94761700Y-101664678D01*
X94741176Y-101605742D01*
X94741883Y-101555128D01*
X94758734Y-101529080D01*
X101717346Y-94570468D01*
X101730184Y-94560211D01*
X101731655Y-94559283D01*
X101731658Y-94559281D01*
X101736114Y-94556469D01*
X101770645Y-94517370D01*
X101773785Y-94514029D01*
X101787084Y-94500730D01*
X101795085Y-94490054D01*
X101798814Y-94485475D01*
X101830990Y-94449042D01*
X101833230Y-94444270D01*
X101833233Y-94444266D01*
X101836433Y-94437449D01*
X101844199Y-94424521D01*
X101851887Y-94414264D01*
X101868945Y-94368762D01*
X101871251Y-94363289D01*
X101889661Y-94324077D01*
X101889662Y-94324075D01*
X101891901Y-94319305D01*
X101893871Y-94306649D01*
X101897698Y-94292061D01*
X101902197Y-94280060D01*
X101905798Y-94231597D01*
X101906476Y-94225696D01*
X101908550Y-94212376D01*
X101908550Y-94212375D01*
X101908989Y-94209556D01*
X101908989Y-94191409D01*
X101909192Y-94185925D01*
X101912427Y-94142386D01*
X101912818Y-94137129D01*
X101910619Y-94126827D01*
X101908989Y-94111379D01*
X101908989Y-92885477D01*
X101926302Y-92837911D01*
X101930663Y-92833151D01*
X102197884Y-92565930D01*
X102243760Y-92544538D01*
X102292655Y-92557639D01*
X102321689Y-92599103D01*
X102323330Y-92629634D01*
X102322128Y-92637353D01*
X102318302Y-92651939D01*
X102313803Y-92663940D01*
X102313412Y-92669196D01*
X102313412Y-92669198D01*
X102310202Y-92712403D01*
X102309524Y-92718304D01*
X102307011Y-92734444D01*
X102307011Y-92752591D01*
X102306808Y-92758075D01*
X102303182Y-92806871D01*
X102304282Y-92812023D01*
X102304282Y-92812026D01*
X102305381Y-92817173D01*
X102307011Y-92832621D01*
X102307011Y-95055246D01*
X102289698Y-95102812D01*
X102285337Y-95107572D01*
X99513143Y-97879766D01*
X99500305Y-97890023D01*
X99498834Y-97890951D01*
X99498831Y-97890953D01*
X99494375Y-97893765D01*
X99462488Y-97929870D01*
X99459844Y-97932864D01*
X99456704Y-97936205D01*
X99443405Y-97949504D01*
X99435404Y-97960180D01*
X99431675Y-97964759D01*
X99399499Y-98001192D01*
X99397259Y-98005964D01*
X99397256Y-98005968D01*
X99394056Y-98012785D01*
X99386290Y-98025713D01*
X99378602Y-98035970D01*
X99376752Y-98040906D01*
X99376751Y-98040907D01*
X99361544Y-98081472D01*
X99359238Y-98086945D01*
X99338588Y-98130929D01*
X99337777Y-98136139D01*
X99336618Y-98143583D01*
X99332791Y-98158173D01*
X99328292Y-98170174D01*
X99327901Y-98175430D01*
X99327901Y-98175432D01*
X99324691Y-98218637D01*
X99324013Y-98224538D01*
X99321500Y-98240678D01*
X99321500Y-98258825D01*
X99321297Y-98264309D01*
X99317671Y-98313105D01*
X99318771Y-98318257D01*
X99318771Y-98318260D01*
X99319870Y-98323407D01*
X99321500Y-98338855D01*
X99321500Y-101870034D01*
X99304187Y-101917600D01*
X99299826Y-101922360D01*
X95826360Y-105395826D01*
X95780484Y-105417218D01*
X95774034Y-105417500D01*
X94557812Y-105417500D01*
X94541481Y-105415675D01*
X94539792Y-105415293D01*
X94539791Y-105415293D01*
X94534643Y-105414128D01*
X94484832Y-105417218D01*
X94482575Y-105417358D01*
X94477993Y-105417500D01*
X94459188Y-105417500D01*
X94456584Y-105417873D01*
X94456583Y-105417873D01*
X94446000Y-105419388D01*
X94440093Y-105419993D01*
X94418330Y-105421343D01*
X94391593Y-105423002D01*
X94386634Y-105424792D01*
X94386635Y-105424792D01*
X94379533Y-105427355D01*
X94364903Y-105431002D01*
X94362815Y-105431301D01*
X94352225Y-105432818D01*
X94347423Y-105435001D01*
X94347424Y-105435001D01*
X94307981Y-105452934D01*
X94302483Y-105455172D01*
X94256784Y-105471670D01*
X94246440Y-105479227D01*
X94233420Y-105486835D01*
X94221753Y-105492140D01*
X94217760Y-105495581D01*
X94217758Y-105495582D01*
X94184942Y-105523859D01*
X94180289Y-105527553D01*
X94169404Y-105535505D01*
X94169399Y-105535509D01*
X94167097Y-105537191D01*
X94154266Y-105550022D01*
X94150244Y-105553756D01*
X94117169Y-105582255D01*
X94117164Y-105582261D01*
X94113176Y-105585697D01*
X94110310Y-105590119D01*
X94110309Y-105590120D01*
X94107447Y-105594535D01*
X94097677Y-105606611D01*
X91893143Y-107811145D01*
X91880305Y-107821402D01*
X91878834Y-107822330D01*
X91878831Y-107822332D01*
X91874375Y-107825144D01*
X91868565Y-107831723D01*
X91839844Y-107864243D01*
X91836704Y-107867584D01*
X91823405Y-107880883D01*
X91815404Y-107891559D01*
X91811675Y-107896138D01*
X91779499Y-107932571D01*
X91777259Y-107937343D01*
X91777256Y-107937347D01*
X91774056Y-107944164D01*
X91766290Y-107957092D01*
X91758602Y-107967349D01*
X91756752Y-107972285D01*
X91756751Y-107972286D01*
X91741544Y-108012851D01*
X91739238Y-108018324D01*
X91723380Y-108052102D01*
X91718588Y-108062308D01*
X91717777Y-108067518D01*
X91716618Y-108074962D01*
X91712791Y-108089552D01*
X91708292Y-108101553D01*
X91707901Y-108106809D01*
X91707901Y-108106811D01*
X91704691Y-108150016D01*
X91704013Y-108155917D01*
X91701500Y-108172057D01*
X91701500Y-108190204D01*
X91701297Y-108195688D01*
X91697671Y-108244484D01*
X91698771Y-108249636D01*
X91698771Y-108249639D01*
X91699870Y-108254786D01*
X91701500Y-108270234D01*
X91701500Y-110252034D01*
X91684187Y-110299600D01*
X91679826Y-110304360D01*
X91399880Y-110584306D01*
X91354004Y-110605698D01*
X91347554Y-110605980D01*
X91145185Y-110605980D01*
X91097619Y-110588667D01*
X91072309Y-110544830D01*
X91071905Y-110521681D01*
X91092095Y-110378024D01*
X91092095Y-110378018D01*
X91092418Y-110375723D01*
X91092566Y-110365147D01*
X91092700Y-110355560D01*
X91092700Y-110355552D01*
X91092732Y-110353232D01*
X91072715Y-110174775D01*
X91057766Y-110131846D01*
X91047967Y-110103710D01*
X91013658Y-110005187D01*
X90996673Y-109978005D01*
X90920690Y-109856406D01*
X90920688Y-109856404D01*
X90918497Y-109852897D01*
X90809224Y-109742859D01*
X90787992Y-109696908D01*
X90787732Y-109690716D01*
X90787732Y-103562934D01*
X90805045Y-103515368D01*
X90809406Y-103510608D01*
X91973857Y-102346157D01*
X91986695Y-102335900D01*
X91988166Y-102334972D01*
X91988169Y-102334970D01*
X91992625Y-102332158D01*
X92027156Y-102293059D01*
X92030296Y-102289718D01*
X92043595Y-102276419D01*
X92051596Y-102265743D01*
X92055325Y-102261164D01*
X92087501Y-102224731D01*
X92089741Y-102219959D01*
X92089744Y-102219955D01*
X92092944Y-102213138D01*
X92100710Y-102200210D01*
X92108398Y-102189953D01*
X92125456Y-102144451D01*
X92127762Y-102138978D01*
X92146172Y-102099766D01*
X92146173Y-102099764D01*
X92148412Y-102094994D01*
X92150382Y-102082338D01*
X92154209Y-102067750D01*
X92158708Y-102055749D01*
X92161814Y-102013955D01*
X92162309Y-102007286D01*
X92162987Y-102001385D01*
X92165061Y-101988065D01*
X92165061Y-101988064D01*
X92165500Y-101985245D01*
X92165500Y-101967098D01*
X92165703Y-101961614D01*
X92168939Y-101918071D01*
X92168939Y-101918069D01*
X92169329Y-101912818D01*
X92167129Y-101902514D01*
X92165500Y-101887072D01*
X92165500Y-97613166D01*
X92182813Y-97565600D01*
X92187174Y-97560840D01*
X97708089Y-92039925D01*
X97720927Y-92029668D01*
X97722398Y-92028740D01*
X97722401Y-92028738D01*
X97726857Y-92025926D01*
X97761388Y-91986827D01*
X97764528Y-91983486D01*
X97777827Y-91970187D01*
X97785828Y-91959511D01*
X97789557Y-91954932D01*
X97821733Y-91918499D01*
X97823973Y-91913727D01*
X97823976Y-91913723D01*
X97827176Y-91906906D01*
X97834942Y-91893978D01*
X97842630Y-91883721D01*
X97859689Y-91838217D01*
X97861995Y-91832746D01*
X97880404Y-91793533D01*
X97882644Y-91788762D01*
X97884615Y-91776105D01*
X97888443Y-91761515D01*
X97891091Y-91754451D01*
X97892941Y-91749516D01*
X97896542Y-91701048D01*
X97897220Y-91695145D01*
X97899293Y-91681831D01*
X97899732Y-91679013D01*
X97899732Y-91660870D01*
X97899935Y-91655387D01*
X97903170Y-91611843D01*
X97903561Y-91606586D01*
X97901362Y-91596284D01*
X97899732Y-91580836D01*
X97899732Y-90205239D01*
X97917045Y-90157673D01*
X97922700Y-90151651D01*
X98013284Y-90065388D01*
X98013288Y-90065383D01*
X98016281Y-90062533D01*
X98115657Y-89912960D01*
X98142976Y-89841042D01*
X98177957Y-89748956D01*
X98177958Y-89748953D01*
X98179426Y-89745088D01*
X98180274Y-89739053D01*
X98204095Y-89569560D01*
X98204095Y-89569554D01*
X98204418Y-89567259D01*
X98204649Y-89550733D01*
X98204700Y-89547096D01*
X98204700Y-89547088D01*
X98204732Y-89544768D01*
X98184715Y-89366311D01*
X98179547Y-89351469D01*
X98133274Y-89218593D01*
X98125658Y-89196723D01*
X98119341Y-89186614D01*
X98032690Y-89047942D01*
X98032688Y-89047940D01*
X98030497Y-89044433D01*
X97903961Y-88917011D01*
X97752340Y-88820789D01*
X97701467Y-88802674D01*
X97587071Y-88761939D01*
X97587067Y-88761938D01*
X97583169Y-88760550D01*
X97404855Y-88739288D01*
X97400745Y-88739720D01*
X97400743Y-88739720D01*
X97230372Y-88757626D01*
X97230371Y-88757626D01*
X97226263Y-88758058D01*
X97181617Y-88773257D01*
X97060179Y-88814598D01*
X97060177Y-88814599D01*
X97056267Y-88815930D01*
X96903317Y-88910025D01*
X96775014Y-89035668D01*
X96677736Y-89186614D01*
X96671585Y-89203514D01*
X96617733Y-89351469D01*
X96617732Y-89351474D01*
X96616317Y-89355361D01*
X96615798Y-89359466D01*
X96615798Y-89359468D01*
X96606867Y-89430170D01*
X96583729Y-89475192D01*
X96541185Y-89494491D01*
X96507733Y-89498007D01*
X96487908Y-89500090D01*
X96487907Y-89500090D01*
X96483799Y-89500522D01*
X96398801Y-89529458D01*
X96317715Y-89557062D01*
X96317713Y-89557063D01*
X96313803Y-89558394D01*
X96310283Y-89560559D01*
X96310284Y-89560559D01*
X96163659Y-89650762D01*
X96114073Y-89660940D01*
X96069547Y-89636864D01*
X96050913Y-89589800D01*
X96060799Y-89550733D01*
X96075275Y-89525661D01*
X96075277Y-89525657D01*
X96077215Y-89522300D01*
X96082762Y-89505228D01*
X96087206Y-89494499D01*
X96093596Y-89481959D01*
X96093597Y-89481955D01*
X96095357Y-89478502D01*
X96113249Y-89411730D01*
X96114349Y-89408016D01*
X96130123Y-89359468D01*
X96135713Y-89342264D01*
X96137590Y-89324406D01*
X96139704Y-89312997D01*
X96144352Y-89295651D01*
X96147970Y-89226602D01*
X96148274Y-89222754D01*
X96150297Y-89203514D01*
X96150298Y-89203495D01*
X96150500Y-89201573D01*
X96150500Y-89180284D01*
X96150601Y-89176411D01*
X96154056Y-89110475D01*
X96154259Y-89106610D01*
X96151411Y-89088628D01*
X96150500Y-89077052D01*
X96150500Y-82918692D01*
X96167813Y-82871126D01*
X96211650Y-82845816D01*
X96234285Y-82845342D01*
X96249131Y-82847323D01*
X96253252Y-82846948D01*
X96253256Y-82846948D01*
X96329723Y-82839989D01*
X96427968Y-82831048D01*
X96598756Y-82775556D01*
X96602311Y-82773437D01*
X96749453Y-82685723D01*
X96749457Y-82685720D01*
X96753005Y-82683605D01*
X96883049Y-82559765D01*
X96982425Y-82410192D01*
X97024647Y-82299043D01*
X97044725Y-82246188D01*
X97044726Y-82246185D01*
X97046194Y-82242320D01*
X97050259Y-82213397D01*
X97070863Y-82066792D01*
X97070863Y-82066786D01*
X97071186Y-82064491D01*
X97071334Y-82053915D01*
X97071468Y-82044328D01*
X97071468Y-82044320D01*
X97071500Y-82042000D01*
X97051483Y-81863543D01*
X97046315Y-81848701D01*
X97024737Y-81786740D01*
X96992426Y-81693955D01*
X96986109Y-81683846D01*
X96899458Y-81545174D01*
X96899456Y-81545172D01*
X96897265Y-81541665D01*
X96770729Y-81414243D01*
X96619108Y-81318021D01*
X96589143Y-81307351D01*
X96453839Y-81259171D01*
X96453835Y-81259170D01*
X96449937Y-81257782D01*
X96271623Y-81236520D01*
X96267513Y-81236952D01*
X96267511Y-81236952D01*
X96097140Y-81254858D01*
X96097139Y-81254858D01*
X96093031Y-81255290D01*
X96051378Y-81269470D01*
X95926947Y-81311830D01*
X95926945Y-81311831D01*
X95923035Y-81313162D01*
X95770085Y-81407257D01*
X95767129Y-81410152D01*
X95756692Y-81420372D01*
X95710594Y-81441282D01*
X95704918Y-81441500D01*
X95560552Y-81441500D01*
X95537376Y-81436575D01*
X95537045Y-81437594D01*
X95533362Y-81436397D01*
X95529815Y-81434818D01*
X95526020Y-81434011D01*
X95526019Y-81434011D01*
X95458413Y-81419641D01*
X95344651Y-81395460D01*
X95155349Y-81395460D01*
X95041587Y-81419641D01*
X94973981Y-81434011D01*
X94973980Y-81434011D01*
X94970185Y-81434818D01*
X94966638Y-81436397D01*
X94962955Y-81437594D01*
X94962624Y-81436575D01*
X94939448Y-81441500D01*
X94796600Y-81441500D01*
X94749034Y-81424187D01*
X94744090Y-81419641D01*
X94741645Y-81417179D01*
X94741643Y-81417177D01*
X94738729Y-81414243D01*
X94724307Y-81405090D01*
X94630677Y-81345671D01*
X94587108Y-81318021D01*
X94557143Y-81307351D01*
X94421839Y-81259171D01*
X94421835Y-81259170D01*
X94417937Y-81257782D01*
X94239623Y-81236520D01*
X94235513Y-81236952D01*
X94235511Y-81236952D01*
X94065140Y-81254858D01*
X94065139Y-81254858D01*
X94061031Y-81255290D01*
X94019378Y-81269470D01*
X93894947Y-81311830D01*
X93894945Y-81311831D01*
X93891035Y-81313162D01*
X93738085Y-81407257D01*
X93609782Y-81532900D01*
X93512504Y-81683846D01*
X93507404Y-81697859D01*
X93452501Y-81848701D01*
X93452500Y-81848706D01*
X93451085Y-81852593D01*
X93450566Y-81856698D01*
X93450566Y-81856700D01*
X93440582Y-81935738D01*
X93428579Y-82030753D01*
X93431659Y-82062168D01*
X93444157Y-82189632D01*
X93446102Y-82209473D01*
X93447406Y-82213394D01*
X93447407Y-82213397D01*
X93476760Y-82301635D01*
X93502785Y-82379869D01*
X93595811Y-82533472D01*
X93598679Y-82536442D01*
X93598683Y-82536447D01*
X93717682Y-82659673D01*
X93720555Y-82662648D01*
X93724014Y-82664912D01*
X93724017Y-82664914D01*
X93752580Y-82683605D01*
X93870818Y-82760978D01*
X93874698Y-82762421D01*
X94035254Y-82822131D01*
X94035256Y-82822131D01*
X94039132Y-82823573D01*
X94085562Y-82829768D01*
X94213028Y-82846776D01*
X94213032Y-82846776D01*
X94217131Y-82847323D01*
X94268795Y-82842621D01*
X94317734Y-82855552D01*
X94346911Y-82896916D01*
X94349500Y-82916317D01*
X94349500Y-88750348D01*
X94332187Y-88797914D01*
X94327826Y-88802674D01*
X92612675Y-90517826D01*
X92566799Y-90539218D01*
X92560349Y-90539500D01*
X91900427Y-90539500D01*
X91898509Y-90539702D01*
X91898501Y-90539702D01*
X91763594Y-90553881D01*
X91763589Y-90553882D01*
X91759736Y-90554287D01*
X91756048Y-90555485D01*
X91756045Y-90555486D01*
X91583386Y-90611587D01*
X91583383Y-90611588D01*
X91579700Y-90612785D01*
X91415760Y-90707435D01*
X91275082Y-90834102D01*
X91163814Y-90987250D01*
X91086818Y-91160185D01*
X91047460Y-91345349D01*
X91047460Y-91534651D01*
X91086818Y-91719815D01*
X91088396Y-91723360D01*
X91088397Y-91723362D01*
X91137098Y-91832746D01*
X91163814Y-91892750D01*
X91275082Y-92045898D01*
X91415760Y-92172565D01*
X91419117Y-92174503D01*
X91557504Y-92254400D01*
X91579700Y-92267215D01*
X91583383Y-92268412D01*
X91583386Y-92268413D01*
X91756045Y-92324514D01*
X91756048Y-92324515D01*
X91759736Y-92325713D01*
X91763589Y-92326118D01*
X91763594Y-92326119D01*
X91898501Y-92340298D01*
X91898509Y-92340298D01*
X91900427Y-92340500D01*
X92887052Y-92340500D01*
X92898628Y-92341411D01*
X92915896Y-92344146D01*
X92960169Y-92368687D01*
X92967615Y-92378898D01*
X93004300Y-92439472D01*
X93007168Y-92442442D01*
X93007172Y-92442447D01*
X93105454Y-92544220D01*
X93129044Y-92568648D01*
X93132503Y-92570912D01*
X93132506Y-92570914D01*
X93191420Y-92609466D01*
X93279307Y-92666978D01*
X93283187Y-92668421D01*
X93443743Y-92728131D01*
X93443745Y-92728131D01*
X93447621Y-92729573D01*
X93484128Y-92734444D01*
X93621517Y-92752776D01*
X93621521Y-92752776D01*
X93625620Y-92753323D01*
X93629741Y-92752948D01*
X93629745Y-92752948D01*
X93706212Y-92745989D01*
X93804457Y-92737048D01*
X93975245Y-92681556D01*
X93978800Y-92679437D01*
X94125942Y-92591723D01*
X94125946Y-92591720D01*
X94129494Y-92589605D01*
X94259538Y-92465765D01*
X94358914Y-92316192D01*
X94422683Y-92148320D01*
X94436713Y-92048491D01*
X94447352Y-91972792D01*
X94447352Y-91972786D01*
X94447675Y-91970491D01*
X94447861Y-91957150D01*
X94447957Y-91950328D01*
X94447957Y-91950320D01*
X94447989Y-91948000D01*
X94427972Y-91769543D01*
X94425177Y-91761515D01*
X94389170Y-91658119D01*
X94368915Y-91599955D01*
X94366725Y-91596450D01*
X94366722Y-91596444D01*
X94288057Y-91470554D01*
X94277532Y-91421041D01*
X94298486Y-91379014D01*
X95806171Y-89871329D01*
X95852047Y-89849937D01*
X95900942Y-89863038D01*
X95929976Y-89904502D01*
X95928034Y-89948964D01*
X95920961Y-89968398D01*
X95875269Y-90093933D01*
X95875268Y-90093938D01*
X95873853Y-90097825D01*
X95873334Y-90101930D01*
X95873334Y-90101932D01*
X95864291Y-90173522D01*
X95851347Y-90275985D01*
X95868870Y-90454705D01*
X95870174Y-90458626D01*
X95870175Y-90458629D01*
X95924248Y-90621179D01*
X95925553Y-90625101D01*
X96018579Y-90778704D01*
X96021447Y-90781674D01*
X96021451Y-90781679D01*
X96140450Y-90904905D01*
X96143323Y-90907880D01*
X96146782Y-90910144D01*
X96146785Y-90910146D01*
X96215982Y-90955427D01*
X96293586Y-91006210D01*
X96400526Y-91045981D01*
X96439074Y-91078787D01*
X96448731Y-91115339D01*
X96448731Y-91216603D01*
X96431418Y-91264169D01*
X96427057Y-91268929D01*
X90906143Y-96789843D01*
X90893305Y-96800100D01*
X90891834Y-96801028D01*
X90891831Y-96801030D01*
X90887375Y-96803842D01*
X90855488Y-96839947D01*
X90852844Y-96842941D01*
X90849704Y-96846282D01*
X90836405Y-96859581D01*
X90828404Y-96870257D01*
X90824675Y-96874836D01*
X90792499Y-96911269D01*
X90790259Y-96916041D01*
X90790256Y-96916045D01*
X90787056Y-96922862D01*
X90779290Y-96935790D01*
X90771602Y-96946047D01*
X90769752Y-96950983D01*
X90769751Y-96950984D01*
X90754544Y-96991549D01*
X90752238Y-96997022D01*
X90731588Y-97041006D01*
X90730777Y-97046216D01*
X90729618Y-97053660D01*
X90725791Y-97068250D01*
X90721292Y-97080251D01*
X90720901Y-97085507D01*
X90720901Y-97085509D01*
X90717691Y-97128714D01*
X90717013Y-97134615D01*
X90714500Y-97150755D01*
X90714500Y-97168902D01*
X90714297Y-97174386D01*
X90710671Y-97223182D01*
X90711771Y-97228334D01*
X90711771Y-97228337D01*
X90712870Y-97233484D01*
X90714500Y-97248932D01*
X90714500Y-101522834D01*
X90697187Y-101570400D01*
X90692826Y-101575160D01*
X89528374Y-102739612D01*
X89515536Y-102749869D01*
X89514065Y-102750797D01*
X89514062Y-102750799D01*
X89509606Y-102753611D01*
X89494823Y-102770350D01*
X89475075Y-102792710D01*
X89471935Y-102796051D01*
X89458636Y-102809350D01*
X89450635Y-102820026D01*
X89446906Y-102824605D01*
X89414730Y-102861038D01*
X89412490Y-102865810D01*
X89412487Y-102865814D01*
X89409287Y-102872631D01*
X89401521Y-102885559D01*
X89393833Y-102895816D01*
X89391983Y-102900752D01*
X89391982Y-102900753D01*
X89376775Y-102941318D01*
X89374469Y-102946791D01*
X89353819Y-102990775D01*
X89353008Y-102995985D01*
X89351849Y-103003429D01*
X89348022Y-103018019D01*
X89343523Y-103030020D01*
X89343132Y-103035276D01*
X89343132Y-103035278D01*
X89339922Y-103078483D01*
X89339244Y-103084384D01*
X89336731Y-103100524D01*
X89336731Y-103118671D01*
X89336528Y-103124155D01*
X89332902Y-103172951D01*
X89334002Y-103178103D01*
X89334002Y-103178106D01*
X89335101Y-103183253D01*
X89336731Y-103198701D01*
X89336731Y-108783017D01*
X89319418Y-108830583D01*
X89286579Y-108853069D01*
X89205715Y-108880598D01*
X89205713Y-108880599D01*
X89201803Y-108881930D01*
X89065149Y-108966000D01*
X89050669Y-108974908D01*
X89001084Y-108985086D01*
X88956557Y-108961010D01*
X88938355Y-108920129D01*
X88923944Y-108791653D01*
X88923483Y-108787543D01*
X88918315Y-108772701D01*
X88904116Y-108731929D01*
X88900000Y-108707593D01*
X88900000Y-87374500D01*
X88917313Y-87326934D01*
X88961150Y-87301624D01*
X88974000Y-87300500D01*
X89446035Y-87300500D01*
X89448031Y-87300283D01*
X89448034Y-87300283D01*
X89585090Y-87285394D01*
X89585092Y-87285394D01*
X89589074Y-87284961D01*
X89769328Y-87224299D01*
X89932350Y-87126346D01*
X90070534Y-86995671D01*
X90177435Y-86838371D01*
X90248065Y-86661785D01*
X90275500Y-86496061D01*
X90275500Y-86378973D01*
X90273188Y-86357686D01*
X90260393Y-86239910D01*
X90260393Y-86239909D01*
X90259960Y-86235925D01*
X90259935Y-86235851D01*
X90266464Y-86186907D01*
X90303843Y-86152774D01*
X90354417Y-86150652D01*
X90381847Y-86166456D01*
X90391317Y-86175073D01*
X90395235Y-86177200D01*
X90395236Y-86177201D01*
X90442463Y-86202843D01*
X90540288Y-86255957D01*
X90544599Y-86257088D01*
X90570149Y-86263791D01*
X90704253Y-86298973D01*
X90873745Y-86301635D01*
X90878087Y-86300641D01*
X90878092Y-86300640D01*
X90962248Y-86281365D01*
X91038980Y-86263791D01*
X91115517Y-86225297D01*
X91186430Y-86189632D01*
X91186432Y-86189631D01*
X91190418Y-86187626D01*
X91319316Y-86077536D01*
X91418234Y-85939877D01*
X91438296Y-85889973D01*
X91479796Y-85786740D01*
X91479797Y-85786736D01*
X91481461Y-85782597D01*
X91505345Y-85614775D01*
X91505500Y-85600000D01*
X91485135Y-85431715D01*
X91425217Y-85273145D01*
X91329203Y-85133444D01*
X91283649Y-85092857D01*
X91205972Y-85023649D01*
X91205970Y-85023647D01*
X91202638Y-85020679D01*
X91052829Y-84941359D01*
X90970626Y-84920711D01*
X90892748Y-84901149D01*
X90892745Y-84901149D01*
X90888423Y-84900063D01*
X90801178Y-84899606D01*
X90723370Y-84899199D01*
X90723367Y-84899199D01*
X90718912Y-84899176D01*
X90714577Y-84900217D01*
X90714575Y-84900217D01*
X90628632Y-84920850D01*
X90554082Y-84938748D01*
X90403450Y-85016495D01*
X90275711Y-85127928D01*
X90273143Y-85131582D01*
X90273142Y-85131583D01*
X90269247Y-85137126D01*
X90178240Y-85266615D01*
X90116665Y-85424549D01*
X90116083Y-85428973D01*
X90116082Y-85428975D01*
X90096689Y-85576280D01*
X90094539Y-85592612D01*
X90105380Y-85690807D01*
X90106943Y-85704968D01*
X90094955Y-85754147D01*
X90054159Y-85784114D01*
X90003646Y-85780847D01*
X89979625Y-85763934D01*
X89973422Y-85757375D01*
X89973421Y-85757374D01*
X89970670Y-85754465D01*
X89813370Y-85647564D01*
X89636784Y-85576934D01*
X89471066Y-85549500D01*
X88974000Y-85549500D01*
X88926434Y-85532187D01*
X88901124Y-85488350D01*
X88900000Y-85475500D01*
X88900000Y-81724500D01*
X88917313Y-81676934D01*
X88961150Y-81651624D01*
X88974000Y-81650500D01*
X89446035Y-81650500D01*
X89448031Y-81650283D01*
X89448034Y-81650283D01*
X89585090Y-81635394D01*
X89585092Y-81635394D01*
X89589074Y-81634961D01*
X89700099Y-81597597D01*
X89765528Y-81575578D01*
X89765529Y-81575577D01*
X89769328Y-81574299D01*
X89932350Y-81476346D01*
X89983673Y-81427812D01*
X90030129Y-81407708D01*
X90078638Y-81422169D01*
X90106503Y-81464428D01*
X90107885Y-81491237D01*
X90095121Y-81588189D01*
X90094539Y-81592612D01*
X90097901Y-81623066D01*
X90107554Y-81710499D01*
X90113140Y-81761102D01*
X90114673Y-81765291D01*
X90164579Y-81901664D01*
X90171395Y-81920290D01*
X90173883Y-81923992D01*
X90253181Y-82042000D01*
X90265940Y-82060988D01*
X90391317Y-82175073D01*
X90395235Y-82177200D01*
X90395236Y-82177201D01*
X90442463Y-82202843D01*
X90540288Y-82255957D01*
X90544599Y-82257088D01*
X90570149Y-82263791D01*
X90704253Y-82298973D01*
X90873745Y-82301635D01*
X90878087Y-82300641D01*
X90878092Y-82300640D01*
X90962248Y-82281365D01*
X91038980Y-82263791D01*
X91155164Y-82205357D01*
X91186430Y-82189632D01*
X91186432Y-82189631D01*
X91190418Y-82187626D01*
X91319316Y-82077536D01*
X91418234Y-81939877D01*
X91433596Y-81901664D01*
X91479796Y-81786740D01*
X91479797Y-81786736D01*
X91481461Y-81782597D01*
X91505345Y-81614775D01*
X91505500Y-81600000D01*
X91485135Y-81431715D01*
X91425217Y-81273145D01*
X91390132Y-81222096D01*
X91331734Y-81137126D01*
X91331732Y-81137124D01*
X91329203Y-81133444D01*
X91245036Y-81058454D01*
X91205972Y-81023649D01*
X91205970Y-81023647D01*
X91202638Y-81020679D01*
X91052829Y-80941359D01*
X90970626Y-80920711D01*
X90892748Y-80901149D01*
X90892745Y-80901149D01*
X90888423Y-80900063D01*
X90801178Y-80899606D01*
X90723370Y-80899199D01*
X90723367Y-80899199D01*
X90718912Y-80899176D01*
X90714577Y-80900217D01*
X90714575Y-80900217D01*
X90628632Y-80920850D01*
X90554082Y-80938748D01*
X90403450Y-81016495D01*
X90400089Y-81019427D01*
X90400086Y-81019429D01*
X90376240Y-81040231D01*
X90329015Y-81058454D01*
X90281125Y-81042058D01*
X90254978Y-80998715D01*
X90254588Y-80972382D01*
X90259817Y-80940795D01*
X90275500Y-80846061D01*
X90275500Y-80728973D01*
X90275283Y-80726974D01*
X90260393Y-80589909D01*
X90260393Y-80589907D01*
X90259960Y-80585925D01*
X90199298Y-80405671D01*
X90101345Y-80242649D01*
X89970670Y-80104465D01*
X89813370Y-79997564D01*
X89636784Y-79926934D01*
X89471066Y-79899500D01*
X88974000Y-79899500D01*
X88926434Y-79882187D01*
X88901124Y-79838350D01*
X88900000Y-79825500D01*
X88900000Y-74937006D01*
X89995490Y-74937006D01*
X89995602Y-74939857D01*
X90003639Y-75144413D01*
X90006611Y-75220072D01*
X90057506Y-75498748D01*
X90058336Y-75501235D01*
X90058336Y-75501236D01*
X90118555Y-75681732D01*
X90147160Y-75767472D01*
X90273782Y-76020883D01*
X90275266Y-76023030D01*
X90275270Y-76023037D01*
X90369463Y-76159321D01*
X90434847Y-76253924D01*
X90627141Y-76461947D01*
X90846827Y-76640799D01*
X90849068Y-76642148D01*
X90849072Y-76642151D01*
X90919774Y-76684717D01*
X91089522Y-76786914D01*
X91091932Y-76787935D01*
X91091935Y-76787936D01*
X91322397Y-76885523D01*
X91350384Y-76897374D01*
X91352916Y-76898045D01*
X91352918Y-76898046D01*
X91509644Y-76939601D01*
X91624207Y-76969977D01*
X91905528Y-77003274D01*
X92034407Y-77000237D01*
X92186115Y-76996662D01*
X92186119Y-76996662D01*
X92188734Y-76996600D01*
X92191309Y-76996171D01*
X92191313Y-76996171D01*
X92465593Y-76950518D01*
X92465596Y-76950517D01*
X92468175Y-76950088D01*
X92577330Y-76915567D01*
X92735780Y-76865456D01*
X92735783Y-76865455D01*
X92738274Y-76864667D01*
X92740628Y-76863536D01*
X92740632Y-76863535D01*
X92991295Y-76743168D01*
X92993642Y-76742041D01*
X93074568Y-76687968D01*
X93227007Y-76586112D01*
X93227014Y-76586107D01*
X93229185Y-76584656D01*
X93440202Y-76395653D01*
X93622484Y-76178803D01*
X93720972Y-76020883D01*
X93771012Y-75940646D01*
X93771013Y-75940644D01*
X93772392Y-75938433D01*
X93886936Y-75679339D01*
X93963831Y-75406690D01*
X93988552Y-75222643D01*
X94001290Y-75127813D01*
X94001291Y-75127804D01*
X94001543Y-75125926D01*
X94005500Y-75000000D01*
X94001225Y-74939625D01*
X93985677Y-74720030D01*
X93985676Y-74720024D01*
X93985492Y-74717423D01*
X93983422Y-74707805D01*
X93926419Y-74443039D01*
X93925869Y-74440483D01*
X93827819Y-74174708D01*
X93795839Y-74115439D01*
X93694542Y-73927700D01*
X93694539Y-73927695D01*
X93693300Y-73925399D01*
X93524994Y-73697532D01*
X93523167Y-73695676D01*
X93523161Y-73695669D01*
X93328097Y-73497517D01*
X93328096Y-73497517D01*
X93326261Y-73495652D01*
X93238694Y-73428823D01*
X93103144Y-73325374D01*
X93103138Y-73325370D01*
X93101065Y-73323788D01*
X92853900Y-73185369D01*
X92589698Y-73083157D01*
X92587155Y-73082568D01*
X92587150Y-73082566D01*
X92316275Y-73019781D01*
X92316273Y-73019781D01*
X92313729Y-73019191D01*
X92311129Y-73018966D01*
X92311124Y-73018965D01*
X92034110Y-72994973D01*
X92031501Y-72994747D01*
X91748644Y-73010314D01*
X91470803Y-73065580D01*
X91305044Y-73123790D01*
X91205991Y-73158575D01*
X91205988Y-73158576D01*
X91203520Y-73159443D01*
X91201200Y-73160648D01*
X91201198Y-73160649D01*
X90954444Y-73288827D01*
X90954439Y-73288830D01*
X90952129Y-73290030D01*
X90950007Y-73291546D01*
X90950006Y-73291547D01*
X90723768Y-73453219D01*
X90723763Y-73453223D01*
X90721646Y-73454736D01*
X90719758Y-73456537D01*
X90530278Y-73637292D01*
X90516670Y-73650273D01*
X90341290Y-73872742D01*
X90339979Y-73874999D01*
X90222149Y-74077859D01*
X90199006Y-74117702D01*
X90198023Y-74120129D01*
X90198022Y-74120131D01*
X90093638Y-74377840D01*
X90093635Y-74377848D01*
X90092656Y-74380266D01*
X90024363Y-74655196D01*
X89995490Y-74937006D01*
X88900000Y-74937006D01*
X88900000Y-73690652D01*
X88917313Y-73643086D01*
X88921674Y-73638326D01*
X91418326Y-71141674D01*
X91464202Y-71120282D01*
X91470652Y-71120000D01*
X154909348Y-71120000D01*
X154956914Y-71137313D01*
G37*
%TD.AperFunction*%
%TD*%
M02*
