M48
; DRILL file {KiCad (5.99.0-10363-ga7f956581c)} date Sat Apr 24 20:18:26 2021
; FORMAT={-:-/ absolute / inch / decimal}
; #@! TF.CreationDate,2021-04-24T20:18:26-04:00
; #@! TF.GenerationSoftware,Kicad,Pcbnew,(5.99.0-10363-ga7f956581c)
; #@! TF.FileFunction,Plated,1,2,PTH
FMAT,2
INCH
; #@! TA.AperFunction,Plated,PTH,ViaDrill
T1C0.0157
; #@! TA.AperFunction,Plated,PTH,ComponentDrill
T2C0.0177
; #@! TA.AperFunction,Plated,PTH,ViaDrill
T3C0.0197
; #@! TA.AperFunction,Plated,PTH,ComponentDrill
T4C0.0300
; #@! TA.AperFunction,Plated,PTH,ComponentDrill
T5C0.0433
; #@! TA.AperFunction,Plated,PTH,ComponentDrill
T6C0.0630
%
G90
G05
T1
X3.4671Y-4.1313
X3.47Y-4.29
X3.5218Y-3.064
X3.5254Y-4.3154
X3.5254Y-4.3154
X3.54Y-3.89
X3.54Y-3.93
X3.54Y-3.97
X3.5546Y-4.3446
X3.5546Y-4.3446
X3.56Y-3.54
X3.6Y-4.16
X3.62Y-3.37
X3.62Y-3.6
X3.66Y-3.37
X3.66Y-3.43
X3.66Y-3.6
X3.66Y-3.89
X3.66Y-3.93
X3.66Y-3.97
X3.6867Y-3.62
X3.7Y-4.01
X3.71Y-3.23
X3.73Y-4.34
X3.7321Y-4.1989
X3.75Y-3.24
X3.76Y-4.05
X3.76Y-4.41
X3.78Y-3.59
X3.79Y-3.23
X3.8Y-3.96
X3.8054Y-3.5546
X3.8346Y-3.5254
X3.84Y-3.96
X3.87Y-4.35
X3.88Y-3.96
X3.88Y-4.25
X3.91Y-4.08
X3.91Y-4.11
X3.95Y-2.93
X3.98Y-3.43
X4.02Y-3.7
X4.03Y-3.81
X4.07Y-4.38
X4.08Y-3.81
X4.09Y-3.7
X4.15Y-4.03
X4.16Y-4.06
X4.17Y-4.6
X4.21Y-4.16
X4.26Y-4.3
X4.29Y-3.93
X4.3Y-3.4
X4.3095Y-4.328
X4.33Y-3.31
X4.45Y-4.07
X4.45Y-4.21
X4.45Y-4.35
X4.46Y-4.46
X4.5Y-3.81
X4.5Y-4.17
X4.54Y-3.52
X4.77Y-4.05
X4.79Y-4.29
X4.89Y-4.22
X4.92Y-4.05
T3
X3.87Y-4.48
X3.98Y-2.86
X4.03Y-3.09
X4.09Y-2.96
X4.16Y-3.23
X4.18Y-4.52
X4.22Y-2.96
X4.29Y-3.09
X4.32Y-4.37
X4.45Y-2.84
X4.62Y-4.48
X4.92Y-4.6
T4
X4.9295Y-3.0367
X5.0295Y-3.0367
X5.1295Y-3.0367
X5.2295Y-3.0367
X5.3295Y-3.0367
X5.4295Y-3.0367
X5.5295Y-3.0367
X5.6295Y-3.0367
T5
X5.5079Y-4.4449
T6
X5.3846Y-4.3217
X5.3846Y-4.5681
X5.6311Y-4.3217
X5.6311Y-4.5681
T2
G00X3.5177Y-3.1801
M15
G01X3.4744Y-3.1801
M16
G05
G00X3.5177Y-3.4026
M15
G01X3.4744Y-3.4026
M16
G05
T0
M30
